0
SECTION
2
HEADER
9
$INSUNITS
70
4
0
ENDSEC
0
SECTION
2
TABLES
0
TABLE
2
LTYPE
0
LTYPE
72
65
70
64
2
CONTINUOUS
3
______
73
0
40
0
0
ENDTAB
0
TABLE
2
LAYER
0
ENDTAB
0
ENDSEC
0
SECTION
2
ENTITIES
0
LINE
8
0
10
3.025
20
-21.575
11
16.025
21
-21.575
0
LINE
8
0
10
3.025
20
-35.575
11
16.025
21
-35.575
0
LINE
8
0
10
2.525
20
-22.075
11
2.525
21
-35.075
0
LINE
8
0
10
16.525
20
-22.075
11
16.525
21
-35.075
0
ARC
8
0
10
3.025
20
-22.075
40
0.5
50
90
51
180
0
ARC
8
0
10
16.025
20
-22.075
40
0.5
50
0
51
90
0
ARC
8
0
10
3.025
20
-35.075
40
0.5
50
180
51
270
0
ARC
8
0
10
16.025
20
-35.075
40
0.5
50
270
51
0
0
LINE
8
0
10
22.075
20
-21.575
11
35.075
21
-21.575
0
LINE
8
0
10
22.075
20
-35.575
11
35.075
21
-35.575
0
LINE
8
0
10
21.575
20
-22.075
11
21.575
21
-35.075
0
LINE
8
0
10
35.575
20
-22.075
11
35.575
21
-35.075
0
ARC
8
0
10
22.075
20
-22.075
40
0.5
50
90
51
180
0
ARC
8
0
10
35.075
20
-22.075
40
0.5
50
0
51
90
0
ARC
8
0
10
22.075
20
-35.075
40
0.5
50
180
51
270
0
ARC
8
0
10
35.075
20
-35.075
40
0.5
50
270
51
0
0
LINE
8
0
10
41.125
20
-21.575
11
54.125
21
-21.575
0
LINE
8
0
10
41.125
20
-35.575
11
54.125
21
-35.575
0
LINE
8
0
10
40.625
20
-22.075
11
40.625
21
-35.075
0
LINE
8
0
10
54.625
20
-22.075
11
54.625
21
-35.075
0
ARC
8
0
10
41.125
20
-22.075
40
0.5
50
90
51
180
0
ARC
8
0
10
54.125
20
-22.075
40
0.5
50
0
51
90
0
ARC
8
0
10
41.125
20
-35.075
40
0.5
50
180
51
270
0
ARC
8
0
10
54.125
20
-35.075
40
0.5
50
270
51
0
0
LINE
8
0
10
60.175
20
-21.575
11
73.175
21
-21.575
0
LINE
8
0
10
60.175
20
-35.575
11
73.175
21
-35.575
0
LINE
8
0
10
59.675
20
-22.075
11
59.675
21
-35.075
0
LINE
8
0
10
73.675
20
-22.075
11
73.675
21
-35.075
0
ARC
8
0
10
60.175
20
-22.075
40
0.5
50
90
51
180
0
ARC
8
0
10
73.175
20
-22.075
40
0.5
50
0
51
90
0
ARC
8
0
10
60.175
20
-35.075
40
0.5
50
180
51
270
0
ARC
8
0
10
73.175
20
-35.075
40
0.5
50
270
51
0
0
LINE
8
0
10
79.225
20
-21.575
11
92.225
21
-21.575
0
LINE
8
0
10
79.225
20
-35.575
11
92.225
21
-35.575
0
LINE
8
0
10
78.725
20
-22.075
11
78.725
21
-35.075
0
LINE
8
0
10
92.725
20
-22.075
11
92.725
21
-35.075
0
ARC
8
0
10
79.225
20
-22.075
40
0.5
50
90
51
180
0
ARC
8
0
10
92.225
20
-22.075
40
0.5
50
0
51
90
0
ARC
8
0
10
79.225
20
-35.075
40
0.5
50
180
51
270
0
ARC
8
0
10
92.225
20
-35.075
40
0.5
50
270
51
0
0
LINE
8
0
10
98.275
20
-21.575
11
111.275
21
-21.575
0
LINE
8
0
10
98.275
20
-35.575
11
111.275
21
-35.575
0
LINE
8
0
10
97.775
20
-22.075
11
97.775
21
-35.075
0
LINE
8
0
10
111.775
20
-22.075
11
111.775
21
-35.075
0
ARC
8
0
10
98.275
20
-22.075
40
0.5
50
90
51
180
0
ARC
8
0
10
111.275
20
-22.075
40
0.5
50
0
51
90
0
ARC
8
0
10
98.275
20
-35.075
40
0.5
50
180
51
270
0
ARC
8
0
10
111.275
20
-35.075
40
0.5
50
270
51
0
0
LINE
8
0
10
117.325
20
-21.575
11
130.325
21
-21.575
0
LINE
8
0
10
117.325
20
-35.575
11
130.325
21
-35.575
0
LINE
8
0
10
116.825
20
-22.075
11
116.825
21
-35.075
0
LINE
8
0
10
130.825
20
-22.075
11
130.825
21
-35.075
0
ARC
8
0
10
117.325
20
-22.075
40
0.5
50
90
51
180
0
ARC
8
0
10
130.325
20
-22.075
40
0.5
50
0
51
90
0
ARC
8
0
10
117.325
20
-35.075
40
0.5
50
180
51
270
0
ARC
8
0
10
130.325
20
-35.075
40
0.5
50
270
51
0
0
LINE
8
0
10
136.375
20
-21.575
11
149.375
21
-21.575
0
LINE
8
0
10
136.375
20
-35.575
11
149.375
21
-35.575
0
LINE
8
0
10
135.875
20
-22.075
11
135.875
21
-35.075
0
LINE
8
0
10
149.875
20
-22.075
11
149.875
21
-35.075
0
ARC
8
0
10
136.375
20
-22.075
40
0.5
50
90
51
180
0
ARC
8
0
10
149.375
20
-22.075
40
0.5
50
0
51
90
0
ARC
8
0
10
136.375
20
-35.075
40
0.5
50
180
51
270
0
ARC
8
0
10
149.375
20
-35.075
40
0.5
50
270
51
0
0
LINE
8
0
10
155.425
20
-21.575
11
168.425
21
-21.575
0
LINE
8
0
10
155.425
20
-35.575
11
168.425
21
-35.575
0
LINE
8
0
10
154.925
20
-22.075
11
154.925
21
-35.075
0
LINE
8
0
10
168.925
20
-22.075
11
168.925
21
-35.075
0
ARC
8
0
10
155.425
20
-22.075
40
0.5
50
90
51
180
0
ARC
8
0
10
168.425
20
-22.075
40
0.5
50
0
51
90
0
ARC
8
0
10
155.425
20
-35.075
40
0.5
50
180
51
270
0
ARC
8
0
10
168.425
20
-35.075
40
0.5
50
270
51
0
0
LINE
8
0
10
174.475
20
-21.575
11
187.475
21
-21.575
0
LINE
8
0
10
174.475
20
-35.575
11
187.475
21
-35.575
0
LINE
8
0
10
173.975
20
-22.075
11
173.975
21
-35.075
0
LINE
8
0
10
187.975
20
-22.075
11
187.975
21
-35.075
0
ARC
8
0
10
174.475
20
-22.075
40
0.5
50
90
51
180
0
ARC
8
0
10
187.475
20
-22.075
40
0.5
50
0
51
90
0
ARC
8
0
10
174.475
20
-35.075
40
0.5
50
180
51
270
0
ARC
8
0
10
187.475
20
-35.075
40
0.5
50
270
51
0
0
LINE
8
0
10
193.525
20
-21.575
11
206.525
21
-21.575
0
LINE
8
0
10
193.525
20
-35.575
11
206.525
21
-35.575
0
LINE
8
0
10
193.025
20
-22.075
11
193.025
21
-35.075
0
LINE
8
0
10
207.025
20
-22.075
11
207.025
21
-35.075
0
ARC
8
0
10
193.525
20
-22.075
40
0.5
50
90
51
180
0
ARC
8
0
10
206.525
20
-22.075
40
0.5
50
0
51
90
0
ARC
8
0
10
193.525
20
-35.075
40
0.5
50
180
51
270
0
ARC
8
0
10
206.525
20
-35.075
40
0.5
50
270
51
0
0
LINE
8
0
10
219.71875
20
-21.575
11
232.71875
21
-21.575
0
LINE
8
0
10
219.71875
20
-35.575
11
232.71875
21
-35.575
0
LINE
8
0
10
219.21875
20
-22.075
11
219.21875
21
-35.075
0
LINE
8
0
10
233.21875
20
-22.075
11
233.21875
21
-35.075
0
ARC
8
0
10
219.71875
20
-22.075
40
0.5
50
90
51
180
0
ARC
8
0
10
232.71875
20
-22.075
40
0.5
50
0
51
90
0
ARC
8
0
10
219.71875
20
-35.075
40
0.5
50
180
51
270
0
ARC
8
0
10
232.71875
20
-35.075
40
0.5
50
270
51
0
0
LINE
8
0
10
245.9125
20
-21.575
11
258.9125
21
-21.575
0
LINE
8
0
10
245.9125
20
-35.575
11
258.9125
21
-35.575
0
LINE
8
0
10
245.4125
20
-22.075
11
245.4125
21
-35.075
0
LINE
8
0
10
259.4125
20
-22.075
11
259.4125
21
-35.075
0
ARC
8
0
10
245.9125
20
-22.075
40
0.5
50
90
51
180
0
ARC
8
0
10
258.9125
20
-22.075
40
0.5
50
0
51
90
0
ARC
8
0
10
245.9125
20
-35.075
40
0.5
50
180
51
270
0
ARC
8
0
10
258.9125
20
-35.075
40
0.5
50
270
51
0
0
LINE
8
0
10
5.40625
20
-40.625
11
18.40625
21
-40.625
0
LINE
8
0
10
5.40625
20
-54.625
11
18.40625
21
-54.625
0
LINE
8
0
10
4.90625
20
-41.125
11
4.90625
21
-54.125
0
LINE
8
0
10
18.90625
20
-41.125
11
18.90625
21
-54.125
0
ARC
8
0
10
5.40625
20
-41.125
40
0.5
50
90
51
180
0
ARC
8
0
10
18.40625
20
-41.125
40
0.5
50
0
51
90
0
ARC
8
0
10
5.40625
20
-54.125
40
0.5
50
180
51
270
0
ARC
8
0
10
18.40625
20
-54.125
40
0.5
50
270
51
0
0
LINE
8
0
10
26.8375
20
-40.625
11
39.8375
21
-40.625
0
LINE
8
0
10
26.8375
20
-54.625
11
39.8375
21
-54.625
0
LINE
8
0
10
26.3375
20
-41.125
11
26.3375
21
-54.125
0
LINE
8
0
10
40.3375
20
-41.125
11
40.3375
21
-54.125
0
ARC
8
0
10
26.8375
20
-41.125
40
0.5
50
90
51
180
0
ARC
8
0
10
39.8375
20
-41.125
40
0.5
50
0
51
90
0
ARC
8
0
10
26.8375
20
-54.125
40
0.5
50
180
51
270
0
ARC
8
0
10
39.8375
20
-54.125
40
0.5
50
270
51
0
0
LINE
8
0
10
45.8875
20
-40.625
11
58.8875
21
-40.625
0
LINE
8
0
10
45.8875
20
-54.625
11
58.8875
21
-54.625
0
LINE
8
0
10
45.3875
20
-41.125
11
45.3875
21
-54.125
0
LINE
8
0
10
59.3875
20
-41.125
11
59.3875
21
-54.125
0
ARC
8
0
10
45.8875
20
-41.125
40
0.5
50
90
51
180
0
ARC
8
0
10
58.8875
20
-41.125
40
0.5
50
0
51
90
0
ARC
8
0
10
45.8875
20
-54.125
40
0.5
50
180
51
270
0
ARC
8
0
10
58.8875
20
-54.125
40
0.5
50
270
51
0
0
LINE
8
0
10
64.9375
20
-40.625
11
77.9375
21
-40.625
0
LINE
8
0
10
64.9375
20
-54.625
11
77.9375
21
-54.625
0
LINE
8
0
10
64.4375
20
-41.125
11
64.4375
21
-54.125
0
LINE
8
0
10
78.4375
20
-41.125
11
78.4375
21
-54.125
0
ARC
8
0
10
64.9375
20
-41.125
40
0.5
50
90
51
180
0
ARC
8
0
10
77.9375
20
-41.125
40
0.5
50
0
51
90
0
ARC
8
0
10
64.9375
20
-54.125
40
0.5
50
180
51
270
0
ARC
8
0
10
77.9375
20
-54.125
40
0.5
50
270
51
0
0
LINE
8
0
10
83.9875
20
-40.625
11
96.9875
21
-40.625
0
LINE
8
0
10
83.9875
20
-54.625
11
96.9875
21
-54.625
0
LINE
8
0
10
83.4875
20
-41.125
11
83.4875
21
-54.125
0
LINE
8
0
10
97.4875
20
-41.125
11
97.4875
21
-54.125
0
ARC
8
0
10
83.9875
20
-41.125
40
0.5
50
90
51
180
0
ARC
8
0
10
96.9875
20
-41.125
40
0.5
50
0
51
90
0
ARC
8
0
10
83.9875
20
-54.125
40
0.5
50
180
51
270
0
ARC
8
0
10
96.9875
20
-54.125
40
0.5
50
270
51
0
0
LINE
8
0
10
103.0375
20
-40.625
11
116.0375
21
-40.625
0
LINE
8
0
10
103.0375
20
-54.625
11
116.0375
21
-54.625
0
LINE
8
0
10
102.5375
20
-41.125
11
102.5375
21
-54.125
0
LINE
8
0
10
116.5375
20
-41.125
11
116.5375
21
-54.125
0
ARC
8
0
10
103.0375
20
-41.125
40
0.5
50
90
51
180
0
ARC
8
0
10
116.0375
20
-41.125
40
0.5
50
0
51
90
0
ARC
8
0
10
103.0375
20
-54.125
40
0.5
50
180
51
270
0
ARC
8
0
10
116.0375
20
-54.125
40
0.5
50
270
51
0
0
LINE
8
0
10
122.0875
20
-40.625
11
135.0875
21
-40.625
0
LINE
8
0
10
122.0875
20
-54.625
11
135.0875
21
-54.625
0
LINE
8
0
10
121.5875
20
-41.125
11
121.5875
21
-54.125
0
LINE
8
0
10
135.5875
20
-41.125
11
135.5875
21
-54.125
0
ARC
8
0
10
122.0875
20
-41.125
40
0.5
50
90
51
180
0
ARC
8
0
10
135.0875
20
-41.125
40
0.5
50
0
51
90
0
ARC
8
0
10
122.0875
20
-54.125
40
0.5
50
180
51
270
0
ARC
8
0
10
135.0875
20
-54.125
40
0.5
50
270
51
0
0
LINE
8
0
10
141.1375
20
-40.625
11
154.1375
21
-40.625
0
LINE
8
0
10
141.1375
20
-54.625
11
154.1375
21
-54.625
0
LINE
8
0
10
140.6375
20
-41.125
11
140.6375
21
-54.125
0
LINE
8
0
10
154.6375
20
-41.125
11
154.6375
21
-54.125
0
ARC
8
0
10
141.1375
20
-41.125
40
0.5
50
90
51
180
0
ARC
8
0
10
154.1375
20
-41.125
40
0.5
50
0
51
90
0
ARC
8
0
10
141.1375
20
-54.125
40
0.5
50
180
51
270
0
ARC
8
0
10
154.1375
20
-54.125
40
0.5
50
270
51
0
0
LINE
8
0
10
160.1875
20
-40.625
11
173.1875
21
-40.625
0
LINE
8
0
10
160.1875
20
-54.625
11
173.1875
21
-54.625
0
LINE
8
0
10
159.6875
20
-41.125
11
159.6875
21
-54.125
0
LINE
8
0
10
173.6875
20
-41.125
11
173.6875
21
-54.125
0
ARC
8
0
10
160.1875
20
-41.125
40
0.5
50
90
51
180
0
ARC
8
0
10
173.1875
20
-41.125
40
0.5
50
0
51
90
0
ARC
8
0
10
160.1875
20
-54.125
40
0.5
50
180
51
270
0
ARC
8
0
10
173.1875
20
-54.125
40
0.5
50
270
51
0
0
LINE
8
0
10
179.2375
20
-40.625
11
192.2375
21
-40.625
0
LINE
8
0
10
179.2375
20
-54.625
11
192.2375
21
-54.625
0
LINE
8
0
10
178.7375
20
-41.125
11
178.7375
21
-54.125
0
LINE
8
0
10
192.7375
20
-41.125
11
192.7375
21
-54.125
0
ARC
8
0
10
179.2375
20
-41.125
40
0.5
50
90
51
180
0
ARC
8
0
10
192.2375
20
-41.125
40
0.5
50
0
51
90
0
ARC
8
0
10
179.2375
20
-54.125
40
0.5
50
180
51
270
0
ARC
8
0
10
192.2375
20
-54.125
40
0.5
50
270
51
0
0
LINE
8
0
10
198.2875
20
-40.625
11
211.2875
21
-40.625
0
LINE
8
0
10
198.2875
20
-54.625
11
211.2875
21
-54.625
0
LINE
8
0
10
197.7875
20
-41.125
11
197.7875
21
-54.125
0
LINE
8
0
10
211.7875
20
-41.125
11
211.7875
21
-54.125
0
ARC
8
0
10
198.2875
20
-41.125
40
0.5
50
90
51
180
0
ARC
8
0
10
211.2875
20
-41.125
40
0.5
50
0
51
90
0
ARC
8
0
10
198.2875
20
-54.125
40
0.5
50
180
51
270
0
ARC
8
0
10
211.2875
20
-54.125
40
0.5
50
270
51
0
0
LINE
8
0
10
222.1
20
-40.625
11
235.1
21
-40.625
0
LINE
8
0
10
222.1
20
-54.625
11
235.1
21
-54.625
0
LINE
8
0
10
221.6
20
-41.125
11
221.6
21
-54.125
0
LINE
8
0
10
235.6
20
-41.125
11
235.6
21
-54.125
0
ARC
8
0
10
222.1
20
-41.125
40
0.5
50
90
51
180
0
ARC
8
0
10
235.1
20
-41.125
40
0.5
50
0
51
90
0
ARC
8
0
10
222.1
20
-54.125
40
0.5
50
180
51
270
0
ARC
8
0
10
235.1
20
-54.125
40
0.5
50
270
51
0
0
LINE
8
0
10
245.9125
20
-40.625
11
258.9125
21
-40.625
0
LINE
8
0
10
245.9125
20
-54.625
11
258.9125
21
-54.625
0
LINE
8
0
10
245.4125
20
-41.125
11
245.4125
21
-54.125
0
LINE
8
0
10
259.4125
20
-41.125
11
259.4125
21
-54.125
0
ARC
8
0
10
245.9125
20
-41.125
40
0.5
50
90
51
180
0
ARC
8
0
10
258.9125
20
-41.125
40
0.5
50
0
51
90
0
ARC
8
0
10
245.9125
20
-54.125
40
0.5
50
180
51
270
0
ARC
8
0
10
258.9125
20
-54.125
40
0.5
50
270
51
0
0
LINE
8
0
10
10.16875
20
-59.675
11
23.16875
21
-59.675
0
LINE
8
0
10
10.16875
20
-73.675
11
23.16875
21
-73.675
0
LINE
8
0
10
9.66875
20
-60.175
11
9.66875
21
-73.175
0
LINE
8
0
10
23.66875
20
-60.175
11
23.66875
21
-73.175
0
ARC
8
0
10
10.16875
20
-60.175
40
0.5
50
90
51
180
0
ARC
8
0
10
23.16875
20
-60.175
40
0.5
50
0
51
90
0
ARC
8
0
10
10.16875
20
-73.175
40
0.5
50
180
51
270
0
ARC
8
0
10
23.16875
20
-73.175
40
0.5
50
270
51
0
0
LINE
8
0
10
36.3625
20
-59.675
11
49.3625
21
-59.675
0
LINE
8
0
10
36.3625
20
-73.675
11
49.3625
21
-73.675
0
LINE
8
0
10
35.8625
20
-60.175
11
35.8625
21
-73.175
0
LINE
8
0
10
49.8625
20
-60.175
11
49.8625
21
-73.175
0
ARC
8
0
10
36.3625
20
-60.175
40
0.5
50
90
51
180
0
ARC
8
0
10
49.3625
20
-60.175
40
0.5
50
0
51
90
0
ARC
8
0
10
36.3625
20
-73.175
40
0.5
50
180
51
270
0
ARC
8
0
10
49.3625
20
-73.175
40
0.5
50
270
51
0
0
LINE
8
0
10
55.4125
20
-59.675
11
68.4125
21
-59.675
0
LINE
8
0
10
55.4125
20
-73.675
11
68.4125
21
-73.675
0
LINE
8
0
10
54.9125
20
-60.175
11
54.9125
21
-73.175
0
LINE
8
0
10
68.9125
20
-60.175
11
68.9125
21
-73.175
0
ARC
8
0
10
55.4125
20
-60.175
40
0.5
50
90
51
180
0
ARC
8
0
10
68.4125
20
-60.175
40
0.5
50
0
51
90
0
ARC
8
0
10
55.4125
20
-73.175
40
0.5
50
180
51
270
0
ARC
8
0
10
68.4125
20
-73.175
40
0.5
50
270
51
0
0
LINE
8
0
10
74.4625
20
-59.675
11
87.4625
21
-59.675
0
LINE
8
0
10
74.4625
20
-73.675
11
87.4625
21
-73.675
0
LINE
8
0
10
73.9625
20
-60.175
11
73.9625
21
-73.175
0
LINE
8
0
10
87.9625
20
-60.175
11
87.9625
21
-73.175
0
ARC
8
0
10
74.4625
20
-60.175
40
0.5
50
90
51
180
0
ARC
8
0
10
87.4625
20
-60.175
40
0.5
50
0
51
90
0
ARC
8
0
10
74.4625
20
-73.175
40
0.5
50
180
51
270
0
ARC
8
0
10
87.4625
20
-73.175
40
0.5
50
270
51
0
0
LINE
8
0
10
93.5125
20
-59.675
11
106.5125
21
-59.675
0
LINE
8
0
10
93.5125
20
-73.675
11
106.5125
21
-73.675
0
LINE
8
0
10
93.0125
20
-60.175
11
93.0125
21
-73.175
0
LINE
8
0
10
107.0125
20
-60.175
11
107.0125
21
-73.175
0
ARC
8
0
10
93.5125
20
-60.175
40
0.5
50
90
51
180
0
ARC
8
0
10
106.5125
20
-60.175
40
0.5
50
0
51
90
0
ARC
8
0
10
93.5125
20
-73.175
40
0.5
50
180
51
270
0
ARC
8
0
10
106.5125
20
-73.175
40
0.5
50
270
51
0
0
LINE
8
0
10
112.5625
20
-59.675
11
125.5625
21
-59.675
0
LINE
8
0
10
112.5625
20
-73.675
11
125.5625
21
-73.675
0
LINE
8
0
10
112.0625
20
-60.175
11
112.0625
21
-73.175
0
LINE
8
0
10
126.0625
20
-60.175
11
126.0625
21
-73.175
0
ARC
8
0
10
112.5625
20
-60.175
40
0.5
50
90
51
180
0
ARC
8
0
10
125.5625
20
-60.175
40
0.5
50
0
51
90
0
ARC
8
0
10
112.5625
20
-73.175
40
0.5
50
180
51
270
0
ARC
8
0
10
125.5625
20
-73.175
40
0.5
50
270
51
0
0
LINE
8
0
10
131.6125
20
-59.675
11
144.6125
21
-59.675
0
LINE
8
0
10
131.6125
20
-73.675
11
144.6125
21
-73.675
0
LINE
8
0
10
131.1125
20
-60.175
11
131.1125
21
-73.175
0
LINE
8
0
10
145.1125
20
-60.175
11
145.1125
21
-73.175
0
ARC
8
0
10
131.6125
20
-60.175
40
0.5
50
90
51
180
0
ARC
8
0
10
144.6125
20
-60.175
40
0.5
50
0
51
90
0
ARC
8
0
10
131.6125
20
-73.175
40
0.5
50
180
51
270
0
ARC
8
0
10
144.6125
20
-73.175
40
0.5
50
270
51
0
0
LINE
8
0
10
150.6625
20
-59.675
11
163.6625
21
-59.675
0
LINE
8
0
10
150.6625
20
-73.675
11
163.6625
21
-73.675
0
LINE
8
0
10
150.1625
20
-60.175
11
150.1625
21
-73.175
0
LINE
8
0
10
164.1625
20
-60.175
11
164.1625
21
-73.175
0
ARC
8
0
10
150.6625
20
-60.175
40
0.5
50
90
51
180
0
ARC
8
0
10
163.6625
20
-60.175
40
0.5
50
0
51
90
0
ARC
8
0
10
150.6625
20
-73.175
40
0.5
50
180
51
270
0
ARC
8
0
10
163.6625
20
-73.175
40
0.5
50
270
51
0
0
LINE
8
0
10
169.7125
20
-59.675
11
182.7125
21
-59.675
0
LINE
8
0
10
169.7125
20
-73.675
11
182.7125
21
-73.675
0
LINE
8
0
10
169.2125
20
-60.175
11
169.2125
21
-73.175
0
LINE
8
0
10
183.2125
20
-60.175
11
183.2125
21
-73.175
0
ARC
8
0
10
169.7125
20
-60.175
40
0.5
50
90
51
180
0
ARC
8
0
10
182.7125
20
-60.175
40
0.5
50
0
51
90
0
ARC
8
0
10
169.7125
20
-73.175
40
0.5
50
180
51
270
0
ARC
8
0
10
182.7125
20
-73.175
40
0.5
50
270
51
0
0
LINE
8
0
10
188.7625
20
-59.675
11
201.7625
21
-59.675
0
LINE
8
0
10
188.7625
20
-73.675
11
201.7625
21
-73.675
0
LINE
8
0
10
188.2625
20
-60.175
11
188.2625
21
-73.175
0
LINE
8
0
10
202.2625
20
-60.175
11
202.2625
21
-73.175
0
ARC
8
0
10
188.7625
20
-60.175
40
0.5
50
90
51
180
0
ARC
8
0
10
201.7625
20
-60.175
40
0.5
50
0
51
90
0
ARC
8
0
10
188.7625
20
-73.175
40
0.5
50
180
51
270
0
ARC
8
0
10
201.7625
20
-73.175
40
0.5
50
270
51
0
0
LINE
8
0
10
207.8125
20
-59.675
11
220.8125
21
-59.675
0
LINE
8
0
10
207.8125
20
-73.675
11
220.8125
21
-73.675
0
LINE
8
0
10
207.3125
20
-60.175
11
207.3125
21
-73.175
0
LINE
8
0
10
221.3125
20
-60.175
11
221.3125
21
-73.175
0
ARC
8
0
10
207.8125
20
-60.175
40
0.5
50
90
51
180
0
ARC
8
0
10
220.8125
20
-60.175
40
0.5
50
0
51
90
0
ARC
8
0
10
207.8125
20
-73.175
40
0.5
50
180
51
270
0
ARC
8
0
10
220.8125
20
-73.175
40
0.5
50
270
51
0
0
LINE
8
0
10
226.8625
20
-59.675
11
239.8625
21
-59.675
0
LINE
8
0
10
226.8625
20
-73.675
11
239.8625
21
-73.675
0
LINE
8
0
10
226.3625
20
-60.175
11
226.3625
21
-73.175
0
LINE
8
0
10
240.3625
20
-60.175
11
240.3625
21
-73.175
0
ARC
8
0
10
226.8625
20
-60.175
40
0.5
50
90
51
180
0
ARC
8
0
10
239.8625
20
-60.175
40
0.5
50
0
51
90
0
ARC
8
0
10
226.8625
20
-73.175
40
0.5
50
180
51
270
0
ARC
8
0
10
239.8625
20
-73.175
40
0.5
50
270
51
0
0
LINE
8
0
10
245.9125
20
-59.675
11
258.9125
21
-59.675
0
LINE
8
0
10
245.9125
20
-73.675
11
258.9125
21
-73.675
0
LINE
8
0
10
245.4125
20
-60.175
11
245.4125
21
-73.175
0
LINE
8
0
10
259.4125
20
-60.175
11
259.4125
21
-73.175
0
ARC
8
0
10
245.9125
20
-60.175
40
0.5
50
90
51
180
0
ARC
8
0
10
258.9125
20
-60.175
40
0.5
50
0
51
90
0
ARC
8
0
10
245.9125
20
-73.175
40
0.5
50
180
51
270
0
ARC
8
0
10
258.9125
20
-73.175
40
0.5
50
270
51
0
0
LINE
8
0
10
5.40625
20
-78.725
11
18.40625
21
-78.725
0
LINE
8
0
10
5.40625
20
-92.725
11
18.40625
21
-92.725
0
LINE
8
0
10
4.90625
20
-79.225
11
4.90625
21
-92.225
0
LINE
8
0
10
18.90625
20
-79.225
11
18.90625
21
-92.225
0
ARC
8
0
10
5.40625
20
-79.225
40
0.5
50
90
51
180
0
ARC
8
0
10
18.40625
20
-79.225
40
0.5
50
0
51
90
0
ARC
8
0
10
5.40625
20
-92.225
40
0.5
50
180
51
270
0
ARC
8
0
10
18.40625
20
-92.225
40
0.5
50
270
51
0
0
LINE
8
0
10
26.8375
20
-78.725
11
39.8375
21
-78.725
0
LINE
8
0
10
26.8375
20
-92.725
11
39.8375
21
-92.725
0
LINE
8
0
10
26.3375
20
-79.225
11
26.3375
21
-92.225
0
LINE
8
0
10
40.3375
20
-79.225
11
40.3375
21
-92.225
0
ARC
8
0
10
26.8375
20
-79.225
40
0.5
50
90
51
180
0
ARC
8
0
10
39.8375
20
-79.225
40
0.5
50
0
51
90
0
ARC
8
0
10
26.8375
20
-92.225
40
0.5
50
180
51
270
0
ARC
8
0
10
39.8375
20
-92.225
40
0.5
50
270
51
0
0
LINE
8
0
10
48.26875
20
-78.725
11
61.26875
21
-78.725
0
LINE
8
0
10
48.26875
20
-92.725
11
61.26875
21
-92.725
0
LINE
8
0
10
47.76875
20
-79.225
11
47.76875
21
-92.225
0
LINE
8
0
10
61.76875
20
-79.225
11
61.76875
21
-92.225
0
ARC
8
0
10
48.26875
20
-79.225
40
0.5
50
90
51
180
0
ARC
8
0
10
61.26875
20
-79.225
40
0.5
50
0
51
90
0
ARC
8
0
10
48.26875
20
-92.225
40
0.5
50
180
51
270
0
ARC
8
0
10
61.26875
20
-92.225
40
0.5
50
270
51
0
0
LINE
8
0
10
81.60625
20
-78.725
11
94.60625
21
-78.725
0
LINE
8
0
10
81.60625
20
-92.725
11
94.60625
21
-92.725
0
LINE
8
0
10
81.10625
20
-79.225
11
81.10625
21
-92.225
0
LINE
8
0
10
95.10625
20
-79.225
11
95.10625
21
-92.225
0
ARC
8
0
10
81.60625
20
-79.225
40
0.5
50
90
51
180
0
ARC
8
0
10
94.60625
20
-79.225
40
0.5
50
0
51
90
0
ARC
8
0
10
81.60625
20
-92.225
40
0.5
50
180
51
270
0
ARC
8
0
10
94.60625
20
-92.225
40
0.5
50
270
51
0
0
LINE
8
0
10
73.16825
20
-79.725
11
79.16825
21
-79.725
0
LINE
8
0
10
73.16825
20
-94.725
11
79.16825
21
-94.725
0
LINE
8
0
10
72.66825
20
-80.225
11
72.66825
21
-94.225
0
LINE
8
0
10
79.66825
20
-80.225
11
79.66825
21
-94.225
0
ARC
8
0
10
73.16825
20
-80.225
40
0.5
50
90
51
180
0
ARC
8
0
10
79.16825
20
-80.225
40
0.5
50
0
51
90
0
ARC
8
0
10
73.16825
20
-94.225
40
0.5
50
180
51
270
0
ARC
8
0
10
79.16825
20
-94.225
40
0.5
50
270
51
0
0
LINE
8
0
10
97.04425
20
-79.725
11
103.04425
21
-79.725
0
LINE
8
0
10
97.04425
20
-94.725
11
103.04425
21
-94.725
0
LINE
8
0
10
96.54425
20
-80.225
11
96.54425
21
-94.225
0
LINE
8
0
10
103.54425
20
-80.225
11
103.54425
21
-94.225
0
ARC
8
0
10
97.04425
20
-80.225
40
0.5
50
90
51
180
0
ARC
8
0
10
103.04425
20
-80.225
40
0.5
50
0
51
90
0
ARC
8
0
10
97.04425
20
-94.225
40
0.5
50
180
51
270
0
ARC
8
0
10
103.04425
20
-94.225
40
0.5
50
270
51
0
0
LINE
8
0
10
129.23125
20
-78.725
11
142.23125
21
-78.725
0
LINE
8
0
10
129.23125
20
-92.725
11
142.23125
21
-92.725
0
LINE
8
0
10
128.73125
20
-79.225
11
128.73125
21
-92.225
0
LINE
8
0
10
142.73125
20
-79.225
11
142.73125
21
-92.225
0
ARC
8
0
10
129.23125
20
-79.225
40
0.5
50
90
51
180
0
ARC
8
0
10
142.23125
20
-79.225
40
0.5
50
0
51
90
0
ARC
8
0
10
129.23125
20
-92.225
40
0.5
50
180
51
270
0
ARC
8
0
10
142.23125
20
-92.225
40
0.5
50
270
51
0
0
LINE
8
0
10
120.79325
20
-79.725
11
126.79325
21
-79.725
0
LINE
8
0
10
120.79325
20
-94.725
11
126.79325
21
-94.725
0
LINE
8
0
10
120.29325
20
-80.225
11
120.29325
21
-94.225
0
LINE
8
0
10
127.29325
20
-80.225
11
127.29325
21
-94.225
0
ARC
8
0
10
120.79325
20
-80.225
40
0.5
50
90
51
180
0
ARC
8
0
10
126.79325
20
-80.225
40
0.5
50
0
51
90
0
ARC
8
0
10
120.79325
20
-94.225
40
0.5
50
180
51
270
0
ARC
8
0
10
126.79325
20
-94.225
40
0.5
50
270
51
0
0
LINE
8
0
10
144.66925
20
-79.725
11
150.66925
21
-79.725
0
LINE
8
0
10
144.66925
20
-94.725
11
150.66925
21
-94.725
0
LINE
8
0
10
144.16925
20
-80.225
11
144.16925
21
-94.225
0
LINE
8
0
10
151.16925
20
-80.225
11
151.16925
21
-94.225
0
ARC
8
0
10
144.66925
20
-80.225
40
0.5
50
90
51
180
0
ARC
8
0
10
150.66925
20
-80.225
40
0.5
50
0
51
90
0
ARC
8
0
10
144.66925
20
-94.225
40
0.5
50
180
51
270
0
ARC
8
0
10
150.66925
20
-94.225
40
0.5
50
270
51
0
0
LINE
8
0
10
164.95
20
-78.725
11
177.95
21
-78.725
0
LINE
8
0
10
164.95
20
-92.725
11
177.95
21
-92.725
0
LINE
8
0
10
164.45
20
-79.225
11
164.45
21
-92.225
0
LINE
8
0
10
178.45
20
-79.225
11
178.45
21
-92.225
0
ARC
8
0
10
164.95
20
-79.225
40
0.5
50
90
51
180
0
ARC
8
0
10
177.95
20
-79.225
40
0.5
50
0
51
90
0
ARC
8
0
10
164.95
20
-92.225
40
0.5
50
180
51
270
0
ARC
8
0
10
177.95
20
-92.225
40
0.5
50
270
51
0
0
LINE
8
0
10
186.38125
20
-78.725
11
199.38125
21
-78.725
0
LINE
8
0
10
186.38125
20
-92.725
11
199.38125
21
-92.725
0
LINE
8
0
10
185.88125
20
-79.225
11
185.88125
21
-92.225
0
LINE
8
0
10
199.88125
20
-79.225
11
199.88125
21
-92.225
0
ARC
8
0
10
186.38125
20
-79.225
40
0.5
50
90
51
180
0
ARC
8
0
10
199.38125
20
-79.225
40
0.5
50
0
51
90
0
ARC
8
0
10
186.38125
20
-92.225
40
0.5
50
180
51
270
0
ARC
8
0
10
199.38125
20
-92.225
40
0.5
50
270
51
0
0
LINE
8
0
10
207.8125
20
-78.725
11
220.8125
21
-78.725
0
LINE
8
0
10
207.8125
20
-92.725
11
220.8125
21
-92.725
0
LINE
8
0
10
207.3125
20
-79.225
11
207.3125
21
-92.225
0
LINE
8
0
10
221.3125
20
-79.225
11
221.3125
21
-92.225
0
ARC
8
0
10
207.8125
20
-79.225
40
0.5
50
90
51
180
0
ARC
8
0
10
220.8125
20
-79.225
40
0.5
50
0
51
90
0
ARC
8
0
10
207.8125
20
-92.225
40
0.5
50
180
51
270
0
ARC
8
0
10
220.8125
20
-92.225
40
0.5
50
270
51
0
0
LINE
8
0
10
226.8625
20
-78.725
11
239.8625
21
-78.725
0
LINE
8
0
10
226.8625
20
-92.725
11
239.8625
21
-92.725
0
LINE
8
0
10
226.3625
20
-79.225
11
226.3625
21
-92.225
0
LINE
8
0
10
240.3625
20
-79.225
11
240.3625
21
-92.225
0
ARC
8
0
10
226.8625
20
-79.225
40
0.5
50
90
51
180
0
ARC
8
0
10
239.8625
20
-79.225
40
0.5
50
0
51
90
0
ARC
8
0
10
226.8625
20
-92.225
40
0.5
50
180
51
270
0
ARC
8
0
10
239.8625
20
-92.225
40
0.5
50
270
51
0
0
LINE
8
0
10
245.9125
20
-78.725
11
258.9125
21
-78.725
0
LINE
8
0
10
245.9125
20
-92.725
11
258.9125
21
-92.725
0
LINE
8
0
10
245.4125
20
-79.225
11
245.4125
21
-92.225
0
LINE
8
0
10
259.4125
20
-79.225
11
259.4125
21
-92.225
0
ARC
8
0
10
245.9125
20
-79.225
40
0.5
50
90
51
180
0
ARC
8
0
10
258.9125
20
-79.225
40
0.5
50
0
51
90
0
ARC
8
0
10
245.9125
20
-92.225
40
0.5
50
180
51
270
0
ARC
8
0
10
258.9125
20
-92.225
40
0.5
50
270
51
0
0
LINE
8
0
10
0
20
-95.25
11
261.9375
21
-95.25
0
LINE
8
0
10
0
20
-19.05
11
261.9375
21
-19.05
0
LINE
8
0
10
0
20
-95.25
11
0
21
-19.05
0
LINE
8
0
10
261.9375
20
-95.25
11
261.9375
21
-19.05
0
ENDSEC
0
EOF