M48
; DRILL file {KiCad (6.0.1)} date Tue Feb  8 20:20:10 2022
; FORMAT={-:-/ absolute / metric / decimal}
; #@! TF.CreationDate,2022-02-08T20:20:10+09:00
; #@! TF.GenerationSoftware,Kicad,Pcbnew,(6.0.1)
; #@! TF.FileFunction,Plated,1,2,PTH
FMAT,2
METRIC
; #@! TA.AperFunction,Plated,PTH,ViaDrill
T1C0.400
; #@! TA.AperFunction,Plated,PTH,ComponentDrill
T2C0.400
; #@! TA.AperFunction,Plated,PTH,ComponentDrill
T3C0.600
; #@! TA.AperFunction,Plated,PTH,ComponentDrill
T4C1.000
; #@! TA.AperFunction,Plated,PTH,ComponentDrill
T5C2.000
%
G90
G05
T1
X23.971Y-32.769
X26.255Y-51.869
X26.255Y-89.688
X31.055Y-70.888
X38.351Y-37.439
X42.941Y-32.769
X47.831Y-51.869
X47.855Y-89.688
X57.455Y-70.888
X59.381Y-37.659
X62.031Y-32.769
X66.631Y-51.869
X69.055Y-89.688
X76.255Y-70.888
X78.441Y-37.689
X81.131Y-32.769
X85.831Y-51.869
X95.455Y-70.888
X97.421Y-37.729
X100.131Y-32.769
X104.631Y-51.869
X114.255Y-70.888
X116.571Y-37.659
X119.231Y-32.769
X123.831Y-51.869
X133.455Y-70.888
X133.855Y-72.487
X134.18Y-73.587
X135.521Y-37.599
X138.231Y-32.769
X143.031Y-51.869
X152.655Y-70.888
X157.331Y-32.669
X161.831Y-51.869
X164.231Y-56.799
X171.455Y-70.888
X176.331Y-32.669
X181.031Y-51.869
X183.251Y-56.749
X185.855Y-89.688
X190.655Y-70.888
X195.331Y-32.669
X199.831Y-51.869
X202.221Y-56.719
X207.455Y-89.688
X209.455Y-70.888
X214.431Y-32.669
X219.031Y-51.869
X221.201Y-56.499
X228.655Y-70.888
X228.655Y-89.688
X234.01Y-39.545
X234.526Y-38.663
X235.171Y-37.918
X240.981Y-56.809
X247.731Y-56.883
X249.113Y-37.932
X249.821Y-37.173
X250.565Y-36.358
X251.351Y-35.74
X252.272Y-35.088
X252.997Y-34.347
X253.721Y-33.479
X254.611Y-34.359
X254.621Y-32.559
X256.181Y-33.719
X257.021Y-51.789
X257.558Y-52.869
X258.123Y-53.694
X258.151Y-41.889
X258.601Y-48.869
X258.638Y-54.579
X259.279Y-55.346
X259.861Y-56.159
X260.655Y-70.888
X260.655Y-89.688
X260.661Y-56.849
X261.309Y-45.446
X262.037Y-31.491
X262.202Y-26.34
X262.922Y-33.731
X263.607Y-56.729
X263.856Y-28.276
X264.847Y-48.989
X265.572Y-51.144
X265.581Y-73.439
X265.644Y-31.469
X266.201Y-72.479
X266.631Y-51.869
X266.655Y-70.888
X266.655Y-89.688
X266.831Y-32.569
X269.501Y-31.489
X271.976Y-35.884
X279.691Y-56.829
T2
X257.375Y-24.131
X257.375Y-25.456
X258.225Y-25.456
X258.23Y-24.131
X259.075Y-25.456
X259.08Y-24.131
X259.925Y-25.456
X259.93Y-24.131
X260.775Y-25.456
X260.78Y-24.131
X261.625Y-25.456
X261.63Y-24.131
X262.475Y-25.456
X262.48Y-24.131
X263.325Y-25.456
X263.33Y-24.131
T3
X231.026Y-30.554
X234.626Y-30.554
X238.226Y-30.554
T4
X270.946Y-20.014
X270.946Y-34.514
X273.446Y-34.514
X275.946Y-20.014
X275.946Y-34.514
T3
X256.025Y-20.696G85X256.025Y-21.496
G05
X256.025Y-23.726G85X256.025Y-25.226
G05
X264.675Y-20.696G85X264.675Y-21.496
G05
X264.675Y-23.726G85X264.675Y-25.226
G05
T5
X267.846Y-27.414G85X267.846Y-26.614
G05
X279.046Y-27.414G85X279.046Y-26.614
G05
T0
M30
