G04 #@! TF.GenerationSoftware,KiCad,Pcbnew,(6.0.1)*
G04 #@! TF.CreationDate,2022-02-08T20:19:43+09:00*
G04 #@! TF.ProjectId,PCB_design_try,5043425f-6465-4736-9967-6e5f7472792e,rev?*
G04 #@! TF.SameCoordinates,Original*
G04 #@! TF.FileFunction,Copper,L1,Top*
G04 #@! TF.FilePolarity,Positive*
%FSLAX46Y46*%
G04 Gerber Fmt 4.6, Leading zero omitted, Abs format (unit mm)*
G04 Created by KiCad (PCBNEW (6.0.1)) date 2022-02-08 20:19:43*
%MOMM*%
%LPD*%
G01*
G04 APERTURE LIST*
G04 Aperture macros list*
%AMRoundRect*
0 Rectangle with rounded corners*
0 $1 Rounding radius*
0 $2 $3 $4 $5 $6 $7 $8 $9 X,Y pos of 4 corners*
0 Add a 4 corners polygon primitive as box body*
4,1,4,$2,$3,$4,$5,$6,$7,$8,$9,$2,$3,0*
0 Add four circle primitives for the rounded corners*
1,1,$1+$1,$2,$3*
1,1,$1+$1,$4,$5*
1,1,$1+$1,$6,$7*
1,1,$1+$1,$8,$9*
0 Add four rect primitives between the rounded corners*
20,1,$1+$1,$2,$3,$4,$5,0*
20,1,$1+$1,$4,$5,$6,$7,0*
20,1,$1+$1,$6,$7,$8,$9,0*
20,1,$1+$1,$8,$9,$2,$3,0*%
G04 Aperture macros list end*
G04 #@! TA.AperFunction,ComponentPad*
%ADD10C,0.650000*%
G04 #@! TD*
G04 #@! TA.AperFunction,ComponentPad*
%ADD11O,0.900000X1.700000*%
G04 #@! TD*
G04 #@! TA.AperFunction,ComponentPad*
%ADD12O,0.900000X2.400000*%
G04 #@! TD*
G04 #@! TA.AperFunction,SMDPad,CuDef*
%ADD13R,1.000000X1.700000*%
G04 #@! TD*
G04 #@! TA.AperFunction,ComponentPad*
%ADD14RoundRect,0.250000X-0.550000X-0.550000X0.550000X-0.550000X0.550000X0.550000X-0.550000X0.550000X0*%
G04 #@! TD*
G04 #@! TA.AperFunction,ComponentPad*
%ADD15C,1.600000*%
G04 #@! TD*
G04 #@! TA.AperFunction,ComponentPad*
%ADD16C,2.000000*%
G04 #@! TD*
G04 #@! TA.AperFunction,ComponentPad*
%ADD17R,2.500000X3.200000*%
G04 #@! TD*
G04 #@! TA.AperFunction,ViaPad*
%ADD18C,0.800000*%
G04 #@! TD*
G04 #@! TA.AperFunction,Conductor*
%ADD19C,0.250000*%
G04 #@! TD*
G04 #@! TA.AperFunction,Conductor*
%ADD20C,0.381000*%
G04 #@! TD*
G04 APERTURE END LIST*
D10*
X257375000Y-25456250D03*
X258225000Y-25456250D03*
X259075000Y-25456250D03*
X259925000Y-25456250D03*
X260775000Y-25456250D03*
X261625000Y-25456250D03*
X262475000Y-25456250D03*
X263325000Y-25456250D03*
X263330000Y-24131250D03*
X262480000Y-24131250D03*
X261630000Y-24131250D03*
X260780000Y-24131250D03*
X259930000Y-24131250D03*
X259080000Y-24131250D03*
X258230000Y-24131250D03*
X257375000Y-24131250D03*
D11*
X264675000Y-21096250D03*
D12*
X264675000Y-24476250D03*
X256025000Y-24476250D03*
D11*
X256025000Y-21096250D03*
D13*
X236166250Y-20593750D03*
X236166250Y-26893750D03*
X232366250Y-26893750D03*
X232366250Y-20593750D03*
D14*
X231026250Y-30553750D03*
D15*
X234626250Y-30553750D03*
X238226250Y-30553750D03*
D16*
X270946250Y-34513750D03*
X273446250Y-34513750D03*
X275946250Y-34513750D03*
D17*
X267846250Y-27013750D03*
X279046250Y-27013750D03*
D16*
X270946250Y-20013750D03*
X275946250Y-20013750D03*
D18*
X234525588Y-38663088D03*
X271976250Y-35883750D03*
X234010130Y-39544852D03*
X258151250Y-41888750D03*
X258601250Y-48868750D03*
X279691250Y-56828750D03*
X263607230Y-56728750D03*
X264847341Y-48988750D03*
X265571841Y-51144250D03*
X235171250Y-37917761D03*
X249113187Y-37932203D03*
X256181250Y-33718750D03*
X254611250Y-34358750D03*
X262202333Y-26339628D03*
X269501250Y-31488750D03*
X263856443Y-28275625D03*
X265644248Y-31468750D03*
X262036591Y-31490544D03*
X164231250Y-56798750D03*
X257558462Y-52869157D03*
X258122577Y-53694250D03*
X183251250Y-56748750D03*
X202221250Y-56718750D03*
X258638146Y-54579379D03*
X259279352Y-55346099D03*
X221201250Y-56498750D03*
X259861250Y-56158750D03*
X240981250Y-56808750D03*
X260661250Y-56848750D03*
X247731250Y-56883250D03*
X133855000Y-72487500D03*
X266201250Y-72478750D03*
X261308951Y-45446452D03*
X262921553Y-33730587D03*
X185855000Y-89687500D03*
X207455000Y-89687500D03*
X228655000Y-89687500D03*
X47855000Y-89687500D03*
X266655000Y-89687500D03*
X260655000Y-89687500D03*
X69055000Y-89687500D03*
X26255000Y-89687500D03*
X265581250Y-73438750D03*
X134180000Y-73587500D03*
X195331250Y-32668750D03*
X42941250Y-32768750D03*
X157331250Y-32668750D03*
X62031250Y-32768750D03*
X138231250Y-32768750D03*
X176331250Y-32668750D03*
X100131250Y-32768750D03*
X81131250Y-32768750D03*
X119231250Y-32768750D03*
X23971250Y-32768750D03*
X214431250Y-32668750D03*
X266831250Y-32568750D03*
X254621250Y-32558750D03*
X104631250Y-51868750D03*
X143031250Y-51868750D03*
X161831250Y-51868750D03*
X47831250Y-51868750D03*
X66631250Y-51868750D03*
X85831250Y-51868750D03*
X257021250Y-51788750D03*
X26255000Y-51868750D03*
X266631250Y-51868750D03*
X219031250Y-51868750D03*
X199831250Y-51868750D03*
X123831250Y-51868750D03*
X181031250Y-51868750D03*
X266655000Y-70887500D03*
X133455000Y-70887500D03*
X228655000Y-70887500D03*
X209455000Y-70887500D03*
X114255000Y-70887500D03*
X57455000Y-70887500D03*
X260655000Y-70887500D03*
X171455000Y-70887500D03*
X76255000Y-70887500D03*
X31055000Y-70887500D03*
X190655000Y-70887500D03*
X152655000Y-70887500D03*
X95455000Y-70887500D03*
X253721250Y-33478750D03*
X38351250Y-37438750D03*
X59381250Y-37658750D03*
X252996750Y-34347237D03*
X78441250Y-37688750D03*
X252272250Y-35088056D03*
X97421250Y-37728750D03*
X251351250Y-35740278D03*
X116571250Y-37658750D03*
X250565379Y-36357864D03*
X249821250Y-37173250D03*
X135521250Y-37598750D03*
D19*
X232366250Y-20593750D02*
X232366250Y-26893750D01*
X236166250Y-26893750D02*
X236166250Y-20593750D01*
X234626250Y-21703750D02*
X234626250Y-30553750D01*
X233585000Y-20662500D02*
X234626250Y-21703750D01*
X232256250Y-20662500D02*
X233585000Y-20662500D01*
X238226250Y-28953750D02*
X236166250Y-26893750D01*
X238226250Y-30553750D02*
X238226250Y-28953750D01*
X271976250Y-36463750D02*
X271976250Y-35883750D01*
X271760770Y-36679230D02*
X271976250Y-36463750D01*
X261080770Y-36679230D02*
X271760770Y-36679230D01*
X260859431Y-36900569D02*
X261080770Y-36679230D01*
X260859431Y-44400569D02*
X260859431Y-36900569D01*
X256690770Y-44242552D02*
X257407363Y-44959145D01*
X256690770Y-36278270D02*
X256690770Y-44242552D01*
X256011730Y-35599230D02*
X256690770Y-36278270D01*
X257407363Y-44959145D02*
X260300855Y-44959145D01*
X260300855Y-44959145D02*
X260859431Y-44400569D01*
X250532630Y-38663088D02*
X253596488Y-35599230D01*
X234525588Y-38663088D02*
X250532630Y-38663088D01*
X253596488Y-35599230D02*
X256011730Y-35599230D01*
X264633087Y-33730587D02*
X262921553Y-33730587D01*
X264786250Y-35003750D02*
X264786250Y-33883750D01*
X265666250Y-35883750D02*
X264786250Y-35003750D01*
X264786250Y-33883750D02*
X264633087Y-33730587D01*
X271976250Y-35883750D02*
X265666250Y-35883750D01*
X261271164Y-45408665D02*
X261308951Y-45446452D01*
X257221165Y-45408665D02*
X261271164Y-45408665D01*
X256241250Y-36498750D02*
X256241250Y-44428750D01*
X250452686Y-39528750D02*
X253932686Y-36048750D01*
X255791250Y-36048750D02*
X256241250Y-36498750D01*
X256241250Y-44428750D02*
X257221165Y-45408665D01*
X234026232Y-39528750D02*
X250452686Y-39528750D01*
X253932686Y-36048750D02*
X255791250Y-36048750D01*
X234010130Y-39544852D02*
X234026232Y-39528750D01*
X254201250Y-34358750D02*
X254611250Y-34358750D01*
X249127629Y-37917761D02*
X250642239Y-37917761D01*
X249113187Y-37932203D02*
X249127629Y-37917761D01*
X250642239Y-37917761D02*
X254201250Y-34358750D01*
X249067101Y-37978289D02*
X235231778Y-37978289D01*
X235231778Y-37978289D02*
X235171250Y-37917761D01*
X249113187Y-37932203D02*
X249067101Y-37978289D01*
X265041250Y-45478750D02*
X265571841Y-46009341D01*
X261341249Y-45478750D02*
X265041250Y-45478750D01*
X265571841Y-46009341D02*
X265571841Y-51144250D01*
X261308951Y-45446452D02*
X261341249Y-45478750D01*
X261308951Y-45446452D02*
X261226653Y-45528750D01*
X273531250Y-34228750D02*
X273491250Y-34188750D01*
X261621250Y-37128750D02*
X273011250Y-37128750D01*
X273011250Y-37128750D02*
X273531250Y-36608750D01*
X261308951Y-37441049D02*
X261621250Y-37128750D01*
X273531250Y-36608750D02*
X273531250Y-34228750D01*
X261308951Y-45446452D02*
X261308951Y-37441049D01*
X258151250Y-34748750D02*
X257121250Y-33718750D01*
X257121250Y-33718750D02*
X256181250Y-33718750D01*
X258151250Y-41888750D02*
X258151250Y-34748750D01*
X258601250Y-48868750D02*
X258721250Y-48988750D01*
X258721250Y-48988750D02*
X264847341Y-48988750D01*
X263707230Y-56828750D02*
X279691250Y-56828750D01*
X263607230Y-56728750D02*
X263707230Y-56828750D01*
X249801239Y-37193261D02*
X135926739Y-37193261D01*
X249821250Y-37173250D02*
X249801239Y-37193261D01*
X135926739Y-37193261D02*
X135521250Y-37598750D01*
X116571250Y-36708750D02*
X116571250Y-37658750D01*
X116831250Y-36448750D02*
X116571250Y-36708750D01*
X250565379Y-36357864D02*
X250474493Y-36448750D01*
X250474493Y-36448750D02*
X116831250Y-36448750D01*
X97421250Y-35828750D02*
X97421250Y-37728750D01*
X97621250Y-35628750D02*
X97421250Y-35828750D01*
X251351250Y-35740278D02*
X251239722Y-35628750D01*
X251239722Y-35628750D02*
X97621250Y-35628750D01*
X78441250Y-35228750D02*
X78441250Y-37688750D01*
X78654222Y-35015778D02*
X78441250Y-35228750D01*
X252199972Y-35015778D02*
X78654222Y-35015778D01*
X252272250Y-35088056D02*
X252199972Y-35015778D01*
X59381250Y-34668750D02*
X59381250Y-37658750D01*
X252940791Y-34291278D02*
X59758722Y-34291278D01*
X59758722Y-34291278D02*
X59381250Y-34668750D01*
X252996750Y-34347237D02*
X252940791Y-34291278D01*
X253701250Y-33498750D02*
X38601250Y-33498750D01*
X38601250Y-33498750D02*
X38351250Y-33748750D01*
X253721250Y-33478750D02*
X253701250Y-33498750D01*
X38351250Y-33748750D02*
X38351250Y-37438750D01*
X260081250Y-24718750D02*
X260471250Y-24718750D01*
X259930000Y-24567500D02*
X260081250Y-24718750D01*
X260471250Y-24718750D02*
X260775000Y-25022500D01*
X259930000Y-24131250D02*
X259930000Y-24567500D01*
X260775000Y-25022500D02*
X260775000Y-25456250D01*
X261630000Y-23671631D02*
X261630000Y-24131250D01*
X265449520Y-25550480D02*
X265449520Y-22937020D01*
X264660372Y-26339628D02*
X265449520Y-25550480D01*
X262202333Y-26339628D02*
X264660372Y-26339628D01*
X262542881Y-22758750D02*
X261630000Y-23671631D01*
X265271250Y-22758750D02*
X262542881Y-22758750D01*
X265449520Y-22937020D02*
X265271250Y-22758750D01*
X273491250Y-31898750D02*
X273491250Y-34188750D01*
X269501250Y-31488750D02*
X273081250Y-31488750D01*
X273081250Y-31488750D02*
X273491250Y-31898750D01*
X269481250Y-31468750D02*
X269501250Y-31488750D01*
X265644248Y-31468750D02*
X269481250Y-31468750D01*
X265644248Y-28501748D02*
X265644248Y-31468750D01*
X265401250Y-28258750D02*
X265644248Y-28501748D01*
X265361250Y-28258750D02*
X265401250Y-28258750D01*
X263856443Y-28275625D02*
X265344375Y-28275625D01*
X265344375Y-28275625D02*
X265361250Y-28258750D01*
X262058385Y-31468750D02*
X265644248Y-31468750D01*
X262036591Y-31490544D02*
X262058385Y-31468750D01*
X164231250Y-53308750D02*
X164670843Y-52869157D01*
X164670843Y-52869157D02*
X257558462Y-52869157D01*
X164231250Y-56798750D02*
X164231250Y-53308750D01*
X183545750Y-53694250D02*
X258122577Y-53694250D01*
X183251250Y-53988750D02*
X183545750Y-53694250D01*
X183251250Y-56748750D02*
X183251250Y-53988750D01*
X183251250Y-56748750D02*
X183051250Y-56548750D01*
X258477517Y-54418750D02*
X258638146Y-54579379D01*
X202221250Y-54958750D02*
X202761250Y-54418750D01*
X202761250Y-54418750D02*
X258477517Y-54418750D01*
X202221250Y-56718750D02*
X202221250Y-54958750D01*
X222333901Y-55346099D02*
X259279352Y-55346099D01*
X222311250Y-55368750D02*
X222333901Y-55346099D01*
X221201250Y-56498750D02*
X221201250Y-56478750D01*
X221201250Y-56478750D02*
X222311250Y-55368750D01*
X241631250Y-56158750D02*
X259861250Y-56158750D01*
X240981250Y-56808750D02*
X241631250Y-56158750D01*
X259546636Y-56868750D02*
X247745750Y-56868750D01*
X259561147Y-56883261D02*
X259546636Y-56868750D01*
X260626739Y-56883261D02*
X259561147Y-56883261D01*
X260661250Y-56848750D02*
X260626739Y-56883261D01*
X247745750Y-56868750D02*
X247731250Y-56883250D01*
D20*
X266192500Y-72487500D02*
X133855000Y-72487500D01*
X266201250Y-72478750D02*
X266192500Y-72487500D01*
D19*
X265581250Y-73438750D02*
X265432500Y-73587500D01*
X265432500Y-73587500D02*
X134180000Y-73587500D01*
X228655000Y-89687500D02*
X207455000Y-89687500D01*
X266655000Y-89687500D02*
X260655000Y-89687500D01*
X260655000Y-89687500D02*
X228655000Y-89687500D01*
X47855000Y-89687500D02*
X26255000Y-89687500D01*
X207455000Y-89687500D02*
X185855000Y-89687500D01*
X69055000Y-89687500D02*
X47855000Y-89687500D01*
X119231250Y-32768750D02*
X100131250Y-32768750D01*
X81131250Y-32768750D02*
X62031250Y-32768750D01*
X195331250Y-32668750D02*
X176331250Y-32668750D01*
X138231250Y-32668750D02*
X138231250Y-32768750D01*
X214431250Y-32668750D02*
X195331250Y-32668750D01*
X62031250Y-32768750D02*
X42941250Y-32768750D01*
X254621250Y-32558750D02*
X254631250Y-32568750D01*
X254631250Y-32568750D02*
X266831250Y-32568750D01*
X138231250Y-32768750D02*
X119231250Y-32768750D01*
X42941250Y-32768750D02*
X23971250Y-32768750D01*
X254621250Y-32558750D02*
X254511250Y-32668750D01*
X100131250Y-32768750D02*
X81131250Y-32768750D01*
X254511250Y-32668750D02*
X214431250Y-32668750D01*
X157331250Y-32668750D02*
X138231250Y-32668750D01*
X176331250Y-32668750D02*
X157331250Y-32668750D01*
X104631250Y-51868750D02*
X85831250Y-51868750D01*
X266631250Y-51868750D02*
X255831250Y-51868750D01*
X219031250Y-51868750D02*
X199831250Y-51868750D01*
X123831250Y-51868750D02*
X104631250Y-51868750D01*
X255831250Y-51868750D02*
X219031250Y-51868750D01*
X199831250Y-51868750D02*
X181031250Y-51868750D01*
X181031250Y-51868750D02*
X161831250Y-51868750D01*
X161831250Y-51868750D02*
X143031250Y-51868750D01*
X47831250Y-51868750D02*
X26255000Y-51868750D01*
X85831250Y-51868750D02*
X66631250Y-51868750D01*
X66631250Y-51868750D02*
X47831250Y-51868750D01*
X143031250Y-51868750D02*
X123831250Y-51868750D01*
X228655000Y-70887500D02*
X209455000Y-70887500D01*
X266655000Y-70887500D02*
X260655000Y-70887500D01*
X76255000Y-70887500D02*
X95455000Y-70887500D01*
X171455000Y-70887500D02*
X190655000Y-70887500D01*
X31055000Y-70887500D02*
X57455000Y-70887500D01*
X152655000Y-70887500D02*
X171455000Y-70887500D01*
X209455000Y-70887500D02*
X190655000Y-70887500D01*
X114255000Y-70887500D02*
X133455000Y-70887500D01*
X133455000Y-70887500D02*
X152655000Y-70887500D01*
X260655000Y-70887500D02*
X228655000Y-70887500D01*
X95455000Y-70887500D02*
X114255000Y-70887500D01*
X57455000Y-70887500D02*
X76255000Y-70887500D01*
M02*
