G04 #@! TF.GenerationSoftware,KiCad,Pcbnew,(6.0.1)*
G04 #@! TF.CreationDate,2022-02-08T20:19:43+09:00*
G04 #@! TF.ProjectId,PCB_design_try,5043425f-6465-4736-9967-6e5f7472792e,rev?*
G04 #@! TF.SameCoordinates,Original*
G04 #@! TF.FileFunction,Soldermask,Bot*
G04 #@! TF.FilePolarity,Negative*
%FSLAX46Y46*%
G04 Gerber Fmt 4.6, Leading zero omitted, Abs format (unit mm)*
G04 Created by KiCad (PCBNEW (6.0.1)) date 2022-02-08 20:19:43*
%MOMM*%
%LPD*%
G01*
G04 APERTURE LIST*
G04 Aperture macros list*
%AMRoundRect*
0 Rectangle with rounded corners*
0 $1 Rounding radius*
0 $2 $3 $4 $5 $6 $7 $8 $9 X,Y pos of 4 corners*
0 Add a 4 corners polygon primitive as box body*
4,1,4,$2,$3,$4,$5,$6,$7,$8,$9,$2,$3,0*
0 Add four circle primitives for the rounded corners*
1,1,$1+$1,$2,$3*
1,1,$1+$1,$4,$5*
1,1,$1+$1,$6,$7*
1,1,$1+$1,$8,$9*
0 Add four rect primitives between the rounded corners*
20,1,$1+$1,$2,$3,$4,$5,0*
20,1,$1+$1,$4,$5,$6,$7,0*
20,1,$1+$1,$6,$7,$8,$9,0*
20,1,$1+$1,$8,$9,$2,$3,0*%
G04 Aperture macros list end*
%ADD10C,3.000000*%
%ADD11C,3.987800*%
%ADD12C,1.750000*%
%ADD13R,2.550000X2.500000*%
%ADD14C,3.048000*%
%ADD15R,0.400000X1.900000*%
%ADD16C,0.650000*%
%ADD17O,0.900000X1.700000*%
%ADD18O,0.900000X2.400000*%
%ADD19RoundRect,0.250000X-0.550000X-0.550000X0.550000X-0.550000X0.550000X0.550000X-0.550000X0.550000X0*%
%ADD20C,1.600000*%
%ADD21C,2.000000*%
%ADD22R,2.500000X3.200000*%
%ADD23RoundRect,0.050000X0.350000X-0.500000X0.350000X0.500000X-0.350000X0.500000X-0.350000X-0.500000X0*%
%ADD24RoundRect,0.050000X0.350000X-0.300000X0.350000X0.300000X-0.350000X0.300000X-0.350000X-0.300000X0*%
%ADD25R,1.200000X0.900000*%
%ADD26RoundRect,0.237500X-0.237500X0.250000X-0.237500X-0.250000X0.237500X-0.250000X0.237500X0.250000X0*%
%ADD27RoundRect,0.237500X-0.237500X0.287500X-0.237500X-0.287500X0.237500X-0.287500X0.237500X0.287500X0*%
%ADD28RoundRect,0.237500X0.237500X-0.250000X0.237500X0.250000X-0.237500X0.250000X-0.237500X-0.250000X0*%
%ADD29RoundRect,0.237500X-0.237500X0.300000X-0.237500X-0.300000X0.237500X-0.300000X0.237500X0.300000X0*%
%ADD30RoundRect,0.062500X0.375000X0.062500X-0.375000X0.062500X-0.375000X-0.062500X0.375000X-0.062500X0*%
%ADD31RoundRect,0.062500X0.062500X0.375000X-0.062500X0.375000X-0.062500X-0.375000X0.062500X-0.375000X0*%
%ADD32R,3.100000X3.100000*%
%ADD33RoundRect,0.237500X0.237500X-0.300000X0.237500X0.300000X-0.237500X0.300000X-0.237500X-0.300000X0*%
%ADD34R,1.300000X3.400000*%
%ADD35RoundRect,0.237500X-0.300000X-0.237500X0.300000X-0.237500X0.300000X0.237500X-0.300000X0.237500X0*%
%ADD36RoundRect,0.237500X-0.250000X-0.237500X0.250000X-0.237500X0.250000X0.237500X-0.250000X0.237500X0*%
G04 APERTURE END LIST*
D10*
X112215000Y-78228750D03*
D11*
X109675000Y-83308750D03*
D10*
X105865000Y-80768750D03*
D12*
X104595000Y-83308750D03*
X114755000Y-83308750D03*
D13*
X102590000Y-80768750D03*
X115517000Y-78228750D03*
D14*
X121613000Y-76323750D03*
X97737000Y-76323750D03*
D11*
X121613000Y-91563750D03*
X97737000Y-91563750D03*
D15*
X267483750Y-34473750D03*
X266283750Y-34473750D03*
X268683750Y-34473750D03*
D16*
X257375000Y-25456250D03*
X258225000Y-25456250D03*
X259075000Y-25456250D03*
X259925000Y-25456250D03*
X260775000Y-25456250D03*
X261625000Y-25456250D03*
X262475000Y-25456250D03*
X263325000Y-25456250D03*
X263330000Y-24131250D03*
X262480000Y-24131250D03*
X261630000Y-24131250D03*
X260780000Y-24131250D03*
X259930000Y-24131250D03*
X259080000Y-24131250D03*
X258230000Y-24131250D03*
X257375000Y-24131250D03*
D17*
X264675000Y-21096250D03*
D18*
X264675000Y-24476250D03*
X256025000Y-24476250D03*
D17*
X256025000Y-21096250D03*
D19*
X231026250Y-30553750D03*
D20*
X234626250Y-30553750D03*
X238226250Y-30553750D03*
D10*
X159840000Y-78228750D03*
D11*
X157300000Y-83308750D03*
D10*
X153490000Y-80768750D03*
D12*
X152220000Y-83308750D03*
X162380000Y-83308750D03*
D13*
X150215000Y-80768750D03*
X163142000Y-78228750D03*
D14*
X169238000Y-76323750D03*
X145362000Y-76323750D03*
D11*
X169238000Y-91563750D03*
X145362000Y-91563750D03*
D10*
X147933750Y-21078750D03*
D11*
X145393750Y-26158750D03*
D10*
X141583750Y-23618750D03*
D12*
X140313750Y-26158750D03*
X150473750Y-26158750D03*
D13*
X138308750Y-23618750D03*
X151235750Y-21078750D03*
D21*
X270946250Y-34513750D03*
X273446250Y-34513750D03*
X275946250Y-34513750D03*
D22*
X267846250Y-27013750D03*
X279046250Y-27013750D03*
D21*
X270946250Y-20013750D03*
X275946250Y-20013750D03*
D10*
X257471250Y-78263750D03*
D11*
X254931250Y-83343750D03*
D10*
X251121250Y-80803750D03*
D12*
X249851250Y-83343750D03*
X260011250Y-83343750D03*
D13*
X247846250Y-80803750D03*
X260773250Y-78263750D03*
D10*
X257471250Y-59178750D03*
D11*
X254931250Y-64258750D03*
D10*
X251121250Y-61718750D03*
D12*
X249851250Y-64258750D03*
X260011250Y-64258750D03*
D13*
X247846250Y-61718750D03*
X260773250Y-59178750D03*
X256010750Y-40128750D03*
X243083750Y-42668750D03*
D12*
X255248750Y-45208750D03*
X245088750Y-45208750D03*
D10*
X246358750Y-42668750D03*
D11*
X250168750Y-45208750D03*
D10*
X252708750Y-40128750D03*
X250327500Y-21078750D03*
D11*
X247787500Y-26158750D03*
D10*
X243977500Y-23618750D03*
D12*
X242707500Y-26158750D03*
X252867500Y-26158750D03*
D13*
X240702500Y-23618750D03*
X253629500Y-21078750D03*
D10*
X228896250Y-40128750D03*
D11*
X226356250Y-45208750D03*
D10*
X222546250Y-42668750D03*
D12*
X221276250Y-45208750D03*
X231436250Y-45208750D03*
D13*
X219271250Y-42668750D03*
X232198250Y-40128750D03*
D10*
X216990000Y-78228750D03*
D11*
X214450000Y-83308750D03*
D10*
X210640000Y-80768750D03*
D12*
X209370000Y-83308750D03*
X219530000Y-83308750D03*
D13*
X207365000Y-80768750D03*
X220292000Y-78228750D03*
D10*
X190796250Y-40128750D03*
D11*
X188256250Y-45208750D03*
D10*
X184446250Y-42668750D03*
D12*
X183176250Y-45208750D03*
X193336250Y-45208750D03*
D13*
X181171250Y-42668750D03*
X194098250Y-40128750D03*
D10*
X166983750Y-21078750D03*
D11*
X164443750Y-26158750D03*
D10*
X160633750Y-23618750D03*
D12*
X159363750Y-26158750D03*
X169523750Y-26158750D03*
D13*
X157358750Y-23618750D03*
X170285750Y-21078750D03*
D10*
X109833750Y-21078750D03*
D11*
X107293750Y-26158750D03*
D10*
X103483750Y-23618750D03*
D12*
X102213750Y-26158750D03*
X112373750Y-26158750D03*
D13*
X100208750Y-23618750D03*
X113135750Y-21078750D03*
D10*
X90783750Y-21078750D03*
D11*
X88243750Y-26158750D03*
D10*
X84433750Y-23618750D03*
D12*
X83163750Y-26158750D03*
X93323750Y-26158750D03*
D13*
X81158750Y-23618750D03*
X94085750Y-21078750D03*
D10*
X78740000Y-78263750D03*
D11*
X76200000Y-83343750D03*
D10*
X72390000Y-80803750D03*
D12*
X71120000Y-83343750D03*
X81280000Y-83343750D03*
D13*
X69115000Y-80803750D03*
X82042000Y-78263750D03*
D10*
X52546250Y-21113750D03*
D11*
X50006250Y-26193750D03*
D10*
X46196250Y-23653750D03*
D12*
X44926250Y-26193750D03*
X55086250Y-26193750D03*
D13*
X42921250Y-23653750D03*
X55848250Y-21113750D03*
D23*
X259350000Y-28837500D03*
D24*
X259350000Y-27137500D03*
X261350000Y-27137500D03*
X261350000Y-29037500D03*
D13*
X39179500Y-40163750D03*
X26252500Y-42703750D03*
D10*
X35877500Y-40163750D03*
D12*
X38417500Y-45243750D03*
D11*
X33337500Y-45243750D03*
D10*
X29527500Y-42703750D03*
D12*
X28257500Y-45243750D03*
D13*
X43942000Y-59213750D03*
X31015000Y-61753750D03*
D12*
X43180000Y-64293750D03*
X33020000Y-64293750D03*
D11*
X38100000Y-64293750D03*
D10*
X40640000Y-59213750D03*
X34290000Y-61753750D03*
D13*
X184573250Y-59178750D03*
X171646250Y-61718750D03*
D12*
X183811250Y-64258750D03*
D11*
X178731250Y-64258750D03*
D10*
X181271250Y-59178750D03*
X174921250Y-61718750D03*
D12*
X173651250Y-64258750D03*
D13*
X127423250Y-59178750D03*
X114496250Y-61718750D03*
D10*
X117771250Y-61718750D03*
D12*
X126661250Y-64258750D03*
D10*
X124121250Y-59178750D03*
D11*
X121581250Y-64258750D03*
D12*
X116501250Y-64258750D03*
D13*
X279823250Y-40163750D03*
X266896250Y-42703750D03*
D12*
X279061250Y-45243750D03*
D11*
X273981250Y-45243750D03*
D12*
X268901250Y-45243750D03*
D10*
X276521250Y-40163750D03*
X270171250Y-42703750D03*
D13*
X60610750Y-78263750D03*
X47683750Y-80803750D03*
D10*
X50958750Y-80803750D03*
D11*
X54768750Y-83343750D03*
D10*
X57308750Y-78263750D03*
D12*
X59848750Y-83343750D03*
X49688750Y-83343750D03*
D13*
X39179500Y-78263750D03*
X26252500Y-80803750D03*
D12*
X28257500Y-83343750D03*
D11*
X33337500Y-83343750D03*
D12*
X38417500Y-83343750D03*
D10*
X29527500Y-80803750D03*
X35877500Y-78263750D03*
D13*
X36798250Y-21113750D03*
X23871250Y-23653750D03*
D12*
X36036250Y-26193750D03*
D11*
X30956250Y-26193750D03*
D12*
X25876250Y-26193750D03*
D10*
X33496250Y-21113750D03*
X27146250Y-23653750D03*
D13*
X198860750Y-78228750D03*
X185933750Y-80768750D03*
D10*
X195558750Y-78228750D03*
D11*
X193018750Y-83308750D03*
D10*
X189208750Y-80768750D03*
D12*
X198098750Y-83308750D03*
X187938750Y-83308750D03*
D13*
X279823250Y-59178750D03*
X266896250Y-61718750D03*
D10*
X270171250Y-61718750D03*
D11*
X273981250Y-64258750D03*
D12*
X268901250Y-64258750D03*
X279061250Y-64258750D03*
D10*
X276521250Y-59178750D03*
D13*
X279823250Y-21113750D03*
X266896250Y-23653750D03*
D12*
X268901250Y-26193750D03*
X279061250Y-26193750D03*
D11*
X273981250Y-26193750D03*
D10*
X276521250Y-21113750D03*
X270171250Y-23653750D03*
D13*
X70135750Y-59213750D03*
X57208750Y-61753750D03*
D10*
X60483750Y-61753750D03*
X66833750Y-59213750D03*
D12*
X59213750Y-64293750D03*
D11*
X64293750Y-64293750D03*
D12*
X69373750Y-64293750D03*
D13*
X89185750Y-59213750D03*
X76258750Y-61753750D03*
D10*
X85883750Y-59213750D03*
D11*
X83343750Y-64293750D03*
D12*
X78263750Y-64293750D03*
X88423750Y-64293750D03*
D10*
X79533750Y-61753750D03*
D13*
X241723250Y-78228750D03*
X228796250Y-80768750D03*
D12*
X230801250Y-83308750D03*
D10*
X232071250Y-80768750D03*
D12*
X240961250Y-83308750D03*
D11*
X235881250Y-83308750D03*
D10*
X238421250Y-78228750D03*
D13*
X132185750Y-21078750D03*
X119258750Y-23618750D03*
D10*
X128883750Y-21078750D03*
D12*
X121263750Y-26158750D03*
X131423750Y-26158750D03*
D11*
X126343750Y-26158750D03*
D10*
X122533750Y-23618750D03*
D13*
X98848250Y-40128750D03*
X85921250Y-42668750D03*
D10*
X89196250Y-42668750D03*
D12*
X98086250Y-45208750D03*
D11*
X93006250Y-45208750D03*
D10*
X95546250Y-40128750D03*
D12*
X87926250Y-45208750D03*
D13*
X79660750Y-40163750D03*
X66733750Y-42703750D03*
D12*
X68738750Y-45243750D03*
D10*
X70008750Y-42703750D03*
D12*
X78898750Y-45243750D03*
D11*
X73818750Y-45243750D03*
D10*
X76358750Y-40163750D03*
D13*
X213148250Y-40128750D03*
X200221250Y-42668750D03*
D10*
X203496250Y-42668750D03*
X209846250Y-40128750D03*
D12*
X202226250Y-45208750D03*
D11*
X207306250Y-45208750D03*
D12*
X212386250Y-45208750D03*
D13*
X222673250Y-59178750D03*
X209746250Y-61718750D03*
D10*
X213021250Y-61718750D03*
D12*
X211751250Y-64258750D03*
D10*
X219371250Y-59178750D03*
D12*
X221911250Y-64258750D03*
D11*
X216831250Y-64258750D03*
D13*
X146473250Y-59178750D03*
X133546250Y-61718750D03*
D12*
X145711250Y-64258750D03*
D11*
X140631250Y-64258750D03*
D10*
X136821250Y-61718750D03*
D12*
X135551250Y-64258750D03*
D10*
X143171250Y-59178750D03*
D13*
X189335750Y-21078750D03*
X176408750Y-23618750D03*
D12*
X188573750Y-26158750D03*
X178413750Y-26158750D03*
D11*
X183493750Y-26158750D03*
D10*
X179683750Y-23618750D03*
X186033750Y-21078750D03*
D13*
X208385750Y-21078750D03*
X195458750Y-23618750D03*
D12*
X207623750Y-26158750D03*
D10*
X205083750Y-21078750D03*
D11*
X202543750Y-26158750D03*
D12*
X197463750Y-26158750D03*
D10*
X198733750Y-23618750D03*
X238421250Y-59178750D03*
D12*
X240961250Y-64258750D03*
D11*
X235881250Y-64258750D03*
D12*
X230801250Y-64258750D03*
D10*
X232071250Y-61718750D03*
D13*
X228796250Y-61718750D03*
X241723250Y-59178750D03*
D11*
X273981250Y-83343750D03*
D12*
X279061250Y-83343750D03*
D10*
X276521250Y-78263750D03*
X270171250Y-80803750D03*
D12*
X268901250Y-83343750D03*
D13*
X266896250Y-80803750D03*
X279823250Y-78263750D03*
X60610750Y-40163750D03*
X47683750Y-42703750D03*
D10*
X50958750Y-42703750D03*
D12*
X49688750Y-45243750D03*
X59848750Y-45243750D03*
D10*
X57308750Y-40163750D03*
D11*
X54768750Y-45243750D03*
D13*
X227435750Y-21078750D03*
X214508750Y-23618750D03*
D12*
X226673750Y-26158750D03*
D10*
X217783750Y-23618750D03*
X224133750Y-21078750D03*
D11*
X221593750Y-26158750D03*
D12*
X216513750Y-26158750D03*
D13*
X155998250Y-40128750D03*
X143071250Y-42668750D03*
D12*
X145076250Y-45208750D03*
D10*
X152696250Y-40128750D03*
D12*
X155236250Y-45208750D03*
D11*
X150156250Y-45208750D03*
D10*
X146346250Y-42668750D03*
D13*
X136948250Y-40128750D03*
X124021250Y-42668750D03*
D10*
X127296250Y-42668750D03*
D12*
X126026250Y-45208750D03*
D11*
X131106250Y-45208750D03*
D12*
X136186250Y-45208750D03*
D10*
X133646250Y-40128750D03*
D13*
X203623250Y-59178750D03*
X190696250Y-61718750D03*
D11*
X197781250Y-64258750D03*
D12*
X192701250Y-64258750D03*
X202861250Y-64258750D03*
D10*
X193971250Y-61718750D03*
X200321250Y-59178750D03*
D13*
X175048250Y-40128750D03*
X162121250Y-42668750D03*
D12*
X164126250Y-45208750D03*
D11*
X169206250Y-45208750D03*
D10*
X171746250Y-40128750D03*
X165396250Y-42668750D03*
D12*
X174286250Y-45208750D03*
D13*
X74898250Y-21113750D03*
X61971250Y-23653750D03*
D12*
X74136250Y-26193750D03*
D10*
X65246250Y-23653750D03*
D11*
X69056250Y-26193750D03*
D10*
X71596250Y-21113750D03*
D12*
X63976250Y-26193750D03*
D13*
X108373250Y-59178750D03*
X95446250Y-61718750D03*
D10*
X105071250Y-59178750D03*
X98721250Y-61718750D03*
D12*
X107611250Y-64258750D03*
X97451250Y-64258750D03*
D11*
X102531250Y-64258750D03*
D13*
X117898250Y-40128750D03*
X104971250Y-42668750D03*
D10*
X108246250Y-42668750D03*
D11*
X112056250Y-45208750D03*
D12*
X117136250Y-45208750D03*
D10*
X114596250Y-40128750D03*
D12*
X106976250Y-45208750D03*
D13*
X165523250Y-59178750D03*
X152596250Y-61718750D03*
D11*
X159681250Y-64258750D03*
D10*
X155871250Y-61718750D03*
X162221250Y-59178750D03*
D12*
X154601250Y-64258750D03*
X164761250Y-64258750D03*
D25*
X180181250Y-88580000D03*
X180181250Y-85280000D03*
X31100000Y-69530000D03*
X31100000Y-66230000D03*
X26337500Y-85280000D03*
X26337500Y-88580000D03*
X266763500Y-69436250D03*
X266763500Y-66136250D03*
X123968750Y-47180000D03*
X123968750Y-50480000D03*
X228663500Y-66230000D03*
X228663500Y-69530000D03*
X214344250Y-28130000D03*
X214344250Y-31430000D03*
X176356250Y-28130000D03*
X176356250Y-31430000D03*
X228663500Y-85280000D03*
X228663500Y-88580000D03*
D26*
X263221250Y-27286250D03*
X263221250Y-29111250D03*
D25*
X84931250Y-85280000D03*
X84931250Y-88580000D03*
D26*
X261316250Y-44116250D03*
X261316250Y-42291250D03*
D25*
X209693750Y-66230000D03*
X209693750Y-69530000D03*
X66818750Y-50480000D03*
X66818750Y-47180000D03*
D26*
X259561250Y-32421250D03*
X259561250Y-30596250D03*
D25*
X47768750Y-85280000D03*
X47768750Y-88580000D03*
X95393750Y-66230000D03*
X95393750Y-69530000D03*
X260635750Y-88580000D03*
X260635750Y-85280000D03*
D27*
X264741250Y-27343750D03*
X264741250Y-29093750D03*
D25*
X69200000Y-88580000D03*
X69200000Y-85280000D03*
X157306250Y-28130000D03*
X157306250Y-31430000D03*
X171593750Y-66230000D03*
X171593750Y-69530000D03*
D28*
X230936250Y-24786250D03*
X230936250Y-22961250D03*
D25*
X260635750Y-66198750D03*
X260635750Y-69498750D03*
X195406250Y-31430000D03*
X195406250Y-28130000D03*
X207312500Y-85280000D03*
X207312500Y-88580000D03*
X254631250Y-31368750D03*
X254631250Y-28068750D03*
X200168750Y-47180000D03*
X200168750Y-50480000D03*
D29*
X262926250Y-30641250D03*
X262926250Y-32366250D03*
D25*
X23956250Y-31430000D03*
X23956250Y-28130000D03*
X114443750Y-69530000D03*
X114443750Y-66230000D03*
X100156250Y-28130000D03*
X100156250Y-31430000D03*
X57293750Y-66230000D03*
X57293750Y-69530000D03*
X219138500Y-47180000D03*
X219138500Y-50480000D03*
X76343750Y-66230000D03*
X76343750Y-69530000D03*
X119206250Y-28130000D03*
X119206250Y-31430000D03*
X43006250Y-28130000D03*
X43006250Y-31430000D03*
X138256250Y-28130000D03*
X138256250Y-31430000D03*
X185881250Y-88580000D03*
X185881250Y-85280000D03*
X257051250Y-50408750D03*
X257051250Y-47108750D03*
D26*
X257681250Y-27226250D03*
X257681250Y-29051250D03*
D25*
X26337500Y-50480000D03*
X26337500Y-47180000D03*
X47768750Y-50480000D03*
X47768750Y-47180000D03*
D30*
X263948750Y-35828750D03*
X263948750Y-36328750D03*
X263948750Y-36828750D03*
X263948750Y-37328750D03*
X263948750Y-37828750D03*
X263948750Y-38328750D03*
X263948750Y-38828750D03*
X263948750Y-39328750D03*
D31*
X263261250Y-40016250D03*
X262761250Y-40016250D03*
X262261250Y-40016250D03*
X261761250Y-40016250D03*
X261261250Y-40016250D03*
X260761250Y-40016250D03*
X260261250Y-40016250D03*
X259761250Y-40016250D03*
D30*
X259073750Y-39328750D03*
X259073750Y-38828750D03*
X259073750Y-38328750D03*
X259073750Y-37828750D03*
X259073750Y-37328750D03*
X259073750Y-36828750D03*
X259073750Y-36328750D03*
X259073750Y-35828750D03*
D31*
X259761250Y-35141250D03*
X260261250Y-35141250D03*
X260761250Y-35141250D03*
X261261250Y-35141250D03*
X261761250Y-35141250D03*
X262261250Y-35141250D03*
X262761250Y-35141250D03*
X263261250Y-35141250D03*
D32*
X261511250Y-37578750D03*
D25*
X266843750Y-31430000D03*
X266843750Y-28130000D03*
X190643750Y-66230000D03*
X190643750Y-69530000D03*
X143018750Y-50480000D03*
X143018750Y-47180000D03*
D33*
X257666250Y-32416250D03*
X257666250Y-30691250D03*
D25*
X152543750Y-66230000D03*
X152543750Y-69530000D03*
D34*
X129105000Y-80487500D03*
X137805000Y-80487500D03*
D25*
X85868750Y-50480000D03*
X85868750Y-47180000D03*
X104918750Y-47180000D03*
X104918750Y-50480000D03*
D26*
X261081250Y-30566250D03*
X261081250Y-32391250D03*
D25*
X266731750Y-50480000D03*
X266731750Y-47180000D03*
X181118750Y-47180000D03*
X181118750Y-50480000D03*
D35*
X273758750Y-37113750D03*
X272033750Y-37113750D03*
D25*
X133493750Y-69530000D03*
X133493750Y-66230000D03*
X81106250Y-31430000D03*
X81106250Y-28130000D03*
D36*
X135750000Y-73783750D03*
X137575000Y-73783750D03*
D25*
X62056250Y-31430000D03*
X62056250Y-28130000D03*
X266731750Y-88580000D03*
X266731750Y-85280000D03*
X162068750Y-47180000D03*
X162068750Y-50480000D03*
M02*
