G04 #@! TF.GenerationSoftware,KiCad,Pcbnew,(6.0.1)*
G04 #@! TF.CreationDate,2022-02-08T20:19:43+09:00*
G04 #@! TF.ProjectId,PCB_design_try,5043425f-6465-4736-9967-6e5f7472792e,rev?*
G04 #@! TF.SameCoordinates,Original*
G04 #@! TF.FileFunction,Copper,L2,Bot*
G04 #@! TF.FilePolarity,Positive*
%FSLAX46Y46*%
G04 Gerber Fmt 4.6, Leading zero omitted, Abs format (unit mm)*
G04 Created by KiCad (PCBNEW (6.0.1)) date 2022-02-08 20:19:43*
%MOMM*%
%LPD*%
G01*
G04 APERTURE LIST*
G04 Aperture macros list*
%AMRoundRect*
0 Rectangle with rounded corners*
0 $1 Rounding radius*
0 $2 $3 $4 $5 $6 $7 $8 $9 X,Y pos of 4 corners*
0 Add a 4 corners polygon primitive as box body*
4,1,4,$2,$3,$4,$5,$6,$7,$8,$9,$2,$3,0*
0 Add four circle primitives for the rounded corners*
1,1,$1+$1,$2,$3*
1,1,$1+$1,$4,$5*
1,1,$1+$1,$6,$7*
1,1,$1+$1,$8,$9*
0 Add four rect primitives between the rounded corners*
20,1,$1+$1,$2,$3,$4,$5,0*
20,1,$1+$1,$4,$5,$6,$7,0*
20,1,$1+$1,$6,$7,$8,$9,0*
20,1,$1+$1,$8,$9,$2,$3,0*%
G04 Aperture macros list end*
G04 #@! TA.AperFunction,SMDPad,CuDef*
%ADD10R,2.550000X2.500000*%
G04 #@! TD*
G04 #@! TA.AperFunction,SMDPad,CuDef*
%ADD11R,0.400000X1.900000*%
G04 #@! TD*
G04 #@! TA.AperFunction,ComponentPad*
%ADD12C,0.650000*%
G04 #@! TD*
G04 #@! TA.AperFunction,ComponentPad*
%ADD13O,0.900000X1.700000*%
G04 #@! TD*
G04 #@! TA.AperFunction,ComponentPad*
%ADD14O,0.900000X2.400000*%
G04 #@! TD*
G04 #@! TA.AperFunction,ComponentPad*
%ADD15RoundRect,0.250000X-0.550000X-0.550000X0.550000X-0.550000X0.550000X0.550000X-0.550000X0.550000X0*%
G04 #@! TD*
G04 #@! TA.AperFunction,ComponentPad*
%ADD16C,1.600000*%
G04 #@! TD*
G04 #@! TA.AperFunction,ComponentPad*
%ADD17C,2.000000*%
G04 #@! TD*
G04 #@! TA.AperFunction,ComponentPad*
%ADD18R,2.500000X3.200000*%
G04 #@! TD*
G04 #@! TA.AperFunction,SMDPad,CuDef*
%ADD19R,0.700000X1.000000*%
G04 #@! TD*
G04 #@! TA.AperFunction,SMDPad,CuDef*
%ADD20R,0.700000X0.600000*%
G04 #@! TD*
G04 #@! TA.AperFunction,SMDPad,CuDef*
%ADD21R,1.200000X0.900000*%
G04 #@! TD*
G04 #@! TA.AperFunction,SMDPad,CuDef*
%ADD22RoundRect,0.237500X-0.237500X0.250000X-0.237500X-0.250000X0.237500X-0.250000X0.237500X0.250000X0*%
G04 #@! TD*
G04 #@! TA.AperFunction,SMDPad,CuDef*
%ADD23RoundRect,0.237500X-0.237500X0.287500X-0.237500X-0.287500X0.237500X-0.287500X0.237500X0.287500X0*%
G04 #@! TD*
G04 #@! TA.AperFunction,SMDPad,CuDef*
%ADD24RoundRect,0.237500X0.237500X-0.250000X0.237500X0.250000X-0.237500X0.250000X-0.237500X-0.250000X0*%
G04 #@! TD*
G04 #@! TA.AperFunction,SMDPad,CuDef*
%ADD25RoundRect,0.237500X-0.237500X0.300000X-0.237500X-0.300000X0.237500X-0.300000X0.237500X0.300000X0*%
G04 #@! TD*
G04 #@! TA.AperFunction,SMDPad,CuDef*
%ADD26RoundRect,0.062500X0.375000X0.062500X-0.375000X0.062500X-0.375000X-0.062500X0.375000X-0.062500X0*%
G04 #@! TD*
G04 #@! TA.AperFunction,SMDPad,CuDef*
%ADD27RoundRect,0.062500X0.062500X0.375000X-0.062500X0.375000X-0.062500X-0.375000X0.062500X-0.375000X0*%
G04 #@! TD*
G04 #@! TA.AperFunction,SMDPad,CuDef*
%ADD28R,3.100000X3.100000*%
G04 #@! TD*
G04 #@! TA.AperFunction,SMDPad,CuDef*
%ADD29RoundRect,0.237500X0.237500X-0.300000X0.237500X0.300000X-0.237500X0.300000X-0.237500X-0.300000X0*%
G04 #@! TD*
G04 #@! TA.AperFunction,SMDPad,CuDef*
%ADD30R,1.300000X3.400000*%
G04 #@! TD*
G04 #@! TA.AperFunction,SMDPad,CuDef*
%ADD31RoundRect,0.237500X-0.300000X-0.237500X0.300000X-0.237500X0.300000X0.237500X-0.300000X0.237500X0*%
G04 #@! TD*
G04 #@! TA.AperFunction,SMDPad,CuDef*
%ADD32RoundRect,0.237500X-0.250000X-0.237500X0.250000X-0.237500X0.250000X0.237500X-0.250000X0.237500X0*%
G04 #@! TD*
G04 #@! TA.AperFunction,ViaPad*
%ADD33C,0.800000*%
G04 #@! TD*
G04 #@! TA.AperFunction,Conductor*
%ADD34C,0.250000*%
G04 #@! TD*
G04 #@! TA.AperFunction,Conductor*
%ADD35C,0.381000*%
G04 #@! TD*
G04 #@! TA.AperFunction,Conductor*
%ADD36C,0.330200*%
G04 #@! TD*
G04 APERTURE END LIST*
D10*
X102590000Y-80768750D03*
X115517000Y-78228750D03*
D11*
X267483750Y-34473750D03*
X266283750Y-34473750D03*
X268683750Y-34473750D03*
D12*
X257375000Y-25456250D03*
X258225000Y-25456250D03*
X259075000Y-25456250D03*
X259925000Y-25456250D03*
X260775000Y-25456250D03*
X261625000Y-25456250D03*
X262475000Y-25456250D03*
X263325000Y-25456250D03*
X263330000Y-24131250D03*
X262480000Y-24131250D03*
X261630000Y-24131250D03*
X260780000Y-24131250D03*
X259930000Y-24131250D03*
X259080000Y-24131250D03*
X258230000Y-24131250D03*
X257375000Y-24131250D03*
D13*
X264675000Y-21096250D03*
D14*
X264675000Y-24476250D03*
X256025000Y-24476250D03*
D13*
X256025000Y-21096250D03*
D15*
X231026250Y-30553750D03*
D16*
X234626250Y-30553750D03*
X238226250Y-30553750D03*
D10*
X150215000Y-80768750D03*
X163142000Y-78228750D03*
X138308750Y-23618750D03*
X151235750Y-21078750D03*
D17*
X270946250Y-34513750D03*
X273446250Y-34513750D03*
X275946250Y-34513750D03*
D18*
X267846250Y-27013750D03*
X279046250Y-27013750D03*
D17*
X270946250Y-20013750D03*
X275946250Y-20013750D03*
D10*
X247846250Y-80803750D03*
X260773250Y-78263750D03*
X247846250Y-61718750D03*
X260773250Y-59178750D03*
X256010750Y-40128750D03*
X243083750Y-42668750D03*
X240702500Y-23618750D03*
X253629500Y-21078750D03*
X219271250Y-42668750D03*
X232198250Y-40128750D03*
X207365000Y-80768750D03*
X220292000Y-78228750D03*
X181171250Y-42668750D03*
X194098250Y-40128750D03*
X157358750Y-23618750D03*
X170285750Y-21078750D03*
X100208750Y-23618750D03*
X113135750Y-21078750D03*
X81158750Y-23618750D03*
X94085750Y-21078750D03*
X69115000Y-80803750D03*
X82042000Y-78263750D03*
X42921250Y-23653750D03*
X55848250Y-21113750D03*
D19*
X259350000Y-28837500D03*
D20*
X259350000Y-27137500D03*
X261350000Y-27137500D03*
X261350000Y-29037500D03*
D10*
X39179500Y-40163750D03*
X26252500Y-42703750D03*
X43942000Y-59213750D03*
X31015000Y-61753750D03*
X184573250Y-59178750D03*
X171646250Y-61718750D03*
X127423250Y-59178750D03*
X114496250Y-61718750D03*
X279823250Y-40163750D03*
X266896250Y-42703750D03*
X60610750Y-78263750D03*
X47683750Y-80803750D03*
X39179500Y-78263750D03*
X26252500Y-80803750D03*
X36798250Y-21113750D03*
X23871250Y-23653750D03*
X198860750Y-78228750D03*
X185933750Y-80768750D03*
X279823250Y-59178750D03*
X266896250Y-61718750D03*
X279823250Y-21113750D03*
X266896250Y-23653750D03*
X70135750Y-59213750D03*
X57208750Y-61753750D03*
X89185750Y-59213750D03*
X76258750Y-61753750D03*
X241723250Y-78228750D03*
X228796250Y-80768750D03*
X132185750Y-21078750D03*
X119258750Y-23618750D03*
X98848250Y-40128750D03*
X85921250Y-42668750D03*
X79660750Y-40163750D03*
X66733750Y-42703750D03*
X213148250Y-40128750D03*
X200221250Y-42668750D03*
X222673250Y-59178750D03*
X209746250Y-61718750D03*
X146473250Y-59178750D03*
X133546250Y-61718750D03*
X189335750Y-21078750D03*
X176408750Y-23618750D03*
X208385750Y-21078750D03*
X195458750Y-23618750D03*
X228796250Y-61718750D03*
X241723250Y-59178750D03*
X266896250Y-80803750D03*
X279823250Y-78263750D03*
X60610750Y-40163750D03*
X47683750Y-42703750D03*
X227435750Y-21078750D03*
X214508750Y-23618750D03*
X155998250Y-40128750D03*
X143071250Y-42668750D03*
X136948250Y-40128750D03*
X124021250Y-42668750D03*
X203623250Y-59178750D03*
X190696250Y-61718750D03*
X175048250Y-40128750D03*
X162121250Y-42668750D03*
X74898250Y-21113750D03*
X61971250Y-23653750D03*
X108373250Y-59178750D03*
X95446250Y-61718750D03*
X117898250Y-40128750D03*
X104971250Y-42668750D03*
X165523250Y-59178750D03*
X152596250Y-61718750D03*
D21*
X180181250Y-88580000D03*
X180181250Y-85280000D03*
X31100000Y-69530000D03*
X31100000Y-66230000D03*
X26337500Y-85280000D03*
X26337500Y-88580000D03*
X266763500Y-69436250D03*
X266763500Y-66136250D03*
X123968750Y-47180000D03*
X123968750Y-50480000D03*
X228663500Y-66230000D03*
X228663500Y-69530000D03*
X214344250Y-28130000D03*
X214344250Y-31430000D03*
X176356250Y-28130000D03*
X176356250Y-31430000D03*
X228663500Y-85280000D03*
X228663500Y-88580000D03*
D22*
X263221250Y-27286250D03*
X263221250Y-29111250D03*
D21*
X84931250Y-85280000D03*
X84931250Y-88580000D03*
D22*
X261316250Y-44116250D03*
X261316250Y-42291250D03*
D21*
X209693750Y-66230000D03*
X209693750Y-69530000D03*
X66818750Y-50480000D03*
X66818750Y-47180000D03*
D22*
X259561250Y-32421250D03*
X259561250Y-30596250D03*
D21*
X47768750Y-85280000D03*
X47768750Y-88580000D03*
X95393750Y-66230000D03*
X95393750Y-69530000D03*
X260635750Y-88580000D03*
X260635750Y-85280000D03*
D23*
X264741250Y-27343750D03*
X264741250Y-29093750D03*
D21*
X69200000Y-88580000D03*
X69200000Y-85280000D03*
X157306250Y-28130000D03*
X157306250Y-31430000D03*
X171593750Y-66230000D03*
X171593750Y-69530000D03*
D24*
X230936250Y-24786250D03*
X230936250Y-22961250D03*
D21*
X260635750Y-66198750D03*
X260635750Y-69498750D03*
X195406250Y-31430000D03*
X195406250Y-28130000D03*
X207312500Y-85280000D03*
X207312500Y-88580000D03*
X254631250Y-31368750D03*
X254631250Y-28068750D03*
X200168750Y-47180000D03*
X200168750Y-50480000D03*
D25*
X262926250Y-30641250D03*
X262926250Y-32366250D03*
D21*
X23956250Y-31430000D03*
X23956250Y-28130000D03*
X114443750Y-69530000D03*
X114443750Y-66230000D03*
X100156250Y-28130000D03*
X100156250Y-31430000D03*
X57293750Y-66230000D03*
X57293750Y-69530000D03*
X219138500Y-47180000D03*
X219138500Y-50480000D03*
X76343750Y-66230000D03*
X76343750Y-69530000D03*
X119206250Y-28130000D03*
X119206250Y-31430000D03*
X43006250Y-28130000D03*
X43006250Y-31430000D03*
X138256250Y-28130000D03*
X138256250Y-31430000D03*
X185881250Y-88580000D03*
X185881250Y-85280000D03*
X257051250Y-50408750D03*
X257051250Y-47108750D03*
D22*
X257681250Y-27226250D03*
X257681250Y-29051250D03*
D21*
X26337500Y-50480000D03*
X26337500Y-47180000D03*
X47768750Y-50480000D03*
X47768750Y-47180000D03*
D26*
X263948750Y-35828750D03*
X263948750Y-36328750D03*
X263948750Y-36828750D03*
X263948750Y-37328750D03*
X263948750Y-37828750D03*
X263948750Y-38328750D03*
X263948750Y-38828750D03*
X263948750Y-39328750D03*
D27*
X263261250Y-40016250D03*
X262761250Y-40016250D03*
X262261250Y-40016250D03*
X261761250Y-40016250D03*
X261261250Y-40016250D03*
X260761250Y-40016250D03*
X260261250Y-40016250D03*
X259761250Y-40016250D03*
D26*
X259073750Y-39328750D03*
X259073750Y-38828750D03*
X259073750Y-38328750D03*
X259073750Y-37828750D03*
X259073750Y-37328750D03*
X259073750Y-36828750D03*
X259073750Y-36328750D03*
X259073750Y-35828750D03*
D27*
X259761250Y-35141250D03*
X260261250Y-35141250D03*
X260761250Y-35141250D03*
X261261250Y-35141250D03*
X261761250Y-35141250D03*
X262261250Y-35141250D03*
X262761250Y-35141250D03*
X263261250Y-35141250D03*
D28*
X261511250Y-37578750D03*
D21*
X266843750Y-31430000D03*
X266843750Y-28130000D03*
X190643750Y-66230000D03*
X190643750Y-69530000D03*
X143018750Y-50480000D03*
X143018750Y-47180000D03*
D29*
X257666250Y-32416250D03*
X257666250Y-30691250D03*
D21*
X152543750Y-66230000D03*
X152543750Y-69530000D03*
D30*
X129105000Y-80487500D03*
X137805000Y-80487500D03*
D21*
X85868750Y-50480000D03*
X85868750Y-47180000D03*
X104918750Y-47180000D03*
X104918750Y-50480000D03*
D22*
X261081250Y-30566250D03*
X261081250Y-32391250D03*
D21*
X266731750Y-50480000D03*
X266731750Y-47180000D03*
X181118750Y-47180000D03*
X181118750Y-50480000D03*
D31*
X273758750Y-37113750D03*
X272033750Y-37113750D03*
D21*
X133493750Y-69530000D03*
X133493750Y-66230000D03*
X81106250Y-31430000D03*
X81106250Y-28130000D03*
D32*
X135750000Y-73783750D03*
X137575000Y-73783750D03*
D21*
X62056250Y-31430000D03*
X62056250Y-28130000D03*
X266731750Y-88580000D03*
X266731750Y-85280000D03*
X162068750Y-47180000D03*
X162068750Y-50480000D03*
D33*
X234525588Y-38663088D03*
X271976250Y-35883750D03*
X234010130Y-39544852D03*
X258151250Y-41888750D03*
X258601250Y-48868750D03*
X279691250Y-56828750D03*
X263607230Y-56728750D03*
X264847341Y-48988750D03*
X265571841Y-51144250D03*
X235171250Y-37917761D03*
X249113187Y-37932203D03*
X256181250Y-33718750D03*
X254611250Y-34358750D03*
X262202333Y-26339628D03*
X269501250Y-31488750D03*
X263856443Y-28275625D03*
X265644248Y-31468750D03*
X262036591Y-31490544D03*
X164231250Y-56798750D03*
X257558462Y-52869157D03*
X258122577Y-53694250D03*
X183251250Y-56748750D03*
X202221250Y-56718750D03*
X258638146Y-54579379D03*
X259279352Y-55346099D03*
X221201250Y-56498750D03*
X259861250Y-56158750D03*
X240981250Y-56808750D03*
X260661250Y-56848750D03*
X247731250Y-56883250D03*
X133855000Y-72487500D03*
X266201250Y-72478750D03*
X261308951Y-45446452D03*
X262921553Y-33730587D03*
X185855000Y-89687500D03*
X207455000Y-89687500D03*
X228655000Y-89687500D03*
X47855000Y-89687500D03*
X266655000Y-89687500D03*
X260655000Y-89687500D03*
X69055000Y-89687500D03*
X26255000Y-89687500D03*
X265581250Y-73438750D03*
X134180000Y-73587500D03*
X195331250Y-32668750D03*
X42941250Y-32768750D03*
X157331250Y-32668750D03*
X62031250Y-32768750D03*
X138231250Y-32768750D03*
X176331250Y-32668750D03*
X100131250Y-32768750D03*
X81131250Y-32768750D03*
X119231250Y-32768750D03*
X23971250Y-32768750D03*
X214431250Y-32668750D03*
X266831250Y-32568750D03*
X254621250Y-32558750D03*
X104631250Y-51868750D03*
X143031250Y-51868750D03*
X161831250Y-51868750D03*
X47831250Y-51868750D03*
X66631250Y-51868750D03*
X85831250Y-51868750D03*
X257021250Y-51788750D03*
X26255000Y-51868750D03*
X266631250Y-51868750D03*
X219031250Y-51868750D03*
X199831250Y-51868750D03*
X123831250Y-51868750D03*
X181031250Y-51868750D03*
X266655000Y-70887500D03*
X133455000Y-70887500D03*
X228655000Y-70887500D03*
X209455000Y-70887500D03*
X114255000Y-70887500D03*
X57455000Y-70887500D03*
X260655000Y-70887500D03*
X171455000Y-70887500D03*
X76255000Y-70887500D03*
X31055000Y-70887500D03*
X190655000Y-70887500D03*
X152655000Y-70887500D03*
X95455000Y-70887500D03*
X253721250Y-33478750D03*
X38351250Y-37438750D03*
X59381250Y-37658750D03*
X252996750Y-34347237D03*
X78441250Y-37688750D03*
X252272250Y-35088056D03*
X97421250Y-37728750D03*
X251351250Y-35740278D03*
X116571250Y-37658750D03*
X250565379Y-36357864D03*
X249821250Y-37173250D03*
X135521250Y-37598750D03*
D34*
X200221250Y-47127500D02*
X200168750Y-47180000D01*
X200221250Y-42668750D02*
X200221250Y-47127500D01*
X190696250Y-66177500D02*
X190643750Y-66230000D01*
X190696250Y-61718750D02*
X190696250Y-66177500D01*
X162121250Y-47127500D02*
X162068750Y-47180000D01*
X162121250Y-42668750D02*
X162121250Y-47127500D01*
X76343750Y-61883750D02*
X76343750Y-66230000D01*
X76258750Y-61798750D02*
X76343750Y-61883750D01*
X76258750Y-61753750D02*
X76258750Y-61798750D01*
X42921250Y-28045000D02*
X43006250Y-28130000D01*
X42921250Y-23653750D02*
X42921250Y-28045000D01*
X47683750Y-47095000D02*
X47768750Y-47180000D01*
X47683750Y-42703750D02*
X47683750Y-47095000D01*
X268271250Y-36328750D02*
X268683750Y-35916250D01*
X263948750Y-36328750D02*
X268271250Y-36328750D01*
X268683750Y-35916250D02*
X268683750Y-34473750D01*
X265981250Y-35828750D02*
X266283750Y-35526250D01*
X266283750Y-35526250D02*
X266283750Y-34473750D01*
X263948750Y-35828750D02*
X265981250Y-35828750D01*
X267483750Y-33106250D02*
X267483750Y-34473750D01*
X267486250Y-33103750D02*
X267483750Y-33106250D01*
X267486250Y-33043750D02*
X267486250Y-33103750D01*
X267736250Y-32793750D02*
X267486250Y-33043750D01*
X268376250Y-32793750D02*
X267736250Y-32793750D01*
X268576250Y-32593750D02*
X268376250Y-32793750D01*
X268576250Y-31713750D02*
X268576250Y-32593750D01*
X268801250Y-31488750D02*
X268576250Y-31713750D01*
X269501250Y-31488750D02*
X268801250Y-31488750D01*
X256367500Y-24133750D02*
X257372500Y-24133750D01*
X257372500Y-24133750D02*
X257375000Y-24131250D01*
X256025000Y-24476250D02*
X256367500Y-24133750D01*
X263675000Y-24476250D02*
X263330000Y-24131250D01*
X264675000Y-24476250D02*
X263675000Y-24476250D01*
X264753750Y-24476250D02*
X264866250Y-24363750D01*
X264675000Y-24476250D02*
X264753750Y-24476250D01*
X234626250Y-37372761D02*
X234626250Y-30553750D01*
X235171250Y-37917761D02*
X234626250Y-37372761D01*
X233623750Y-22961250D02*
X230936250Y-22961250D01*
X234626250Y-23963750D02*
X233623750Y-22961250D01*
X234626250Y-30553750D02*
X234626250Y-23963750D01*
X230996250Y-24846250D02*
X230996250Y-30523750D01*
X230936250Y-24786250D02*
X230996250Y-24846250D01*
X230996250Y-30523750D02*
X231026250Y-30553750D01*
X231026250Y-32303750D02*
X231026250Y-31143750D01*
X232956250Y-33173750D02*
X231896250Y-33173750D01*
X231026250Y-31143750D02*
X230774109Y-30891609D01*
X233326250Y-33543750D02*
X232956250Y-33173750D01*
X233326250Y-37463750D02*
X233326250Y-33543750D01*
X231896250Y-33173750D02*
X231026250Y-32303750D01*
X234525588Y-38663088D02*
X233326250Y-37463750D01*
X237666250Y-39353750D02*
X237666250Y-30583750D01*
X234010130Y-39544852D02*
X237475148Y-39544852D01*
X237475148Y-39544852D02*
X237666250Y-39353750D01*
X273446250Y-36801250D02*
X273446250Y-34513750D01*
X273758750Y-37113750D02*
X273446250Y-36801250D01*
X272033750Y-35941250D02*
X271976250Y-35883750D01*
X272033750Y-37113750D02*
X272033750Y-35941250D01*
X263993750Y-37283750D02*
X263948750Y-37328750D01*
X272033750Y-37113750D02*
X271863750Y-37283750D01*
X271863750Y-37283750D02*
X263993750Y-37283750D01*
X119200000Y-41603000D02*
X117760750Y-40163750D01*
X119200000Y-54331250D02*
X119200000Y-41603000D01*
X127701250Y-54733750D02*
X119602500Y-54733750D01*
X128255000Y-58244500D02*
X128255000Y-55287500D01*
X128255000Y-55287500D02*
X127701250Y-54733750D01*
X127285750Y-59213750D02*
X128255000Y-58244500D01*
X119602500Y-54733750D02*
X119200000Y-54331250D01*
X183251250Y-58029250D02*
X183251250Y-56748750D01*
X184435750Y-59213750D02*
X183251250Y-58029250D01*
X185455000Y-58194500D02*
X184435750Y-59213750D01*
X177055000Y-53287500D02*
X185055000Y-53287500D01*
X176255000Y-41508000D02*
X176255000Y-52487500D01*
X185055000Y-53287500D02*
X185455000Y-53687500D01*
X185455000Y-53687500D02*
X185455000Y-58194500D01*
X175234500Y-40487500D02*
X176255000Y-41508000D01*
X174910750Y-40487500D02*
X175234500Y-40487500D01*
X176255000Y-52487500D02*
X177055000Y-53287500D01*
X26252500Y-47095000D02*
X26337500Y-47180000D01*
X26252500Y-42703750D02*
X26252500Y-47095000D01*
X23871250Y-28045000D02*
X23956250Y-28130000D01*
X23871250Y-23653750D02*
X23871250Y-28045000D01*
X279622000Y-20139500D02*
X278702979Y-19220479D01*
X279622000Y-21095000D02*
X279622000Y-20139500D01*
X278702979Y-19220479D02*
X275991250Y-19220479D01*
X267671250Y-19688750D02*
X270991250Y-19688750D01*
X266695000Y-20665000D02*
X267671250Y-19688750D01*
X266695000Y-23635000D02*
X266695000Y-20665000D01*
X261261250Y-37328750D02*
X261511250Y-37578750D01*
X261261250Y-35141250D02*
X261261250Y-37328750D01*
X262261250Y-36828750D02*
X261511250Y-37578750D01*
X263948750Y-36828750D02*
X262261250Y-36828750D01*
X266758750Y-47153000D02*
X266731750Y-47180000D01*
X266758750Y-42703750D02*
X266758750Y-47153000D01*
X272315761Y-32864239D02*
X270991250Y-34188750D01*
X277266739Y-32864239D02*
X272315761Y-32864239D01*
X277521250Y-36375276D02*
X277521250Y-33118750D01*
X275268736Y-38627790D02*
X277521250Y-36375276D01*
X271720236Y-38278270D02*
X272069757Y-38627790D01*
X272069757Y-38627790D02*
X275268736Y-38627790D01*
X277521250Y-33118750D02*
X277266739Y-32864239D01*
X264787448Y-38278270D02*
X271720236Y-38278270D01*
X263948750Y-38328750D02*
X264736968Y-38328750D01*
X264736968Y-38328750D02*
X264787448Y-38278270D01*
X275991250Y-37269558D02*
X275991250Y-34188750D01*
X275082538Y-38178270D02*
X275991250Y-37269558D01*
X272255954Y-38178270D02*
X275082538Y-38178270D01*
X271906434Y-37828750D02*
X272255954Y-38178270D01*
X263948750Y-37828750D02*
X271906434Y-37828750D01*
X239611250Y-39368750D02*
X242946250Y-42703750D01*
X239611250Y-24607500D02*
X239611250Y-39368750D01*
X240565000Y-23653750D02*
X239611250Y-24607500D01*
X258571250Y-48838750D02*
X258571250Y-42308750D01*
X258601250Y-48868750D02*
X258571250Y-48838750D01*
X258571250Y-42308750D02*
X258151250Y-41888750D01*
X259031250Y-51788750D02*
X257021250Y-51788750D01*
X259561550Y-51258450D02*
X259031250Y-51788750D01*
X259081250Y-46150518D02*
X259561550Y-46630818D01*
X259561550Y-46630818D02*
X259561550Y-51258450D01*
X259081250Y-39318750D02*
X259081250Y-46150518D01*
X259768750Y-40669816D02*
X259768750Y-40006250D01*
X259571250Y-40867316D02*
X259768750Y-40669816D01*
X260011070Y-51448930D02*
X260011070Y-46444620D01*
X260011070Y-46444620D02*
X259571250Y-46004800D01*
X258590843Y-52869157D02*
X260011070Y-51448930D01*
X259571250Y-46004800D02*
X259571250Y-40867316D01*
X257558462Y-52869157D02*
X258590843Y-52869157D01*
X260268750Y-40805532D02*
X260268750Y-40006250D01*
X260041730Y-41032553D02*
X260268750Y-40805532D01*
X260041730Y-45839562D02*
X260041730Y-41032553D01*
X260460590Y-46258423D02*
X260041730Y-45839562D01*
X260460590Y-52309410D02*
X260460590Y-46258423D01*
X258122577Y-53694250D02*
X259075750Y-53694250D01*
X259075750Y-53694250D02*
X260460590Y-52309410D01*
X260491250Y-41218750D02*
X260768750Y-40941250D01*
X260491250Y-45653365D02*
X260491250Y-41218750D01*
X260768750Y-40941250D02*
X260768750Y-40006250D01*
X260910110Y-46072225D02*
X260491250Y-45653365D01*
X259450621Y-54579379D02*
X260910110Y-53119890D01*
X258638146Y-54579379D02*
X259450621Y-54579379D01*
X260910110Y-53119890D02*
X260910110Y-46072225D01*
D35*
X261308951Y-44373549D02*
X261351250Y-44331250D01*
X261308951Y-45446452D02*
X261308951Y-44373549D01*
D34*
X261768750Y-40780014D02*
X261768750Y-40006250D01*
X262292690Y-41303954D02*
X261768750Y-40780014D01*
X261359630Y-46420371D02*
X262292690Y-45487311D01*
X261359630Y-53306088D02*
X261359630Y-46420371D01*
X259319619Y-55346099D02*
X261359630Y-53306088D01*
X262292690Y-45487311D02*
X262292690Y-41303954D01*
X259279352Y-55346099D02*
X259319619Y-55346099D01*
X262742210Y-41117756D02*
X262268750Y-40644296D01*
X262742210Y-45673508D02*
X262742210Y-41117756D01*
X261809150Y-53840915D02*
X261809150Y-46606568D01*
X259861250Y-55788815D02*
X261809150Y-53840915D01*
X261809150Y-46606568D02*
X262742210Y-45673508D01*
X262268750Y-40644296D02*
X262268750Y-40006250D01*
X259861250Y-56158750D02*
X259861250Y-55788815D01*
X263191730Y-45859705D02*
X263191730Y-40931558D01*
X262258670Y-46792765D02*
X263191730Y-45859705D01*
X263191730Y-40931558D02*
X262768750Y-40508578D01*
X262258670Y-54681330D02*
X262258670Y-46792765D01*
X260585761Y-56354239D02*
X262258670Y-54681330D01*
X260585761Y-56773261D02*
X260585761Y-56354239D01*
X260661250Y-56848750D02*
X260585761Y-56773261D01*
X262768750Y-40508578D02*
X262768750Y-40006250D01*
X263641250Y-40378750D02*
X263268750Y-40006250D01*
X263641250Y-46045903D02*
X263641250Y-40378750D01*
X262708190Y-46978963D02*
X263641250Y-46045903D01*
X262708190Y-55967459D02*
X262708190Y-46978963D01*
X262382500Y-56293149D02*
X262708190Y-55967459D01*
X262382500Y-70887500D02*
X262382500Y-56293149D01*
X260655000Y-70887500D02*
X262382500Y-70887500D01*
X264241250Y-39703750D02*
X263951250Y-39413750D01*
X264241250Y-46081621D02*
X264241250Y-39703750D01*
X263157710Y-47165161D02*
X264241250Y-46081621D01*
X262861250Y-56450116D02*
X263157710Y-56153656D01*
X262861250Y-71354468D02*
X262861250Y-56450116D01*
X264241250Y-72734468D02*
X262861250Y-71354468D01*
X262112500Y-89687500D02*
X264241250Y-87558750D01*
X263157710Y-56153656D02*
X263157710Y-47165161D01*
X264241250Y-87558750D02*
X264241250Y-72734468D01*
X260655000Y-89687500D02*
X262112500Y-89687500D01*
X261271250Y-42396250D02*
X261271250Y-40218750D01*
X261168750Y-42498750D02*
X261271250Y-42396250D01*
X264921250Y-39148750D02*
X264601250Y-38828750D01*
X264601250Y-38828750D02*
X263948750Y-38828750D01*
X264921250Y-46037339D02*
X264921250Y-39148750D01*
X263607230Y-47351359D02*
X264921250Y-46037339D01*
X263607230Y-56728750D02*
X263607230Y-47351359D01*
X279685750Y-56834250D02*
X279691250Y-56828750D01*
X279685750Y-59213750D02*
X279685750Y-56834250D01*
X264331730Y-49504361D02*
X264847341Y-48988750D01*
X264331730Y-72189230D02*
X264331730Y-49504361D01*
X265581250Y-73438750D02*
X264331730Y-72189230D01*
X264781250Y-51934841D02*
X265571841Y-51144250D01*
X264781250Y-71058750D02*
X264781250Y-51934841D01*
X266201250Y-72478750D02*
X264781250Y-71058750D01*
X266111250Y-72478750D02*
X266061250Y-72428750D01*
X266201250Y-72478750D02*
X266111250Y-72478750D01*
X235221250Y-37867761D02*
X235171250Y-37917761D01*
X257898379Y-38318750D02*
X259081250Y-38318750D01*
X250791730Y-37589230D02*
X257168859Y-37589230D01*
X257168859Y-37589230D02*
X257898379Y-38318750D01*
X250565379Y-36357864D02*
X250565379Y-37362879D01*
X250565379Y-37362879D02*
X250791730Y-37589230D01*
X256745261Y-38038750D02*
X257525261Y-38818750D01*
X257525261Y-38818750D02*
X259081250Y-38818750D01*
X250081250Y-38038750D02*
X256745261Y-38038750D01*
X249821250Y-37778750D02*
X250081250Y-38038750D01*
X249821250Y-37173250D02*
X249821250Y-37778750D01*
X251582210Y-37139710D02*
X257355057Y-37139710D01*
X257355057Y-37139710D02*
X258034097Y-37818750D01*
X258034097Y-37818750D02*
X259081250Y-37818750D01*
X251351250Y-36908750D02*
X251582210Y-37139710D01*
X251351250Y-35740278D02*
X251351250Y-36908750D01*
X257369815Y-36518750D02*
X258169815Y-37318750D01*
X252272250Y-36239750D02*
X252551250Y-36518750D01*
X258169815Y-37318750D02*
X259081250Y-37318750D01*
X252272250Y-35088056D02*
X252272250Y-36239750D01*
X252551250Y-36518750D02*
X257369815Y-36518750D01*
X257556013Y-36069230D02*
X258305533Y-36818750D01*
X258305533Y-36818750D02*
X259081250Y-36818750D01*
X253291730Y-36069230D02*
X257556013Y-36069230D01*
X252996750Y-35774250D02*
X253291730Y-36069230D01*
X252996750Y-34347237D02*
X252996750Y-35774250D01*
X257742210Y-35619710D02*
X258441730Y-36319230D01*
X253962210Y-35619710D02*
X257742210Y-35619710D01*
X253721250Y-35378750D02*
X253962210Y-35619710D01*
X253721250Y-33478750D02*
X253721250Y-35378750D01*
X257112685Y-33718750D02*
X258292685Y-34898750D01*
X256181250Y-33718750D02*
X257112685Y-33718750D01*
X258292685Y-34898750D02*
X259518750Y-34898750D01*
X259518750Y-34898750D02*
X259761250Y-35141250D01*
X256851730Y-32884046D02*
X256851730Y-32558750D01*
X257180954Y-33213270D02*
X256851730Y-32884046D01*
X258831730Y-34369230D02*
X257675770Y-33213270D01*
X257675770Y-33213270D02*
X257180954Y-33213270D01*
X259991558Y-34369230D02*
X258831730Y-34369230D01*
X260268750Y-34646422D02*
X259991558Y-34369230D01*
X256851730Y-32558750D02*
X254621250Y-32558750D01*
X260268750Y-35131250D02*
X260268750Y-34646422D01*
X258312210Y-32489710D02*
X258173750Y-32351250D01*
X258312210Y-33090243D02*
X258312210Y-32489710D01*
X258173750Y-32351250D02*
X257651250Y-32351250D01*
X258878354Y-33656387D02*
X258312210Y-33090243D01*
X259141676Y-33919710D02*
X258878354Y-33656387D01*
X260177755Y-33919710D02*
X259141676Y-33919710D01*
X260768750Y-34510705D02*
X260177755Y-33919710D01*
X260768750Y-35131250D02*
X260768750Y-34510705D01*
X258761730Y-32904046D02*
X258761730Y-31736730D01*
X259327874Y-33470190D02*
X258761730Y-32904046D01*
X260363953Y-33470190D02*
X259327874Y-33470190D01*
X258761730Y-31736730D02*
X257651250Y-30626250D01*
X261261250Y-34367487D02*
X260363953Y-33470190D01*
X261261250Y-35141250D02*
X261261250Y-34367487D01*
X258586967Y-35828750D02*
X259073750Y-35828750D01*
X257928409Y-35170191D02*
X258586967Y-35828750D01*
X254591250Y-34918750D02*
X254842690Y-35170190D01*
X254591250Y-34378750D02*
X254591250Y-34918750D01*
X254842690Y-35170190D02*
X257928409Y-35170191D01*
X254611250Y-34358750D02*
X254591250Y-34378750D01*
X260431250Y-24928750D02*
X260751250Y-24608750D01*
X259925000Y-25115000D02*
X260111250Y-24928750D01*
X259925000Y-25456250D02*
X259925000Y-25115000D01*
X260111250Y-24928750D02*
X260431250Y-24928750D01*
X260751250Y-24608750D02*
X260751250Y-24160000D01*
X260751250Y-24160000D02*
X260780000Y-24131250D01*
X260775000Y-25432500D02*
X260691250Y-25348750D01*
X260775000Y-25456250D02*
X260775000Y-25432500D01*
X263330000Y-25451250D02*
X263325000Y-25456250D01*
X263330000Y-24131250D02*
X263330000Y-25451250D01*
X263330000Y-24180000D02*
X263211250Y-24298750D01*
X263330000Y-24131250D02*
X263330000Y-24180000D01*
X257375000Y-24131250D02*
X257375000Y-25456250D01*
X256370000Y-24131250D02*
X256025000Y-24476250D01*
X258230000Y-25451250D02*
X258225000Y-25456250D01*
X258230000Y-24131250D02*
X258230000Y-25451250D01*
X258230000Y-23840000D02*
X258230000Y-24131250D01*
X261851250Y-23258750D02*
X258811250Y-23258750D01*
X262480000Y-23887500D02*
X261851250Y-23258750D01*
X258811250Y-23258750D02*
X258230000Y-23840000D01*
X262480000Y-24131250D02*
X262480000Y-23887500D01*
X262475000Y-24136250D02*
X262480000Y-24131250D01*
X262475000Y-25456250D02*
X262475000Y-24136250D01*
X264741250Y-26588750D02*
X264741250Y-27343750D01*
X264561250Y-26408750D02*
X264741250Y-26588750D01*
X263358952Y-26408750D02*
X264561250Y-26408750D01*
X262475000Y-25456250D02*
X262475000Y-25524798D01*
X262475000Y-25524798D02*
X263358952Y-26408750D01*
X262475000Y-25587681D02*
X262475000Y-25456250D01*
X262708750Y-27286250D02*
X263221250Y-27286250D01*
X262202333Y-26779833D02*
X262708750Y-27286250D01*
X262202333Y-26339628D02*
X262202333Y-26779833D01*
X269271250Y-36828750D02*
X263948750Y-36828750D01*
X269501250Y-36598750D02*
X269271250Y-36828750D01*
X269501250Y-31488750D02*
X269501250Y-36598750D01*
X263221250Y-28910818D02*
X263856443Y-28275625D01*
X263221250Y-29111250D02*
X263221250Y-28910818D01*
X264675000Y-25892500D02*
X264675000Y-24476250D01*
X264831250Y-26048750D02*
X264675000Y-25892500D01*
X265551250Y-26048750D02*
X264831250Y-26048750D01*
X265644248Y-26141748D02*
X265551250Y-26048750D01*
X265644248Y-31468750D02*
X265644248Y-26141748D01*
X264741250Y-30168750D02*
X264741250Y-29093750D01*
X264511250Y-30398750D02*
X264741250Y-30168750D01*
X263138750Y-30398750D02*
X264511250Y-30398750D01*
X262901250Y-30636250D02*
X263138750Y-30398750D01*
X257651250Y-29081250D02*
X257681250Y-29051250D01*
X257651250Y-30626250D02*
X257651250Y-29081250D01*
X256851250Y-28808750D02*
X256851250Y-25980000D01*
X257061250Y-29018750D02*
X256851250Y-28808750D01*
X257681250Y-29051250D02*
X257648750Y-29018750D01*
X257648750Y-29018750D02*
X257061250Y-29018750D01*
X256851250Y-25980000D02*
X257375000Y-25456250D01*
X257895000Y-28837500D02*
X257681250Y-29051250D01*
X259350000Y-28837500D02*
X257895000Y-28837500D01*
X257375000Y-25456250D02*
X257183750Y-25456250D01*
X260181250Y-29438750D02*
X260181250Y-27968750D01*
X260181250Y-27968750D02*
X259350000Y-27137500D01*
X259561250Y-30058750D02*
X260181250Y-29438750D01*
X259561250Y-30596250D02*
X259561250Y-30058750D01*
X259925000Y-26015000D02*
X259925000Y-25456250D01*
X259350000Y-27137500D02*
X259350000Y-26590000D01*
X259350000Y-26590000D02*
X259925000Y-26015000D01*
X260775000Y-25982500D02*
X260775000Y-25456250D01*
X261350000Y-26557500D02*
X260775000Y-25982500D01*
X261350000Y-27137500D02*
X261350000Y-26557500D01*
X260972500Y-27137500D02*
X261350000Y-27137500D01*
X260675489Y-27434511D02*
X260972500Y-27137500D01*
X261081250Y-30566250D02*
X260675489Y-30160489D01*
X260675489Y-30160489D02*
X260675489Y-27434511D01*
X262901250Y-30088750D02*
X261850000Y-29037500D01*
X261850000Y-29037500D02*
X261450000Y-29037500D01*
X262901250Y-30636250D02*
X262901250Y-30088750D01*
X262901250Y-30636250D02*
X262901250Y-30308750D01*
X262430954Y-31498270D02*
X262423228Y-31490544D01*
X262660770Y-31498270D02*
X262430954Y-31498270D01*
X262901250Y-31738750D02*
X262660770Y-31498270D01*
X262423228Y-31490544D02*
X262036591Y-31490544D01*
X262901250Y-32361250D02*
X262901250Y-31738750D01*
X263511250Y-30868750D02*
X262667500Y-30868750D01*
X263781250Y-32812316D02*
X263781250Y-31138750D01*
X263781250Y-31138750D02*
X263511250Y-30868750D01*
X263137796Y-33455770D02*
X263781250Y-32812316D01*
X262571250Y-32361250D02*
X262571250Y-32244919D01*
X263261250Y-34070284D02*
X262921553Y-33730587D01*
X263261250Y-35141250D02*
X263261250Y-34070284D01*
X262761250Y-33890890D02*
X262921553Y-33730587D01*
X262761250Y-35141250D02*
X262761250Y-33890890D01*
X261081250Y-32848750D02*
X261081250Y-32391250D01*
X262261250Y-34028750D02*
X261081250Y-32848750D01*
X262261250Y-35141250D02*
X262261250Y-34028750D01*
X259561250Y-32858750D02*
X259561250Y-32421250D01*
X260550150Y-33020670D02*
X259723170Y-33020670D01*
X261761250Y-34231770D02*
X260550150Y-33020670D01*
X261761250Y-35141250D02*
X261761250Y-34231770D01*
X259723170Y-33020670D02*
X259561250Y-32858750D01*
X263325000Y-25456250D02*
X263283750Y-25456250D01*
D36*
X261491250Y-37638750D02*
X261251630Y-37399130D01*
D34*
X164231250Y-58059250D02*
X164231250Y-56798750D01*
X165385750Y-59213750D02*
X164231250Y-58059250D01*
X258122577Y-53694250D02*
X257902136Y-53694250D01*
X203485750Y-59213750D02*
X202221250Y-57949250D01*
X202221250Y-57949250D02*
X202221250Y-56718750D01*
X204751250Y-57948250D02*
X203485750Y-59213750D01*
X204461250Y-54808750D02*
X204751250Y-55098750D01*
X196621250Y-54808750D02*
X204461250Y-54808750D01*
X196451250Y-54638750D02*
X196621250Y-54808750D01*
X196451250Y-42654250D02*
X196451250Y-54638750D01*
X204751250Y-55098750D02*
X204751250Y-57948250D01*
X193960750Y-40163750D02*
X196451250Y-42654250D01*
X221201250Y-57879250D02*
X221201250Y-56498750D01*
X222535750Y-59213750D02*
X221201250Y-57879250D01*
X240981250Y-58858750D02*
X241336250Y-59213750D01*
X240981250Y-56808750D02*
X240981250Y-58858750D01*
X241336250Y-59213750D02*
X241585750Y-59213750D01*
X247731250Y-56883250D02*
X247708750Y-56905750D01*
X247708750Y-56905750D02*
X247708750Y-61753750D01*
X242661250Y-58138250D02*
X241585750Y-59213750D01*
X233081250Y-55668750D02*
X233500000Y-56087500D01*
X242230000Y-56087500D02*
X242661250Y-56518750D01*
X242661250Y-56518750D02*
X242661250Y-58138250D01*
X233081250Y-41311250D02*
X233081250Y-55668750D01*
X232092500Y-40322500D02*
X233081250Y-41311250D01*
X233500000Y-56087500D02*
X242230000Y-56087500D01*
X257051250Y-51758750D02*
X257021250Y-51788750D01*
X257051250Y-50408750D02*
X257051250Y-51758750D01*
X266695000Y-23635000D02*
X266605489Y-23724511D01*
X266605489Y-23724511D02*
X266605489Y-28130000D01*
D35*
X129855000Y-72487500D02*
X129105000Y-73237500D01*
X129105000Y-73237500D02*
X129105000Y-80487500D01*
X133855000Y-72487500D02*
X129855000Y-72487500D01*
D34*
X31015000Y-61753750D02*
X31015000Y-66145000D01*
X31015000Y-66145000D02*
X31100000Y-66230000D01*
X84931250Y-88887500D02*
X85055000Y-88887500D01*
X228663500Y-88580000D02*
X228663500Y-89679000D01*
X180181250Y-88580000D02*
X185881250Y-88580000D01*
X260635750Y-88580000D02*
X260635750Y-89668250D01*
X266731750Y-88580000D02*
X266731750Y-89610750D01*
X207312500Y-89545000D02*
X207455000Y-89687500D01*
X185881250Y-89661250D02*
X185855000Y-89687500D01*
X180181250Y-88580000D02*
X180181250Y-88206250D01*
X260635750Y-89668250D02*
X260655000Y-89687500D01*
X185881250Y-88580000D02*
X185881250Y-89661250D01*
X47768750Y-88580000D02*
X47768750Y-89601250D01*
X228663500Y-89679000D02*
X228655000Y-89687500D01*
X84931250Y-87880000D02*
X84931250Y-88580000D01*
X84931250Y-88580000D02*
X84931250Y-88887500D01*
X85123750Y-87687500D02*
X84931250Y-87880000D01*
X69200000Y-89542500D02*
X69055000Y-89687500D01*
X179662500Y-87687500D02*
X85123750Y-87687500D01*
X47768750Y-89601250D02*
X47855000Y-89687500D01*
X180181250Y-88206250D02*
X179662500Y-87687500D01*
X84931250Y-88580000D02*
X69200000Y-88580000D01*
X207312500Y-88580000D02*
X207312500Y-89545000D01*
X26337500Y-89605000D02*
X26255000Y-89687500D01*
X266731750Y-89610750D02*
X266655000Y-89687500D01*
X26337500Y-88580000D02*
X26337500Y-89605000D01*
X69200000Y-88580000D02*
X69200000Y-89542500D01*
X61971250Y-28045000D02*
X62056250Y-28130000D01*
X61971250Y-23653750D02*
X61971250Y-28045000D01*
X66733750Y-47095000D02*
X66818750Y-47180000D01*
X66733750Y-42703750D02*
X66733750Y-47095000D01*
X69115000Y-85195000D02*
X69200000Y-85280000D01*
X69115000Y-80803750D02*
X69115000Y-85195000D01*
X81021250Y-23653750D02*
X81855000Y-23653750D01*
X81855000Y-23653750D02*
X81855000Y-24087500D01*
X81021250Y-28045000D02*
X81106250Y-28130000D01*
X81021250Y-23653750D02*
X81021250Y-28045000D01*
X85783750Y-47095000D02*
X85868750Y-47180000D01*
X85783750Y-42703750D02*
X85783750Y-47095000D01*
X114358750Y-66145000D02*
X114443750Y-66230000D01*
X114358750Y-61753750D02*
X114358750Y-66145000D01*
X133408750Y-66145000D02*
X133493750Y-66230000D01*
X133408750Y-61753750D02*
X133408750Y-66145000D01*
X185796250Y-80803750D02*
X185796250Y-85195000D01*
X185796250Y-85195000D02*
X185881250Y-85280000D01*
X195321250Y-23653750D02*
X195321250Y-28045000D01*
X195321250Y-28045000D02*
X195406250Y-28130000D01*
X254631250Y-28068750D02*
X254631250Y-22253000D01*
X254631250Y-22253000D02*
X253492000Y-21113750D01*
X255873250Y-40163750D02*
X256360771Y-40651271D01*
X255873250Y-40163750D02*
X255898250Y-40163750D01*
X255898250Y-40163750D02*
X257051250Y-41316750D01*
X257051250Y-41316750D02*
X257051250Y-47108750D01*
X260635750Y-59213750D02*
X261455000Y-60033000D01*
X261455000Y-64887500D02*
X260635750Y-65706750D01*
X261455000Y-60033000D02*
X261455000Y-64887500D01*
X260635750Y-65706750D02*
X260635750Y-66198750D01*
X261455000Y-83874125D02*
X261455000Y-79083000D01*
X260635750Y-84693375D02*
X261455000Y-83874125D01*
X260635750Y-85280000D02*
X260635750Y-84693375D01*
X261455000Y-79083000D02*
X260635750Y-78263750D01*
X266758750Y-61753750D02*
X266758750Y-66131500D01*
X266758750Y-66131500D02*
X266763500Y-66136250D01*
X266731750Y-80830750D02*
X266758750Y-80803750D01*
X266731750Y-85280000D02*
X266731750Y-80830750D01*
X259278348Y-30837500D02*
X259492500Y-30837500D01*
X258627011Y-26312989D02*
X259075000Y-25865000D01*
X259075000Y-25865000D02*
X259075000Y-25456250D01*
X257750000Y-26850000D02*
X258287011Y-26312989D01*
X258287011Y-26312989D02*
X258627011Y-26312989D01*
X137805000Y-73925000D02*
X137805000Y-80487500D01*
X137567500Y-73687500D02*
X137805000Y-73925000D01*
X135742500Y-73687500D02*
X134280000Y-73687500D01*
X246461250Y-55308750D02*
X246461250Y-60506250D01*
X246792500Y-79887500D02*
X247708750Y-80803750D01*
X246041250Y-54888750D02*
X246461250Y-55308750D01*
X242946250Y-42703750D02*
X242823750Y-42826250D01*
X241931250Y-53338750D02*
X243481250Y-54888750D01*
X246792500Y-62670000D02*
X246792500Y-79887500D01*
X246581250Y-60626250D02*
X247708750Y-61753750D01*
X242946250Y-42703750D02*
X241931250Y-42703750D01*
X247708750Y-61753750D02*
X246792500Y-62670000D01*
X243481250Y-54888750D02*
X246041250Y-54888750D01*
X246461250Y-60506250D02*
X247708750Y-61753750D01*
X241931250Y-42703750D02*
X241931250Y-53338750D01*
X26252500Y-80803750D02*
X26252500Y-85195000D01*
X26252500Y-85195000D02*
X26337500Y-85280000D01*
X57208750Y-61753750D02*
X57208750Y-66145000D01*
X57208750Y-66145000D02*
X57293750Y-66230000D01*
X47683750Y-80803750D02*
X47683750Y-85195000D01*
X47683750Y-85195000D02*
X47768750Y-85280000D01*
X95308750Y-61753750D02*
X95308750Y-66145000D01*
X95308750Y-66145000D02*
X95393750Y-66230000D01*
X101862500Y-85280000D02*
X84931250Y-85280000D01*
X102452500Y-84690000D02*
X101862500Y-85280000D01*
X102452500Y-80803750D02*
X102452500Y-84690000D01*
X100071250Y-23653750D02*
X100071250Y-28045000D01*
X100071250Y-28045000D02*
X100156250Y-28130000D01*
X104833750Y-42703750D02*
X104833750Y-47095000D01*
X104833750Y-47095000D02*
X104918750Y-47180000D01*
X119121250Y-23653750D02*
X119121250Y-28045000D01*
X119121250Y-28045000D02*
X119206250Y-28130000D01*
X123883750Y-47095000D02*
X123968750Y-47180000D01*
X123883750Y-42703750D02*
X123883750Y-47095000D01*
X138171250Y-23653750D02*
X138171250Y-28045000D01*
X138171250Y-28045000D02*
X138256250Y-28130000D01*
X152458750Y-66145000D02*
X152543750Y-66230000D01*
X152458750Y-61753750D02*
X152458750Y-66145000D01*
X157221250Y-28045000D02*
X157306250Y-28130000D01*
X157221250Y-23653750D02*
X157221250Y-28045000D01*
X171508750Y-61753750D02*
X171508750Y-62887500D01*
X171508750Y-62887500D02*
X171855000Y-62887500D01*
X171508750Y-61753750D02*
X171508750Y-66145000D01*
X171508750Y-66145000D02*
X171593750Y-66230000D01*
X176271250Y-23653750D02*
X176271250Y-28045000D01*
X176271250Y-28045000D02*
X176356250Y-28130000D01*
X181033750Y-42703750D02*
X181033750Y-47095000D01*
X181033750Y-47095000D02*
X181118750Y-47180000D01*
X209608750Y-61753750D02*
X209608750Y-66145000D01*
X209608750Y-66145000D02*
X209693750Y-66230000D01*
X207227500Y-85195000D02*
X207312500Y-85280000D01*
X207227500Y-80803750D02*
X207227500Y-85195000D01*
X214371250Y-28103000D02*
X214344250Y-28130000D01*
X214371250Y-23653750D02*
X214371250Y-28103000D01*
X219165500Y-42862500D02*
X219165500Y-47153000D01*
X219165500Y-47153000D02*
X219138500Y-47180000D01*
X228658750Y-66225250D02*
X228663500Y-66230000D01*
X228658750Y-61753750D02*
X228658750Y-66225250D01*
X228658750Y-80803750D02*
X228658750Y-85275250D01*
X228658750Y-85275250D02*
X228663500Y-85280000D01*
X23956250Y-31430000D02*
X23956250Y-32753750D01*
X195406250Y-32593750D02*
X195331250Y-32668750D01*
X254631250Y-31938750D02*
X254631250Y-31368750D01*
X100156250Y-31430000D02*
X100156250Y-32743750D01*
X254621250Y-32558750D02*
X254621250Y-31948750D01*
X81106250Y-31430000D02*
X81106250Y-32743750D01*
X100156250Y-32743750D02*
X100131250Y-32768750D01*
X119206250Y-31430000D02*
X119206250Y-32743750D01*
X176356250Y-31430000D02*
X176356250Y-32643750D01*
X138256250Y-32743750D02*
X138231250Y-32768750D01*
X43006250Y-32703750D02*
X43006250Y-31430000D01*
X62056250Y-32743750D02*
X62056250Y-31430000D01*
X62031250Y-32768750D02*
X62056250Y-32743750D01*
X157306250Y-31430000D02*
X157306250Y-32643750D01*
X266843750Y-31430000D02*
X266843750Y-32556250D01*
X176356250Y-32643750D02*
X176331250Y-32668750D01*
X214344250Y-31430000D02*
X214344250Y-32581750D01*
X214344250Y-32581750D02*
X214431250Y-32668750D01*
X23956250Y-32753750D02*
X23971250Y-32768750D01*
X195406250Y-31430000D02*
X195406250Y-32593750D01*
X254621250Y-31948750D02*
X254631250Y-31938750D01*
X266843750Y-32556250D02*
X266831250Y-32568750D01*
X119206250Y-32743750D02*
X119231250Y-32768750D01*
X42941250Y-32768750D02*
X43006250Y-32703750D01*
X138256250Y-31430000D02*
X138256250Y-32743750D01*
X157306250Y-32643750D02*
X157331250Y-32668750D01*
X81106250Y-32743750D02*
X81131250Y-32768750D01*
X200168750Y-50480000D02*
X200168750Y-51531250D01*
X219138500Y-51761500D02*
X219031250Y-51868750D01*
X85868750Y-50480000D02*
X85868750Y-51831250D01*
X162068750Y-50480000D02*
X162068750Y-51631250D01*
X104918750Y-50480000D02*
X104918750Y-51581250D01*
X47768750Y-50480000D02*
X47768750Y-51806250D01*
X85868750Y-51831250D02*
X85831250Y-51868750D01*
X162068750Y-51631250D02*
X161831250Y-51868750D01*
X26255000Y-51868750D02*
X26337500Y-51786250D01*
X266731750Y-51768250D02*
X266631250Y-51868750D01*
X219138500Y-50480000D02*
X219138500Y-51761500D01*
X47768750Y-51806250D02*
X47831250Y-51868750D01*
X143018750Y-50480000D02*
X143018750Y-51856250D01*
X66818750Y-51681250D02*
X66631250Y-51868750D01*
X66818750Y-50480000D02*
X66818750Y-51681250D01*
X26337500Y-51786250D02*
X26337500Y-50480000D01*
X200168750Y-51531250D02*
X199831250Y-51868750D01*
X104918750Y-51581250D02*
X104631250Y-51868750D01*
X123968750Y-51731250D02*
X123831250Y-51868750D01*
X181118750Y-51781250D02*
X181031250Y-51868750D01*
X143018750Y-51856250D02*
X143031250Y-51868750D01*
X266731750Y-50480000D02*
X266731750Y-51768250D01*
X219138500Y-50480000D02*
X218631250Y-50480000D01*
X123968750Y-50480000D02*
X123968750Y-51731250D01*
X218631250Y-50480000D02*
X218631250Y-50668750D01*
X181118750Y-50480000D02*
X181118750Y-51781250D01*
X190643750Y-70876250D02*
X190655000Y-70887500D01*
X133493750Y-70848750D02*
X133493750Y-69530000D01*
X57455000Y-70887500D02*
X57293750Y-70726250D01*
X95455000Y-70887500D02*
X95393750Y-70826250D01*
X114255000Y-70887500D02*
X114443750Y-70698750D01*
X133455000Y-70887500D02*
X133493750Y-70848750D01*
X266763500Y-70779000D02*
X266763500Y-69436250D01*
X76343750Y-69530000D02*
X76343750Y-70798750D01*
X228663500Y-70879000D02*
X228663500Y-69530000D01*
X152655000Y-70887500D02*
X152543750Y-70776250D01*
X190643750Y-69530000D02*
X190643750Y-70876250D01*
X228655000Y-70887500D02*
X228663500Y-70879000D01*
X209693750Y-70648750D02*
X209693750Y-69530000D01*
X152543750Y-70776250D02*
X152543750Y-69530000D01*
X114443750Y-70698750D02*
X114443750Y-69530000D01*
X57293750Y-70726250D02*
X57293750Y-69530000D01*
X209455000Y-70887500D02*
X209693750Y-70648750D01*
X76343750Y-70798750D02*
X76255000Y-70887500D01*
X171593750Y-70748750D02*
X171593750Y-69530000D01*
X260635750Y-70868250D02*
X260635750Y-69498750D01*
X31100000Y-70842500D02*
X31100000Y-69530000D01*
X95393750Y-70826250D02*
X95393750Y-69530000D01*
X31055000Y-70887500D02*
X31100000Y-70842500D01*
X171455000Y-70887500D02*
X171593750Y-70748750D01*
X266655000Y-70887500D02*
X266763500Y-70779000D01*
X45055000Y-60326750D02*
X45055000Y-71687500D01*
X40255000Y-76487500D02*
X40255000Y-77188250D01*
X40255000Y-77188250D02*
X39179500Y-78263750D01*
X40255000Y-51687500D02*
X45055000Y-56487500D01*
X45055000Y-56487500D02*
X45055000Y-58100750D01*
X38401250Y-39385500D02*
X38351250Y-39385500D01*
X40255000Y-36087500D02*
X40255000Y-39088250D01*
X40255000Y-40163750D02*
X40255000Y-51687500D01*
X40255000Y-39088250D02*
X39179500Y-40163750D01*
X36798250Y-21113750D02*
X37855000Y-22170500D01*
X43942000Y-59213750D02*
X45055000Y-60326750D01*
X37855000Y-22170500D02*
X37855000Y-33687500D01*
X259203750Y-36308750D02*
X258446250Y-36308750D01*
X37855000Y-33687500D02*
X40255000Y-36087500D01*
X45055000Y-58100750D02*
X43942000Y-59213750D01*
X45055000Y-71687500D02*
X40255000Y-76487500D01*
X39179500Y-40163750D02*
X38401250Y-39385500D01*
X39179500Y-40163750D02*
X40255000Y-40163750D01*
X38351250Y-39385500D02*
X38351250Y-37438750D01*
X71455000Y-57894500D02*
X70135750Y-59213750D01*
X61455000Y-41008000D02*
X61455000Y-52087500D01*
X59911250Y-39208750D02*
X59381250Y-39208750D01*
X60610750Y-76953500D02*
X60610750Y-78263750D01*
X71055000Y-71287500D02*
X66255000Y-76087500D01*
X64655000Y-55287500D02*
X70255000Y-55287500D01*
X60610750Y-40163750D02*
X61455000Y-41008000D01*
X71455000Y-56487500D02*
X71455000Y-57894500D01*
X61855000Y-38087500D02*
X56655000Y-32887500D01*
X60610750Y-39208750D02*
X59911250Y-39208750D01*
X60610750Y-40163750D02*
X61855000Y-38919500D01*
X66255000Y-76087500D02*
X62787000Y-76087500D01*
X70255000Y-55287500D02*
X71455000Y-56487500D01*
X56655000Y-32887500D02*
X56655000Y-21920500D01*
X62787000Y-76087500D02*
X61921000Y-76953500D01*
X71055000Y-59213750D02*
X71055000Y-71287500D01*
X61455000Y-52087500D02*
X64655000Y-55287500D01*
X59381250Y-39208750D02*
X59381250Y-37658750D01*
X70135750Y-59213750D02*
X71055000Y-59213750D01*
X61855000Y-38919500D02*
X61855000Y-38087500D01*
X60610750Y-40163750D02*
X60610750Y-39208750D01*
X56655000Y-21920500D02*
X55848250Y-21113750D01*
X61921000Y-76953500D02*
X60610750Y-76953500D01*
X80655000Y-40163750D02*
X80655000Y-52087500D01*
X89855000Y-73287500D02*
X83455000Y-73287500D01*
X89185750Y-59213750D02*
X90255000Y-60283000D01*
X83055000Y-77250750D02*
X82042000Y-78263750D01*
X83455000Y-73287500D02*
X83055000Y-73687500D01*
X90255000Y-72887500D02*
X89855000Y-73287500D01*
X90255000Y-60283000D02*
X90255000Y-72887500D01*
X80655000Y-36887500D02*
X80655000Y-39169500D01*
X74898250Y-21113750D02*
X76255000Y-21113750D01*
X79660750Y-40163750D02*
X80655000Y-40163750D01*
X89455000Y-52887500D02*
X90255000Y-53687500D01*
X90255000Y-58169500D02*
X89210750Y-59213750D01*
X90255000Y-53687500D02*
X90255000Y-58169500D01*
X78441250Y-37688750D02*
X78441250Y-38944250D01*
X83055000Y-73687500D02*
X83055000Y-77250750D01*
X76255000Y-21113750D02*
X76255000Y-32487500D01*
X76255000Y-32487500D02*
X80655000Y-36887500D01*
X78441250Y-38944250D02*
X79660750Y-40163750D01*
X81455000Y-52887500D02*
X89455000Y-52887500D01*
X80655000Y-39169500D02*
X79660750Y-40163750D01*
X89210750Y-59213750D02*
X89185750Y-59213750D01*
X80655000Y-52087500D02*
X81455000Y-52887500D01*
X109855000Y-73687500D02*
X115855000Y-73687500D01*
X95055000Y-22220500D02*
X95055000Y-33687500D01*
X99855000Y-39019500D02*
X98710750Y-40163750D01*
X100255000Y-54087500D02*
X108655000Y-54087500D01*
X116255000Y-74087500D02*
X116255000Y-77388250D01*
X99855000Y-34887500D02*
X99855000Y-39019500D01*
X108655000Y-54087500D02*
X109055000Y-54487500D01*
X99455000Y-34487500D02*
X99855000Y-34887500D01*
X116255000Y-77388250D02*
X115379500Y-78263750D01*
X97421250Y-39378750D02*
X97421250Y-37728750D01*
X93948250Y-21113750D02*
X95055000Y-22220500D01*
X99855000Y-41308000D02*
X99855000Y-53687500D01*
X95855000Y-34487500D02*
X99455000Y-34487500D01*
X98206250Y-40163750D02*
X97421250Y-39378750D01*
X108235750Y-59213750D02*
X109455000Y-59213750D01*
X99855000Y-53687500D02*
X100255000Y-54087500D01*
X109455000Y-73287500D02*
X109855000Y-73687500D01*
X109055000Y-58087500D02*
X108655000Y-58087500D01*
X95055000Y-33687500D02*
X95855000Y-34487500D01*
X109055000Y-54487500D02*
X109055000Y-58087500D01*
X109455000Y-59213750D02*
X109455000Y-73287500D01*
X98710750Y-40163750D02*
X99855000Y-41308000D01*
X115855000Y-73687500D02*
X116255000Y-74087500D01*
X98710750Y-40163750D02*
X98206250Y-40163750D01*
X116571250Y-37658750D02*
X116541250Y-37688750D01*
X118655000Y-37687500D02*
X118655000Y-39269500D01*
X114255000Y-33287500D02*
X118655000Y-37687500D01*
X113455000Y-21113750D02*
X113455000Y-21287500D01*
X116541250Y-37688750D02*
X116541250Y-40148750D01*
X118655000Y-39269500D02*
X117760750Y-40163750D01*
X113455000Y-21287500D02*
X114255000Y-22087500D01*
X116556250Y-40163750D02*
X117760750Y-40163750D01*
X112998250Y-21113750D02*
X113455000Y-21113750D01*
X114255000Y-22087500D02*
X114255000Y-33287500D01*
X116541250Y-40148750D02*
X116556250Y-40163750D01*
X137855000Y-37687500D02*
X137855000Y-39119500D01*
X147055000Y-54487500D02*
X147455000Y-54887500D01*
X136810750Y-40163750D02*
X135691250Y-39044250D01*
X137855000Y-41208000D02*
X137855000Y-54087500D01*
X135691250Y-39044250D02*
X135691250Y-37598750D01*
X137855000Y-54087500D02*
X138255000Y-54487500D01*
X133055000Y-22120500D02*
X133055000Y-32887500D01*
X147455000Y-58094500D02*
X146335750Y-59213750D01*
X137855000Y-39119500D02*
X136810750Y-40163750D01*
X132048250Y-21113750D02*
X133055000Y-22120500D01*
X136810750Y-40163750D02*
X137855000Y-41208000D01*
X133055000Y-32887500D02*
X137855000Y-37687500D01*
X138255000Y-54487500D02*
X147055000Y-54487500D01*
X135691250Y-37598750D02*
X135521250Y-37598750D01*
X147455000Y-54887500D02*
X147455000Y-58094500D01*
X152255000Y-34887500D02*
X152655000Y-35287500D01*
X163855000Y-77413250D02*
X163004500Y-78263750D01*
X151098250Y-21113750D02*
X151098250Y-22613750D01*
X165855000Y-54887500D02*
X166255000Y-55287500D01*
X166655000Y-72887500D02*
X163855000Y-75687500D01*
X156655000Y-35287500D02*
X157055000Y-35687500D01*
X157055000Y-40087500D02*
X156978750Y-40163750D01*
X166255000Y-58344500D02*
X165385750Y-59213750D01*
X151372000Y-22887500D02*
X152255000Y-22887500D01*
X152255000Y-22887500D02*
X152255000Y-34887500D01*
X155860750Y-40163750D02*
X157055000Y-41358000D01*
X163855000Y-75687500D02*
X163855000Y-77413250D01*
X165385750Y-59213750D02*
X166655000Y-60483000D01*
X151098250Y-22613750D02*
X151372000Y-22887500D01*
X157055000Y-35687500D02*
X157055000Y-40087500D01*
X165385750Y-59213750D02*
X166255000Y-59213750D01*
X166255000Y-55287500D02*
X166255000Y-58344500D01*
X157055000Y-54087500D02*
X157855000Y-54887500D01*
X166655000Y-60483000D02*
X166655000Y-72887500D01*
X156978750Y-40163750D02*
X155860750Y-40163750D01*
X152655000Y-35287500D02*
X156655000Y-35287500D01*
X157055000Y-41358000D02*
X157055000Y-54087500D01*
X157855000Y-54887500D02*
X165855000Y-54887500D01*
X174910750Y-40487500D02*
X174910750Y-40163750D01*
X174910750Y-36743250D02*
X174910750Y-40487500D01*
X171455000Y-21113750D02*
X171455000Y-33287500D01*
X171455000Y-33287500D02*
X174910750Y-36743250D01*
X170148250Y-21113750D02*
X171455000Y-21113750D01*
X203485750Y-59213750D02*
X204655000Y-60383000D01*
X193960750Y-38794979D02*
X193960750Y-40163750D01*
X190255000Y-37287500D02*
X191256729Y-38289229D01*
X200255000Y-74887500D02*
X199855000Y-75287500D01*
X190255000Y-22170500D02*
X190255000Y-37287500D01*
X189198250Y-21113750D02*
X190255000Y-22170500D01*
X191256729Y-38289229D02*
X193455000Y-38289229D01*
X193455000Y-38289229D02*
X193960750Y-38794979D01*
X204655000Y-60383000D02*
X204655000Y-74487500D01*
X204255000Y-74887500D02*
X200255000Y-74887500D01*
X204655000Y-74487500D02*
X204255000Y-74887500D01*
X199855000Y-75287500D02*
X199855000Y-77132000D01*
X199855000Y-77132000D02*
X198723250Y-78263750D01*
X222535750Y-59213750D02*
X223758500Y-57991000D01*
X222510750Y-59213750D02*
X223855000Y-60558000D01*
X214655000Y-55287500D02*
X214255000Y-54887500D01*
X214255000Y-37287500D02*
X214255000Y-38919500D01*
X222535750Y-59213750D02*
X222510750Y-59213750D01*
X209455000Y-32487500D02*
X214255000Y-37287500D01*
X222535750Y-59287500D02*
X223855000Y-59287500D01*
X222655000Y-55287500D02*
X214655000Y-55287500D01*
X222535750Y-59213750D02*
X222535750Y-59287500D01*
X214255000Y-41408000D02*
X213010750Y-40163750D01*
X209455000Y-22320500D02*
X209455000Y-32487500D01*
X223855000Y-59287500D02*
X223855000Y-56487500D01*
X223855000Y-72887500D02*
X220154500Y-76588000D01*
X223855000Y-56487500D02*
X222655000Y-55287500D01*
X214255000Y-38919500D02*
X213010750Y-40163750D01*
X220154500Y-76588000D02*
X220154500Y-78263750D01*
X208248250Y-21113750D02*
X209455000Y-22320500D01*
X214255000Y-54887500D02*
X214255000Y-41408000D01*
X223855000Y-60558000D02*
X223855000Y-72887500D01*
X242655000Y-60283000D02*
X242655000Y-77194500D01*
X241585750Y-59213750D02*
X242655000Y-60283000D01*
X227298250Y-21113750D02*
X228655000Y-22470500D01*
X242655000Y-77194500D02*
X241585750Y-78263750D01*
X228655000Y-34887500D02*
X232092500Y-38325000D01*
X232092500Y-38325000D02*
X232092500Y-40322500D01*
X228655000Y-22470500D02*
X228655000Y-34887500D01*
X280954511Y-38894989D02*
X279685750Y-40163750D01*
X279685750Y-40163750D02*
X280923750Y-41401750D01*
X280923750Y-41401750D02*
X280923750Y-57975750D01*
X280923750Y-60451750D02*
X280923750Y-77025750D01*
X280923750Y-77025750D02*
X279685750Y-78263750D01*
X279685750Y-59213750D02*
X280923750Y-60451750D01*
X280923750Y-57975750D02*
X279685750Y-59213750D01*
X280954511Y-22427511D02*
X280954511Y-38894989D01*
X279622000Y-21095000D02*
X280954511Y-22427511D01*
X179455000Y-86887500D02*
X180181250Y-86161250D01*
X180181250Y-86161250D02*
X180181250Y-85280000D01*
X150655000Y-86887500D02*
X179455000Y-86887500D01*
X150077500Y-86310000D02*
X150655000Y-86887500D01*
X150077500Y-80803750D02*
X150077500Y-86310000D01*
X142655000Y-42487500D02*
X143018750Y-42851250D01*
X142655000Y-42703750D02*
X142655000Y-42487500D01*
X143018750Y-42851250D02*
X143018750Y-47180000D01*
X142933750Y-42703750D02*
X142655000Y-42703750D01*
G04 #@! TA.AperFunction,Conductor*
G36*
X264748371Y-17161752D02*
G01*
X264794864Y-17215408D01*
X264806250Y-17267750D01*
X264806250Y-24729543D01*
X264803000Y-24730250D01*
X263803000Y-24730250D01*
X263734879Y-24710248D01*
X263688386Y-24656592D01*
X263677000Y-24604250D01*
X263677000Y-24348250D01*
X263697002Y-24280129D01*
X263750658Y-24233636D01*
X263803000Y-24222250D01*
X264402885Y-24222250D01*
X264418124Y-24217775D01*
X264419329Y-24216385D01*
X264421000Y-24208702D01*
X264421000Y-22817021D01*
X264417027Y-22803490D01*
X264410925Y-22802613D01*
X264258864Y-22858560D01*
X264247451Y-22864127D01*
X264092892Y-22959958D01*
X264082826Y-22967710D01*
X263950697Y-23092658D01*
X263942395Y-23102276D01*
X263838092Y-23251237D01*
X263831893Y-23262328D01*
X263816951Y-23296857D01*
X263771539Y-23351431D01*
X263703832Y-23372790D01*
X263650064Y-23361921D01*
X263594864Y-23337344D01*
X263582367Y-23333283D01*
X263424009Y-23299622D01*
X263410949Y-23298250D01*
X263249051Y-23298250D01*
X263235991Y-23299622D01*
X263077633Y-23333283D01*
X263065136Y-23337344D01*
X262978608Y-23375869D01*
X262908241Y-23385304D01*
X262843943Y-23355198D01*
X262838262Y-23349858D01*
X262354897Y-22866492D01*
X262347363Y-22858213D01*
X262343250Y-22851732D01*
X262293598Y-22805106D01*
X262290757Y-22802352D01*
X262271020Y-22782615D01*
X262267823Y-22780135D01*
X262258801Y-22772430D01*
X262254647Y-22768529D01*
X262226571Y-22742164D01*
X262219625Y-22738345D01*
X262219622Y-22738343D01*
X262208816Y-22732402D01*
X262192297Y-22721551D01*
X262191833Y-22721191D01*
X262176291Y-22709136D01*
X262169022Y-22705991D01*
X262169018Y-22705988D01*
X262135713Y-22691576D01*
X262125063Y-22686359D01*
X262086310Y-22665055D01*
X262066687Y-22660017D01*
X262047984Y-22653613D01*
X262036670Y-22648717D01*
X262036669Y-22648717D01*
X262029395Y-22645569D01*
X262021572Y-22644330D01*
X262021562Y-22644327D01*
X261985726Y-22638651D01*
X261974106Y-22636245D01*
X261938961Y-22627222D01*
X261938960Y-22627222D01*
X261931280Y-22625250D01*
X261911026Y-22625250D01*
X261891315Y-22623699D01*
X261879136Y-22621770D01*
X261871307Y-22620530D01*
X261842036Y-22623297D01*
X261827289Y-22624691D01*
X261815431Y-22625250D01*
X258890018Y-22625250D01*
X258878835Y-22624723D01*
X258871342Y-22623048D01*
X258863416Y-22623297D01*
X258863415Y-22623297D01*
X258803252Y-22625188D01*
X258799294Y-22625250D01*
X258771394Y-22625250D01*
X258767404Y-22625754D01*
X258755570Y-22626686D01*
X258711361Y-22628076D01*
X258703745Y-22630289D01*
X258703743Y-22630289D01*
X258691902Y-22633729D01*
X258672543Y-22637738D01*
X258671233Y-22637904D01*
X258652453Y-22640276D01*
X258645087Y-22643192D01*
X258645081Y-22643194D01*
X258611348Y-22656550D01*
X258600118Y-22660395D01*
X258584078Y-22665055D01*
X258557657Y-22672731D01*
X258550834Y-22676766D01*
X258540216Y-22683045D01*
X258522463Y-22691742D01*
X258514818Y-22694769D01*
X258503633Y-22699198D01*
X258489955Y-22709136D01*
X258467862Y-22725187D01*
X258457945Y-22731701D01*
X258419888Y-22754208D01*
X258405567Y-22768529D01*
X258390534Y-22781369D01*
X258374143Y-22793278D01*
X258355665Y-22815614D01*
X258345962Y-22827343D01*
X258337972Y-22836124D01*
X257837740Y-23336355D01*
X257829442Y-23343900D01*
X257827271Y-23345278D01*
X257763176Y-23372748D01*
X257696930Y-23362751D01*
X257639859Y-23337341D01*
X257627371Y-23333283D01*
X257469009Y-23299622D01*
X257455949Y-23298250D01*
X257294051Y-23298250D01*
X257280991Y-23299622D01*
X257122633Y-23333283D01*
X257110136Y-23337344D01*
X257050899Y-23363718D01*
X256980532Y-23373153D01*
X256916234Y-23343047D01*
X256889447Y-23309698D01*
X256818813Y-23182271D01*
X256811562Y-23171838D01*
X256693215Y-23033759D01*
X256684024Y-23025006D01*
X256540320Y-22913539D01*
X256529560Y-22906815D01*
X256366375Y-22826518D01*
X256354481Y-22822095D01*
X256296530Y-22806999D01*
X256282436Y-22807433D01*
X256279000Y-22815614D01*
X256279000Y-24204135D01*
X256283475Y-24219374D01*
X256284865Y-24220579D01*
X256292548Y-24222250D01*
X256897000Y-24222250D01*
X256965121Y-24242252D01*
X257011614Y-24295908D01*
X257023000Y-24348250D01*
X257023000Y-24604250D01*
X257002998Y-24672371D01*
X256949342Y-24718864D01*
X256897000Y-24730250D01*
X255897000Y-24730250D01*
X255846250Y-24715349D01*
X255846250Y-22405479D01*
X256279000Y-22405479D01*
X256282973Y-22419010D01*
X256289075Y-22419887D01*
X256441136Y-22363940D01*
X256452549Y-22358373D01*
X256607108Y-22262542D01*
X256617174Y-22254790D01*
X256749303Y-22129842D01*
X256757605Y-22120224D01*
X256861908Y-21971263D01*
X256868108Y-21960169D01*
X256940332Y-21793270D01*
X256944171Y-21781167D01*
X256981675Y-21601650D01*
X256982915Y-21592098D01*
X256983000Y-21588866D01*
X256983000Y-21541697D01*
X263717000Y-21541697D01*
X263717323Y-21548072D01*
X263731082Y-21683527D01*
X263733636Y-21695967D01*
X263788016Y-21869494D01*
X263793025Y-21881182D01*
X263881187Y-22040229D01*
X263888438Y-22050662D01*
X264006785Y-22188741D01*
X264015976Y-22197494D01*
X264159680Y-22308961D01*
X264170440Y-22315685D01*
X264333625Y-22395982D01*
X264345519Y-22400405D01*
X264403470Y-22415501D01*
X264417564Y-22415067D01*
X264421000Y-22406886D01*
X264421000Y-21368365D01*
X264416525Y-21353126D01*
X264415135Y-21351921D01*
X264407452Y-21350250D01*
X263735115Y-21350250D01*
X263719876Y-21354725D01*
X263718671Y-21356115D01*
X263717000Y-21363798D01*
X263717000Y-21541697D01*
X256983000Y-21541697D01*
X256983000Y-21368365D01*
X256978525Y-21353126D01*
X256977135Y-21351921D01*
X256969452Y-21350250D01*
X256297115Y-21350250D01*
X256281876Y-21354725D01*
X256280671Y-21356115D01*
X256279000Y-21363798D01*
X256279000Y-22405479D01*
X255846250Y-22405479D01*
X255846250Y-20824135D01*
X256279000Y-20824135D01*
X256283475Y-20839374D01*
X256284865Y-20840579D01*
X256292548Y-20842250D01*
X256964885Y-20842250D01*
X256980124Y-20837775D01*
X256981329Y-20836385D01*
X256983000Y-20828702D01*
X256983000Y-20824135D01*
X263717000Y-20824135D01*
X263721475Y-20839374D01*
X263722865Y-20840579D01*
X263730548Y-20842250D01*
X264402885Y-20842250D01*
X264418124Y-20837775D01*
X264419329Y-20836385D01*
X264421000Y-20828702D01*
X264421000Y-19787021D01*
X264417027Y-19773490D01*
X264410925Y-19772613D01*
X264258864Y-19828560D01*
X264247451Y-19834127D01*
X264092892Y-19929958D01*
X264082826Y-19937710D01*
X263950697Y-20062658D01*
X263942395Y-20072276D01*
X263838092Y-20221237D01*
X263831892Y-20232331D01*
X263759668Y-20399230D01*
X263755829Y-20411333D01*
X263718325Y-20590850D01*
X263717085Y-20600402D01*
X263717000Y-20603634D01*
X263717000Y-20824135D01*
X256983000Y-20824135D01*
X256983000Y-20650803D01*
X256982677Y-20644428D01*
X256968918Y-20508973D01*
X256966364Y-20496533D01*
X256911984Y-20323006D01*
X256906975Y-20311318D01*
X256818813Y-20152271D01*
X256811562Y-20141838D01*
X256693215Y-20003759D01*
X256684024Y-19995006D01*
X256540320Y-19883539D01*
X256529560Y-19876815D01*
X256366375Y-19796518D01*
X256354481Y-19792095D01*
X256296530Y-19776999D01*
X256282436Y-19777433D01*
X256279000Y-19785614D01*
X256279000Y-20824135D01*
X255846250Y-20824135D01*
X255846250Y-17267750D01*
X255866252Y-17199629D01*
X255919908Y-17153136D01*
X255972250Y-17141750D01*
X264680250Y-17141750D01*
X264748371Y-17161752D01*
G37*
G04 #@! TD.AperFunction*
M02*
