G04 #@! TF.GenerationSoftware,KiCad,Pcbnew,(6.0.1)*
G04 #@! TF.CreationDate,2022-02-08T20:19:43+09:00*
G04 #@! TF.ProjectId,PCB_design_try,5043425f-6465-4736-9967-6e5f7472792e,rev?*
G04 #@! TF.SameCoordinates,Original*
G04 #@! TF.FileFunction,Legend,Top*
G04 #@! TF.FilePolarity,Positive*
%FSLAX46Y46*%
G04 Gerber Fmt 4.6, Leading zero omitted, Abs format (unit mm)*
G04 Created by KiCad (PCBNEW (6.0.1)) date 2022-02-08 20:19:43*
%MOMM*%
%LPD*%
G01*
G04 APERTURE LIST*
G04 Aperture macros list*
%AMRoundRect*
0 Rectangle with rounded corners*
0 $1 Rounding radius*
0 $2 $3 $4 $5 $6 $7 $8 $9 X,Y pos of 4 corners*
0 Add a 4 corners polygon primitive as box body*
4,1,4,$2,$3,$4,$5,$6,$7,$8,$9,$2,$3,0*
0 Add four circle primitives for the rounded corners*
1,1,$1+$1,$2,$3*
1,1,$1+$1,$4,$5*
1,1,$1+$1,$6,$7*
1,1,$1+$1,$8,$9*
0 Add four rect primitives between the rounded corners*
20,1,$1+$1,$2,$3,$4,$5,0*
20,1,$1+$1,$4,$5,$6,$7,0*
20,1,$1+$1,$6,$7,$8,$9,0*
20,1,$1+$1,$8,$9,$2,$3,0*%
G04 Aperture macros list end*
%ADD10C,0.150000*%
%ADD11C,0.120000*%
%ADD12C,3.000000*%
%ADD13C,3.987800*%
%ADD14C,1.750000*%
%ADD15C,3.048000*%
%ADD16C,0.650000*%
%ADD17O,0.900000X1.700000*%
%ADD18O,0.900000X2.400000*%
%ADD19R,1.000000X1.700000*%
%ADD20RoundRect,0.250000X-0.550000X-0.550000X0.550000X-0.550000X0.550000X0.550000X-0.550000X0.550000X0*%
%ADD21C,1.600000*%
%ADD22C,2.000000*%
%ADD23R,2.500000X3.200000*%
G04 APERTURE END LIST*
D10*
X238421011Y-25553273D02*
X238468630Y-25410416D01*
X238468630Y-25172321D01*
X238421011Y-25077083D01*
X238373392Y-25029464D01*
X238278154Y-24981845D01*
X238182916Y-24981845D01*
X238087678Y-25029464D01*
X238040059Y-25077083D01*
X237992440Y-25172321D01*
X237944821Y-25362797D01*
X237897202Y-25458035D01*
X237849583Y-25505654D01*
X237754345Y-25553273D01*
X237659107Y-25553273D01*
X237563869Y-25505654D01*
X237516250Y-25458035D01*
X237468630Y-25362797D01*
X237468630Y-25124702D01*
X237516250Y-24981845D01*
X237468630Y-24648511D02*
X238468630Y-24410416D01*
X237754345Y-24219940D01*
X238468630Y-24029464D01*
X237468630Y-23791369D01*
X237468630Y-22934226D02*
X237468630Y-23410416D01*
X237944821Y-23458035D01*
X237897202Y-23410416D01*
X237849583Y-23315178D01*
X237849583Y-23077083D01*
X237897202Y-22981845D01*
X237944821Y-22934226D01*
X238040059Y-22886607D01*
X238278154Y-22886607D01*
X238373392Y-22934226D01*
X238421011Y-22981845D01*
X238468630Y-23077083D01*
X238468630Y-23315178D01*
X238421011Y-23410416D01*
X238373392Y-23458035D01*
X237468630Y-22267559D02*
X237468630Y-22172321D01*
X237516250Y-22077083D01*
X237563869Y-22029464D01*
X237659107Y-21981845D01*
X237849583Y-21934226D01*
X238087678Y-21934226D01*
X238278154Y-21981845D01*
X238373392Y-22029464D01*
X238421011Y-22077083D01*
X238468630Y-22172321D01*
X238468630Y-22267559D01*
X238421011Y-22362797D01*
X238373392Y-22410416D01*
X238278154Y-22458035D01*
X238087678Y-22505654D01*
X237849583Y-22505654D01*
X237659107Y-22458035D01*
X237563869Y-22410416D01*
X237516250Y-22362797D01*
X237468630Y-22267559D01*
X234292916Y-28006130D02*
X234292916Y-28720416D01*
X234245297Y-28863273D01*
X234150059Y-28958511D01*
X234007202Y-29006130D01*
X233911964Y-29006130D01*
X235292916Y-29006130D02*
X234721488Y-29006130D01*
X235007202Y-29006130D02*
X235007202Y-28006130D01*
X234911964Y-28148988D01*
X234816726Y-28244226D01*
X234721488Y-28291845D01*
D11*
X231966250Y-22043750D02*
X231516250Y-22493750D01*
X231516250Y-22493750D02*
X231516250Y-24993750D01*
X231966250Y-25443750D02*
X231516250Y-24993750D01*
X235266250Y-26493750D02*
X233266250Y-26493750D01*
X235266250Y-20993750D02*
X233266250Y-20993750D01*
X236566250Y-22043750D02*
X237016250Y-22493750D01*
X237016250Y-22493750D02*
X237016250Y-24993750D01*
X236566250Y-25443750D02*
X237016250Y-24993750D01*
D10*
X279002500Y-32570000D02*
X279002500Y-31776250D01*
X278208750Y-32570000D02*
X279002500Y-32570000D01*
X267890000Y-32570000D02*
X268683750Y-32570000D01*
X267890000Y-31776250D02*
X267890000Y-32570000D01*
X279002500Y-21457500D02*
X278208750Y-21457500D01*
X279002500Y-22251250D02*
X279002500Y-21457500D01*
X267890000Y-21457500D02*
X268683750Y-21457500D01*
X267890000Y-22251250D02*
X267890000Y-21457500D01*
%LPC*%
D12*
X112215000Y-78228750D03*
D13*
X109675000Y-83308750D03*
D12*
X105865000Y-80768750D03*
D14*
X104595000Y-83308750D03*
X114755000Y-83308750D03*
D15*
X121613000Y-76323750D03*
X97737000Y-76323750D03*
D13*
X121613000Y-91563750D03*
X97737000Y-91563750D03*
D16*
X257375000Y-25456250D03*
X258225000Y-25456250D03*
X259075000Y-25456250D03*
X259925000Y-25456250D03*
X260775000Y-25456250D03*
X261625000Y-25456250D03*
X262475000Y-25456250D03*
X263325000Y-25456250D03*
X263330000Y-24131250D03*
X262480000Y-24131250D03*
X261630000Y-24131250D03*
X260780000Y-24131250D03*
X259930000Y-24131250D03*
X259080000Y-24131250D03*
X258230000Y-24131250D03*
X257375000Y-24131250D03*
D17*
X264675000Y-21096250D03*
D18*
X264675000Y-24476250D03*
X256025000Y-24476250D03*
D17*
X256025000Y-21096250D03*
D19*
X236166250Y-20593750D03*
X236166250Y-26893750D03*
X232366250Y-26893750D03*
X232366250Y-20593750D03*
D20*
X231026250Y-30553750D03*
D21*
X234626250Y-30553750D03*
X238226250Y-30553750D03*
D12*
X159840000Y-78228750D03*
D13*
X157300000Y-83308750D03*
D12*
X153490000Y-80768750D03*
D14*
X152220000Y-83308750D03*
X162380000Y-83308750D03*
D15*
X169238000Y-76323750D03*
X145362000Y-76323750D03*
D13*
X169238000Y-91563750D03*
X145362000Y-91563750D03*
D12*
X147933750Y-21078750D03*
D13*
X145393750Y-26158750D03*
D12*
X141583750Y-23618750D03*
D14*
X140313750Y-26158750D03*
X150473750Y-26158750D03*
D22*
X270946250Y-34513750D03*
X273446250Y-34513750D03*
X275946250Y-34513750D03*
D23*
X267846250Y-27013750D03*
X279046250Y-27013750D03*
D22*
X270946250Y-20013750D03*
X275946250Y-20013750D03*
D12*
X257471250Y-78263750D03*
D13*
X254931250Y-83343750D03*
D12*
X251121250Y-80803750D03*
D14*
X249851250Y-83343750D03*
X260011250Y-83343750D03*
D12*
X257471250Y-59178750D03*
D13*
X254931250Y-64258750D03*
D12*
X251121250Y-61718750D03*
D14*
X249851250Y-64258750D03*
X260011250Y-64258750D03*
X255248750Y-45208750D03*
X245088750Y-45208750D03*
D12*
X246358750Y-42668750D03*
D13*
X250168750Y-45208750D03*
D12*
X252708750Y-40128750D03*
X250327500Y-21078750D03*
D13*
X247787500Y-26158750D03*
D12*
X243977500Y-23618750D03*
D14*
X242707500Y-26158750D03*
X252867500Y-26158750D03*
D12*
X228896250Y-40128750D03*
D13*
X226356250Y-45208750D03*
D12*
X222546250Y-42668750D03*
D14*
X221276250Y-45208750D03*
X231436250Y-45208750D03*
D12*
X216990000Y-78228750D03*
D13*
X214450000Y-83308750D03*
D12*
X210640000Y-80768750D03*
D14*
X209370000Y-83308750D03*
X219530000Y-83308750D03*
D12*
X190796250Y-40128750D03*
D13*
X188256250Y-45208750D03*
D12*
X184446250Y-42668750D03*
D14*
X183176250Y-45208750D03*
X193336250Y-45208750D03*
D12*
X166983750Y-21078750D03*
D13*
X164443750Y-26158750D03*
D12*
X160633750Y-23618750D03*
D14*
X159363750Y-26158750D03*
X169523750Y-26158750D03*
D12*
X109833750Y-21078750D03*
D13*
X107293750Y-26158750D03*
D12*
X103483750Y-23618750D03*
D14*
X102213750Y-26158750D03*
X112373750Y-26158750D03*
D12*
X90783750Y-21078750D03*
D13*
X88243750Y-26158750D03*
D12*
X84433750Y-23618750D03*
D14*
X83163750Y-26158750D03*
X93323750Y-26158750D03*
D12*
X78740000Y-78263750D03*
D13*
X76200000Y-83343750D03*
D12*
X72390000Y-80803750D03*
D14*
X71120000Y-83343750D03*
X81280000Y-83343750D03*
D12*
X52546250Y-21113750D03*
D13*
X50006250Y-26193750D03*
D12*
X46196250Y-23653750D03*
D14*
X44926250Y-26193750D03*
X55086250Y-26193750D03*
D12*
X35877500Y-40163750D03*
D14*
X38417500Y-45243750D03*
D13*
X33337500Y-45243750D03*
D12*
X29527500Y-42703750D03*
D14*
X28257500Y-45243750D03*
X43180000Y-64293750D03*
X33020000Y-64293750D03*
D13*
X38100000Y-64293750D03*
D12*
X40640000Y-59213750D03*
X34290000Y-61753750D03*
D14*
X183811250Y-64258750D03*
D13*
X178731250Y-64258750D03*
D12*
X181271250Y-59178750D03*
X174921250Y-61718750D03*
D14*
X173651250Y-64258750D03*
D12*
X117771250Y-61718750D03*
D14*
X126661250Y-64258750D03*
D12*
X124121250Y-59178750D03*
D13*
X121581250Y-64258750D03*
D14*
X116501250Y-64258750D03*
X279061250Y-45243750D03*
D13*
X273981250Y-45243750D03*
D14*
X268901250Y-45243750D03*
D12*
X276521250Y-40163750D03*
X270171250Y-42703750D03*
X50958750Y-80803750D03*
D13*
X54768750Y-83343750D03*
D12*
X57308750Y-78263750D03*
D14*
X59848750Y-83343750D03*
X49688750Y-83343750D03*
X28257500Y-83343750D03*
D13*
X33337500Y-83343750D03*
D14*
X38417500Y-83343750D03*
D12*
X29527500Y-80803750D03*
X35877500Y-78263750D03*
D14*
X36036250Y-26193750D03*
D13*
X30956250Y-26193750D03*
D14*
X25876250Y-26193750D03*
D12*
X33496250Y-21113750D03*
X27146250Y-23653750D03*
X195558750Y-78228750D03*
D13*
X193018750Y-83308750D03*
D12*
X189208750Y-80768750D03*
D14*
X198098750Y-83308750D03*
X187938750Y-83308750D03*
D12*
X270171250Y-61718750D03*
D13*
X273981250Y-64258750D03*
D14*
X268901250Y-64258750D03*
X279061250Y-64258750D03*
D12*
X276521250Y-59178750D03*
D14*
X268901250Y-26193750D03*
X279061250Y-26193750D03*
D13*
X273981250Y-26193750D03*
D12*
X276521250Y-21113750D03*
X270171250Y-23653750D03*
X60483750Y-61753750D03*
X66833750Y-59213750D03*
D14*
X59213750Y-64293750D03*
D13*
X64293750Y-64293750D03*
D14*
X69373750Y-64293750D03*
D12*
X85883750Y-59213750D03*
D13*
X83343750Y-64293750D03*
D14*
X78263750Y-64293750D03*
X88423750Y-64293750D03*
D12*
X79533750Y-61753750D03*
D14*
X230801250Y-83308750D03*
D12*
X232071250Y-80768750D03*
D14*
X240961250Y-83308750D03*
D13*
X235881250Y-83308750D03*
D12*
X238421250Y-78228750D03*
X128883750Y-21078750D03*
D14*
X121263750Y-26158750D03*
X131423750Y-26158750D03*
D13*
X126343750Y-26158750D03*
D12*
X122533750Y-23618750D03*
X89196250Y-42668750D03*
D14*
X98086250Y-45208750D03*
D13*
X93006250Y-45208750D03*
D12*
X95546250Y-40128750D03*
D14*
X87926250Y-45208750D03*
X68738750Y-45243750D03*
D12*
X70008750Y-42703750D03*
D14*
X78898750Y-45243750D03*
D13*
X73818750Y-45243750D03*
D12*
X76358750Y-40163750D03*
X203496250Y-42668750D03*
X209846250Y-40128750D03*
D14*
X202226250Y-45208750D03*
D13*
X207306250Y-45208750D03*
D14*
X212386250Y-45208750D03*
D12*
X213021250Y-61718750D03*
D14*
X211751250Y-64258750D03*
D12*
X219371250Y-59178750D03*
D14*
X221911250Y-64258750D03*
D13*
X216831250Y-64258750D03*
D14*
X145711250Y-64258750D03*
D13*
X140631250Y-64258750D03*
D12*
X136821250Y-61718750D03*
D14*
X135551250Y-64258750D03*
D12*
X143171250Y-59178750D03*
D14*
X188573750Y-26158750D03*
X178413750Y-26158750D03*
D13*
X183493750Y-26158750D03*
D12*
X179683750Y-23618750D03*
X186033750Y-21078750D03*
D14*
X207623750Y-26158750D03*
D12*
X205083750Y-21078750D03*
D13*
X202543750Y-26158750D03*
D14*
X197463750Y-26158750D03*
D12*
X198733750Y-23618750D03*
X238421250Y-59178750D03*
D14*
X240961250Y-64258750D03*
D13*
X235881250Y-64258750D03*
D14*
X230801250Y-64258750D03*
D12*
X232071250Y-61718750D03*
D13*
X273981250Y-83343750D03*
D14*
X279061250Y-83343750D03*
D12*
X276521250Y-78263750D03*
X270171250Y-80803750D03*
D14*
X268901250Y-83343750D03*
D12*
X50958750Y-42703750D03*
D14*
X49688750Y-45243750D03*
X59848750Y-45243750D03*
D12*
X57308750Y-40163750D03*
D13*
X54768750Y-45243750D03*
D14*
X226673750Y-26158750D03*
D12*
X217783750Y-23618750D03*
X224133750Y-21078750D03*
D13*
X221593750Y-26158750D03*
D14*
X216513750Y-26158750D03*
X145076250Y-45208750D03*
D12*
X152696250Y-40128750D03*
D14*
X155236250Y-45208750D03*
D13*
X150156250Y-45208750D03*
D12*
X146346250Y-42668750D03*
X127296250Y-42668750D03*
D14*
X126026250Y-45208750D03*
D13*
X131106250Y-45208750D03*
D14*
X136186250Y-45208750D03*
D12*
X133646250Y-40128750D03*
D13*
X197781250Y-64258750D03*
D14*
X192701250Y-64258750D03*
X202861250Y-64258750D03*
D12*
X193971250Y-61718750D03*
X200321250Y-59178750D03*
D14*
X164126250Y-45208750D03*
D13*
X169206250Y-45208750D03*
D12*
X171746250Y-40128750D03*
X165396250Y-42668750D03*
D14*
X174286250Y-45208750D03*
X74136250Y-26193750D03*
D12*
X65246250Y-23653750D03*
D13*
X69056250Y-26193750D03*
D12*
X71596250Y-21113750D03*
D14*
X63976250Y-26193750D03*
D12*
X105071250Y-59178750D03*
X98721250Y-61718750D03*
D14*
X107611250Y-64258750D03*
X97451250Y-64258750D03*
D13*
X102531250Y-64258750D03*
D12*
X108246250Y-42668750D03*
D13*
X112056250Y-45208750D03*
D14*
X117136250Y-45208750D03*
D12*
X114596250Y-40128750D03*
D14*
X106976250Y-45208750D03*
D13*
X159681250Y-64258750D03*
D12*
X155871250Y-61718750D03*
X162221250Y-59178750D03*
D14*
X154601250Y-64258750D03*
X164761250Y-64258750D03*
M02*
