M48
; DRILL file {KiCad (6.0.1)} date Tue Feb  8 20:20:10 2022
; FORMAT={-:-/ absolute / metric / decimal}
; #@! TF.CreationDate,2022-02-08T20:20:10+09:00
; #@! TF.GenerationSoftware,Kicad,Pcbnew,(6.0.1)
; #@! TF.FileFunction,NonPlated,1,2,NPTH
FMAT,2
METRIC
; #@! TA.AperFunction,NonPlated,NPTH,ComponentDrill
T1C1.750
; #@! TA.AperFunction,NonPlated,NPTH,ComponentDrill
T2C3.000
; #@! TA.AperFunction,NonPlated,NPTH,ComponentDrill
T3C3.048
; #@! TA.AperFunction,NonPlated,NPTH,ComponentDrill
T4C3.988
%
G90
G05
T1
X25.876Y-26.194
X28.258Y-45.244
X28.258Y-83.344
X33.02Y-64.294
X36.036Y-26.194
X38.417Y-45.244
X38.417Y-83.344
X43.18Y-64.294
X44.926Y-26.194
X49.689Y-45.244
X49.689Y-83.344
X55.086Y-26.194
X59.214Y-64.294
X59.849Y-45.244
X59.849Y-83.344
X63.976Y-26.194
X68.739Y-45.244
X69.374Y-64.294
X71.12Y-83.344
X74.136Y-26.194
X78.264Y-64.294
X78.899Y-45.244
X81.28Y-83.344
X83.164Y-26.159
X87.926Y-45.209
X88.424Y-64.294
X93.324Y-26.159
X97.451Y-64.259
X98.086Y-45.209
X102.214Y-26.159
X104.595Y-83.309
X106.976Y-45.209
X107.611Y-64.259
X112.374Y-26.159
X114.755Y-83.309
X116.501Y-64.259
X117.136Y-45.209
X121.264Y-26.159
X126.026Y-45.209
X126.661Y-64.259
X131.424Y-26.159
X135.551Y-64.259
X136.186Y-45.209
X140.314Y-26.159
X145.076Y-45.209
X145.711Y-64.259
X150.474Y-26.159
X152.22Y-83.309
X154.601Y-64.259
X155.236Y-45.209
X159.364Y-26.159
X162.38Y-83.309
X164.126Y-45.209
X164.761Y-64.259
X169.524Y-26.159
X173.651Y-64.259
X174.286Y-45.209
X178.414Y-26.159
X183.176Y-45.209
X183.811Y-64.259
X187.939Y-83.309
X188.574Y-26.159
X192.701Y-64.259
X193.336Y-45.209
X197.464Y-26.159
X198.099Y-83.309
X202.226Y-45.209
X202.861Y-64.259
X207.624Y-26.159
X209.37Y-83.309
X211.751Y-64.259
X212.386Y-45.209
X216.514Y-26.159
X219.53Y-83.309
X221.276Y-45.209
X221.911Y-64.259
X226.674Y-26.159
X230.801Y-64.259
X230.801Y-83.309
X231.436Y-45.209
X240.961Y-64.259
X240.961Y-83.309
X242.707Y-26.159
X245.089Y-45.209
X249.851Y-64.259
X249.851Y-83.344
X252.867Y-26.159
X255.249Y-45.209
X260.011Y-64.259
X260.011Y-83.344
X268.901Y-26.194
X268.901Y-45.244
X268.901Y-64.259
X268.901Y-83.344
X279.061Y-26.194
X279.061Y-45.244
X279.061Y-64.259
X279.061Y-83.344
T2
X27.146Y-23.654
X29.527Y-42.704
X29.527Y-80.804
X33.496Y-21.114
X34.29Y-61.754
X35.877Y-40.164
X35.877Y-78.264
X40.64Y-59.214
X46.196Y-23.654
X50.959Y-42.704
X50.959Y-80.804
X52.546Y-21.114
X57.309Y-40.164
X57.309Y-78.264
X60.484Y-61.754
X65.246Y-23.654
X66.834Y-59.214
X70.009Y-42.704
X71.596Y-21.114
X72.39Y-80.804
X76.359Y-40.164
X78.74Y-78.264
X79.534Y-61.754
X84.434Y-23.619
X85.884Y-59.214
X89.196Y-42.669
X90.784Y-21.079
X95.546Y-40.129
X98.721Y-61.719
X103.484Y-23.619
X105.071Y-59.179
X105.865Y-80.769
X108.246Y-42.669
X109.834Y-21.079
X112.215Y-78.229
X114.596Y-40.129
X117.771Y-61.719
X122.534Y-23.619
X124.121Y-59.179
X127.296Y-42.669
X128.884Y-21.079
X133.646Y-40.129
X136.821Y-61.719
X141.584Y-23.619
X143.171Y-59.179
X146.346Y-42.669
X147.934Y-21.079
X152.696Y-40.129
X153.49Y-80.769
X155.871Y-61.719
X159.84Y-78.229
X160.634Y-23.619
X162.221Y-59.179
X165.396Y-42.669
X166.984Y-21.079
X171.746Y-40.129
X174.921Y-61.719
X179.684Y-23.619
X181.271Y-59.179
X184.446Y-42.669
X186.034Y-21.079
X189.209Y-80.769
X190.796Y-40.129
X193.971Y-61.719
X195.559Y-78.229
X198.734Y-23.619
X200.321Y-59.179
X203.496Y-42.669
X205.084Y-21.079
X209.846Y-40.129
X210.64Y-80.769
X213.021Y-61.719
X216.99Y-78.229
X217.784Y-23.619
X219.371Y-59.179
X222.546Y-42.669
X224.134Y-21.079
X228.896Y-40.129
X232.071Y-61.719
X232.071Y-80.769
X238.421Y-59.179
X238.421Y-78.229
X243.977Y-23.619
X246.359Y-42.669
X250.327Y-21.079
X251.121Y-61.719
X251.121Y-80.804
X252.709Y-40.129
X257.471Y-59.179
X257.471Y-78.264
X270.171Y-23.654
X270.171Y-42.704
X270.171Y-61.719
X270.171Y-80.804
X276.521Y-21.114
X276.521Y-40.164
X276.521Y-59.179
X276.521Y-78.264
T3
X97.737Y-76.324
X121.613Y-76.324
X145.362Y-76.324
X169.238Y-76.324
T4
X30.956Y-26.194
X33.337Y-45.244
X33.337Y-83.344
X38.1Y-64.294
X50.006Y-26.194
X54.769Y-45.244
X54.769Y-83.344
X64.294Y-64.294
X69.056Y-26.194
X73.819Y-45.244
X76.2Y-83.344
X83.344Y-64.294
X88.244Y-26.159
X93.006Y-45.209
X97.737Y-91.564
X102.531Y-64.259
X107.294Y-26.159
X109.675Y-83.309
X112.056Y-45.209
X121.581Y-64.259
X121.613Y-91.564
X126.344Y-26.159
X131.106Y-45.209
X140.631Y-64.259
X145.362Y-91.564
X145.394Y-26.159
X150.156Y-45.209
X157.3Y-83.309
X159.681Y-64.259
X164.444Y-26.159
X169.206Y-45.209
X169.238Y-91.564
X178.731Y-64.259
X183.494Y-26.159
X188.256Y-45.209
X193.019Y-83.309
X197.781Y-64.259
X202.544Y-26.159
X207.306Y-45.209
X214.45Y-83.309
X216.831Y-64.259
X221.594Y-26.159
X226.356Y-45.209
X235.881Y-64.259
X235.881Y-83.309
X247.787Y-26.159
X250.169Y-45.209
X254.931Y-64.259
X254.931Y-83.344
X273.981Y-26.194
X273.981Y-45.244
X273.981Y-64.259
X273.981Y-83.344
T0
M30
