G04 #@! TF.GenerationSoftware,KiCad,Pcbnew,(6.0.1)*
G04 #@! TF.CreationDate,2022-02-08T20:19:43+09:00*
G04 #@! TF.ProjectId,PCB_design_try,5043425f-6465-4736-9967-6e5f7472792e,rev?*
G04 #@! TF.SameCoordinates,Original*
G04 #@! TF.FileFunction,Legend,Bot*
G04 #@! TF.FilePolarity,Positive*
%FSLAX46Y46*%
G04 Gerber Fmt 4.6, Leading zero omitted, Abs format (unit mm)*
G04 Created by KiCad (PCBNEW (6.0.1)) date 2022-02-08 20:19:43*
%MOMM*%
%LPD*%
G01*
G04 APERTURE LIST*
G04 Aperture macros list*
%AMRoundRect*
0 Rectangle with rounded corners*
0 $1 Rounding radius*
0 $2 $3 $4 $5 $6 $7 $8 $9 X,Y pos of 4 corners*
0 Add a 4 corners polygon primitive as box body*
4,1,4,$2,$3,$4,$5,$6,$7,$8,$9,$2,$3,0*
0 Add four circle primitives for the rounded corners*
1,1,$1+$1,$2,$3*
1,1,$1+$1,$4,$5*
1,1,$1+$1,$6,$7*
1,1,$1+$1,$8,$9*
0 Add four rect primitives between the rounded corners*
20,1,$1+$1,$2,$3,$4,$5,0*
20,1,$1+$1,$4,$5,$6,$7,0*
20,1,$1+$1,$6,$7,$8,$9,0*
20,1,$1+$1,$8,$9,$2,$3,0*%
G04 Aperture macros list end*
%ADD10C,0.150000*%
%ADD11C,0.200000*%
%ADD12C,0.127000*%
%ADD13C,0.120000*%
%ADD14C,3.000000*%
%ADD15C,3.987800*%
%ADD16C,1.750000*%
%ADD17R,2.550000X2.500000*%
%ADD18C,3.048000*%
%ADD19R,0.400000X1.900000*%
%ADD20C,0.650000*%
%ADD21O,0.900000X1.700000*%
%ADD22O,0.900000X2.400000*%
%ADD23RoundRect,0.250000X-0.550000X-0.550000X0.550000X-0.550000X0.550000X0.550000X-0.550000X0.550000X0*%
%ADD24C,1.600000*%
%ADD25C,2.000000*%
%ADD26R,2.500000X3.200000*%
%ADD27RoundRect,0.050000X0.350000X-0.500000X0.350000X0.500000X-0.350000X0.500000X-0.350000X-0.500000X0*%
%ADD28RoundRect,0.050000X0.350000X-0.300000X0.350000X0.300000X-0.350000X0.300000X-0.350000X-0.300000X0*%
%ADD29R,1.200000X0.900000*%
%ADD30RoundRect,0.237500X-0.237500X0.250000X-0.237500X-0.250000X0.237500X-0.250000X0.237500X0.250000X0*%
%ADD31RoundRect,0.237500X-0.237500X0.287500X-0.237500X-0.287500X0.237500X-0.287500X0.237500X0.287500X0*%
%ADD32RoundRect,0.237500X0.237500X-0.250000X0.237500X0.250000X-0.237500X0.250000X-0.237500X-0.250000X0*%
%ADD33RoundRect,0.237500X-0.237500X0.300000X-0.237500X-0.300000X0.237500X-0.300000X0.237500X0.300000X0*%
%ADD34RoundRect,0.062500X0.375000X0.062500X-0.375000X0.062500X-0.375000X-0.062500X0.375000X-0.062500X0*%
%ADD35RoundRect,0.062500X0.062500X0.375000X-0.062500X0.375000X-0.062500X-0.375000X0.062500X-0.375000X0*%
%ADD36R,3.100000X3.100000*%
%ADD37RoundRect,0.237500X0.237500X-0.300000X0.237500X0.300000X-0.237500X0.300000X-0.237500X-0.300000X0*%
%ADD38R,1.300000X3.400000*%
%ADD39RoundRect,0.237500X-0.300000X-0.237500X0.300000X-0.237500X0.300000X0.237500X-0.300000X0.237500X0*%
%ADD40RoundRect,0.237500X-0.250000X-0.237500X0.250000X-0.237500X0.250000X0.237500X-0.250000X0.237500X0*%
G04 APERTURE END LIST*
D10*
X267820511Y-36164911D02*
X267820511Y-36469673D01*
X268033845Y-35829673D02*
X267820511Y-36164911D01*
X267607178Y-35829673D01*
X267058607Y-36469673D02*
X267424321Y-36469673D01*
X267241464Y-36469673D02*
X267241464Y-35829673D01*
X267302416Y-35921102D01*
X267363369Y-35982054D01*
X267424321Y-36012530D01*
X260683333Y-16958630D02*
X260683333Y-17672916D01*
X260730952Y-17815773D01*
X260826190Y-17911011D01*
X260969047Y-17958630D01*
X261064285Y-17958630D01*
X260254761Y-17053869D02*
X260207142Y-17006250D01*
X260111904Y-16958630D01*
X259873809Y-16958630D01*
X259778571Y-17006250D01*
X259730952Y-17053869D01*
X259683333Y-17149107D01*
X259683333Y-17244345D01*
X259730952Y-17387202D01*
X260302380Y-17958630D01*
X259683333Y-17958630D01*
X262666666Y-27237500D02*
X261966666Y-27237500D01*
X261966666Y-27404166D01*
X262000000Y-27504166D01*
X262066666Y-27570833D01*
X262133333Y-27604166D01*
X262266666Y-27637500D01*
X262366666Y-27637500D01*
X262500000Y-27604166D01*
X262566666Y-27570833D01*
X262633333Y-27504166D01*
X262666666Y-27404166D01*
X262666666Y-27237500D01*
X261966666Y-28270833D02*
X261966666Y-27937500D01*
X262300000Y-27904166D01*
X262266666Y-27937500D01*
X262233333Y-28004166D01*
X262233333Y-28170833D01*
X262266666Y-28237500D01*
X262300000Y-28270833D01*
X262366666Y-28304166D01*
X262533333Y-28304166D01*
X262600000Y-28270833D01*
X262633333Y-28237500D01*
X262666666Y-28170833D01*
X262666666Y-28004166D01*
X262633333Y-27937500D01*
X262600000Y-27904166D01*
X261966666Y-28737500D02*
X261966666Y-28804166D01*
X262000000Y-28870833D01*
X262033333Y-28904166D01*
X262100000Y-28937500D01*
X262233333Y-28970833D01*
X262400000Y-28970833D01*
X262533333Y-28937500D01*
X262600000Y-28904166D01*
X262633333Y-28870833D01*
X262666666Y-28804166D01*
X262666666Y-28737500D01*
X262633333Y-28670833D01*
X262600000Y-28637500D01*
X262533333Y-28604166D01*
X262400000Y-28570833D01*
X262233333Y-28570833D01*
X262100000Y-28604166D01*
X262033333Y-28637500D01*
X262000000Y-28670833D01*
X261966666Y-28737500D01*
X258200000Y-27254166D02*
X258200000Y-27487500D01*
X258566666Y-27587500D02*
X258566666Y-27254166D01*
X257866666Y-27254166D01*
X257866666Y-27587500D01*
X258533333Y-27854166D02*
X258566666Y-27954166D01*
X258566666Y-28120833D01*
X258533333Y-28187500D01*
X258500000Y-28220833D01*
X258433333Y-28254166D01*
X258366666Y-28254166D01*
X258300000Y-28220833D01*
X258266666Y-28187500D01*
X258233333Y-28120833D01*
X258200000Y-27987500D01*
X258166666Y-27920833D01*
X258133333Y-27887500D01*
X258066666Y-27854166D01*
X258000000Y-27854166D01*
X257933333Y-27887500D01*
X257900000Y-27920833D01*
X257866666Y-27987500D01*
X257866666Y-28154166D01*
X257900000Y-28254166D01*
X258566666Y-28554166D02*
X257866666Y-28554166D01*
X257866666Y-28720833D01*
X257900000Y-28820833D01*
X257966666Y-28887500D01*
X258033333Y-28920833D01*
X258166666Y-28954166D01*
X258266666Y-28954166D01*
X258400000Y-28920833D01*
X258466666Y-28887500D01*
X258533333Y-28820833D01*
X258566666Y-28720833D01*
X258566666Y-28554166D01*
X182633630Y-85715714D02*
X181633630Y-85715714D01*
X181633630Y-85953809D01*
X181681250Y-86096666D01*
X181776488Y-86191904D01*
X181871726Y-86239523D01*
X182062202Y-86287142D01*
X182205059Y-86287142D01*
X182395535Y-86239523D01*
X182490773Y-86191904D01*
X182586011Y-86096666D01*
X182633630Y-85953809D01*
X182633630Y-85715714D01*
X181728869Y-86668095D02*
X181681250Y-86715714D01*
X181633630Y-86810952D01*
X181633630Y-87049047D01*
X181681250Y-87144285D01*
X181728869Y-87191904D01*
X181824107Y-87239523D01*
X181919345Y-87239523D01*
X182062202Y-87191904D01*
X182633630Y-86620476D01*
X182633630Y-87239523D01*
X181633630Y-88096666D02*
X181633630Y-87906190D01*
X181681250Y-87810952D01*
X181728869Y-87763333D01*
X181871726Y-87668095D01*
X182062202Y-87620476D01*
X182443154Y-87620476D01*
X182538392Y-87668095D01*
X182586011Y-87715714D01*
X182633630Y-87810952D01*
X182633630Y-88001428D01*
X182586011Y-88096666D01*
X182538392Y-88144285D01*
X182443154Y-88191904D01*
X182205059Y-88191904D01*
X182109821Y-88144285D01*
X182062202Y-88096666D01*
X182014583Y-88001428D01*
X182014583Y-87810952D01*
X182062202Y-87715714D01*
X182109821Y-87668095D01*
X182205059Y-87620476D01*
X33552380Y-67141904D02*
X32552380Y-67141904D01*
X32552380Y-67380000D01*
X32600000Y-67522857D01*
X32695238Y-67618095D01*
X32790476Y-67665714D01*
X32980952Y-67713333D01*
X33123809Y-67713333D01*
X33314285Y-67665714D01*
X33409523Y-67618095D01*
X33504761Y-67522857D01*
X33552380Y-67380000D01*
X33552380Y-67141904D01*
X32552380Y-68046666D02*
X32552380Y-68665714D01*
X32933333Y-68332380D01*
X32933333Y-68475238D01*
X32980952Y-68570476D01*
X33028571Y-68618095D01*
X33123809Y-68665714D01*
X33361904Y-68665714D01*
X33457142Y-68618095D01*
X33504761Y-68570476D01*
X33552380Y-68475238D01*
X33552380Y-68189523D01*
X33504761Y-68094285D01*
X33457142Y-68046666D01*
X28789880Y-86191904D02*
X27789880Y-86191904D01*
X27789880Y-86430000D01*
X27837500Y-86572857D01*
X27932738Y-86668095D01*
X28027976Y-86715714D01*
X28218452Y-86763333D01*
X28361309Y-86763333D01*
X28551785Y-86715714D01*
X28647023Y-86668095D01*
X28742261Y-86572857D01*
X28789880Y-86430000D01*
X28789880Y-86191904D01*
X28123214Y-87620476D02*
X28789880Y-87620476D01*
X27742261Y-87382380D02*
X28456547Y-87144285D01*
X28456547Y-87763333D01*
X269215880Y-66571964D02*
X268215880Y-66571964D01*
X268215880Y-66810059D01*
X268263500Y-66952916D01*
X268358738Y-67048154D01*
X268453976Y-67095773D01*
X268644452Y-67143392D01*
X268787309Y-67143392D01*
X268977785Y-67095773D01*
X269073023Y-67048154D01*
X269168261Y-66952916D01*
X269215880Y-66810059D01*
X269215880Y-66571964D01*
X268549214Y-68000535D02*
X269215880Y-68000535D01*
X268168261Y-67762440D02*
X268882547Y-67524345D01*
X268882547Y-68143392D01*
X268644452Y-68667202D02*
X268596833Y-68571964D01*
X268549214Y-68524345D01*
X268453976Y-68476726D01*
X268406357Y-68476726D01*
X268311119Y-68524345D01*
X268263500Y-68571964D01*
X268215880Y-68667202D01*
X268215880Y-68857678D01*
X268263500Y-68952916D01*
X268311119Y-69000535D01*
X268406357Y-69048154D01*
X268453976Y-69048154D01*
X268549214Y-69000535D01*
X268596833Y-68952916D01*
X268644452Y-68857678D01*
X268644452Y-68667202D01*
X268692071Y-68571964D01*
X268739690Y-68524345D01*
X268834928Y-68476726D01*
X269025404Y-68476726D01*
X269120642Y-68524345D01*
X269168261Y-68571964D01*
X269215880Y-68667202D01*
X269215880Y-68857678D01*
X269168261Y-68952916D01*
X269120642Y-69000535D01*
X269025404Y-69048154D01*
X268834928Y-69048154D01*
X268739690Y-69000535D01*
X268692071Y-68952916D01*
X268644452Y-68857678D01*
X126421130Y-47615714D02*
X125421130Y-47615714D01*
X125421130Y-47853809D01*
X125468750Y-47996666D01*
X125563988Y-48091904D01*
X125659226Y-48139523D01*
X125849702Y-48187142D01*
X125992559Y-48187142D01*
X126183035Y-48139523D01*
X126278273Y-48091904D01*
X126373511Y-47996666D01*
X126421130Y-47853809D01*
X126421130Y-47615714D01*
X125516369Y-48568095D02*
X125468750Y-48615714D01*
X125421130Y-48710952D01*
X125421130Y-48949047D01*
X125468750Y-49044285D01*
X125516369Y-49091904D01*
X125611607Y-49139523D01*
X125706845Y-49139523D01*
X125849702Y-49091904D01*
X126421130Y-48520476D01*
X126421130Y-49139523D01*
X126421130Y-50091904D02*
X126421130Y-49520476D01*
X126421130Y-49806190D02*
X125421130Y-49806190D01*
X125563988Y-49710952D01*
X125659226Y-49615714D01*
X125706845Y-49520476D01*
X231115880Y-66665714D02*
X230115880Y-66665714D01*
X230115880Y-66903809D01*
X230163500Y-67046666D01*
X230258738Y-67141904D01*
X230353976Y-67189523D01*
X230544452Y-67237142D01*
X230687309Y-67237142D01*
X230877785Y-67189523D01*
X230973023Y-67141904D01*
X231068261Y-67046666D01*
X231115880Y-66903809D01*
X231115880Y-66665714D01*
X230449214Y-68094285D02*
X231115880Y-68094285D01*
X230068261Y-67856190D02*
X230782547Y-67618095D01*
X230782547Y-68237142D01*
X230115880Y-68808571D02*
X230115880Y-68903809D01*
X230163500Y-68999047D01*
X230211119Y-69046666D01*
X230306357Y-69094285D01*
X230496833Y-69141904D01*
X230734928Y-69141904D01*
X230925404Y-69094285D01*
X231020642Y-69046666D01*
X231068261Y-68999047D01*
X231115880Y-68903809D01*
X231115880Y-68808571D01*
X231068261Y-68713333D01*
X231020642Y-68665714D01*
X230925404Y-68618095D01*
X230734928Y-68570476D01*
X230496833Y-68570476D01*
X230306357Y-68618095D01*
X230211119Y-68665714D01*
X230163500Y-68713333D01*
X230115880Y-68808571D01*
X216796630Y-28565714D02*
X215796630Y-28565714D01*
X215796630Y-28803809D01*
X215844250Y-28946666D01*
X215939488Y-29041904D01*
X216034726Y-29089523D01*
X216225202Y-29137142D01*
X216368059Y-29137142D01*
X216558535Y-29089523D01*
X216653773Y-29041904D01*
X216749011Y-28946666D01*
X216796630Y-28803809D01*
X216796630Y-28565714D01*
X215796630Y-29470476D02*
X215796630Y-30089523D01*
X216177583Y-29756190D01*
X216177583Y-29899047D01*
X216225202Y-29994285D01*
X216272821Y-30041904D01*
X216368059Y-30089523D01*
X216606154Y-30089523D01*
X216701392Y-30041904D01*
X216749011Y-29994285D01*
X216796630Y-29899047D01*
X216796630Y-29613333D01*
X216749011Y-29518095D01*
X216701392Y-29470476D01*
X216225202Y-30660952D02*
X216177583Y-30565714D01*
X216129964Y-30518095D01*
X216034726Y-30470476D01*
X215987107Y-30470476D01*
X215891869Y-30518095D01*
X215844250Y-30565714D01*
X215796630Y-30660952D01*
X215796630Y-30851428D01*
X215844250Y-30946666D01*
X215891869Y-30994285D01*
X215987107Y-31041904D01*
X216034726Y-31041904D01*
X216129964Y-30994285D01*
X216177583Y-30946666D01*
X216225202Y-30851428D01*
X216225202Y-30660952D01*
X216272821Y-30565714D01*
X216320440Y-30518095D01*
X216415678Y-30470476D01*
X216606154Y-30470476D01*
X216701392Y-30518095D01*
X216749011Y-30565714D01*
X216796630Y-30660952D01*
X216796630Y-30851428D01*
X216749011Y-30946666D01*
X216701392Y-30994285D01*
X216606154Y-31041904D01*
X216415678Y-31041904D01*
X216320440Y-30994285D01*
X216272821Y-30946666D01*
X216225202Y-30851428D01*
X178808630Y-28565714D02*
X177808630Y-28565714D01*
X177808630Y-28803809D01*
X177856250Y-28946666D01*
X177951488Y-29041904D01*
X178046726Y-29089523D01*
X178237202Y-29137142D01*
X178380059Y-29137142D01*
X178570535Y-29089523D01*
X178665773Y-29041904D01*
X178761011Y-28946666D01*
X178808630Y-28803809D01*
X178808630Y-28565714D01*
X177808630Y-29470476D02*
X177808630Y-30089523D01*
X178189583Y-29756190D01*
X178189583Y-29899047D01*
X178237202Y-29994285D01*
X178284821Y-30041904D01*
X178380059Y-30089523D01*
X178618154Y-30089523D01*
X178713392Y-30041904D01*
X178761011Y-29994285D01*
X178808630Y-29899047D01*
X178808630Y-29613333D01*
X178761011Y-29518095D01*
X178713392Y-29470476D01*
X177808630Y-30708571D02*
X177808630Y-30803809D01*
X177856250Y-30899047D01*
X177903869Y-30946666D01*
X177999107Y-30994285D01*
X178189583Y-31041904D01*
X178427678Y-31041904D01*
X178618154Y-30994285D01*
X178713392Y-30946666D01*
X178761011Y-30899047D01*
X178808630Y-30803809D01*
X178808630Y-30708571D01*
X178761011Y-30613333D01*
X178713392Y-30565714D01*
X178618154Y-30518095D01*
X178427678Y-30470476D01*
X178189583Y-30470476D01*
X177999107Y-30518095D01*
X177903869Y-30565714D01*
X177856250Y-30613333D01*
X177808630Y-30708571D01*
X231115880Y-85715714D02*
X230115880Y-85715714D01*
X230115880Y-85953809D01*
X230163500Y-86096666D01*
X230258738Y-86191904D01*
X230353976Y-86239523D01*
X230544452Y-86287142D01*
X230687309Y-86287142D01*
X230877785Y-86239523D01*
X230973023Y-86191904D01*
X231068261Y-86096666D01*
X231115880Y-85953809D01*
X231115880Y-85715714D01*
X230449214Y-87144285D02*
X231115880Y-87144285D01*
X230068261Y-86906190D02*
X230782547Y-86668095D01*
X230782547Y-87287142D01*
X231115880Y-88191904D02*
X231115880Y-87620476D01*
X231115880Y-87906190D02*
X230115880Y-87906190D01*
X230258738Y-87810952D01*
X230353976Y-87715714D01*
X230401595Y-87620476D01*
X263437916Y-26823630D02*
X263771250Y-26347440D01*
X264009345Y-26823630D02*
X264009345Y-25823630D01*
X263628392Y-25823630D01*
X263533154Y-25871250D01*
X263485535Y-25918869D01*
X263437916Y-26014107D01*
X263437916Y-26156964D01*
X263485535Y-26252202D01*
X263533154Y-26299821D01*
X263628392Y-26347440D01*
X264009345Y-26347440D01*
X262580773Y-26156964D02*
X262580773Y-26823630D01*
X262818869Y-25776011D02*
X263056964Y-26490297D01*
X262437916Y-26490297D01*
X87383630Y-85715714D02*
X86383630Y-85715714D01*
X86383630Y-85953809D01*
X86431250Y-86096666D01*
X86526488Y-86191904D01*
X86621726Y-86239523D01*
X86812202Y-86287142D01*
X86955059Y-86287142D01*
X87145535Y-86239523D01*
X87240773Y-86191904D01*
X87336011Y-86096666D01*
X87383630Y-85953809D01*
X87383630Y-85715714D01*
X87383630Y-87239523D02*
X87383630Y-86668095D01*
X87383630Y-86953809D02*
X86383630Y-86953809D01*
X86526488Y-86858571D01*
X86621726Y-86763333D01*
X86669345Y-86668095D01*
X86383630Y-88096666D02*
X86383630Y-87906190D01*
X86431250Y-87810952D01*
X86478869Y-87763333D01*
X86621726Y-87668095D01*
X86812202Y-87620476D01*
X87193154Y-87620476D01*
X87288392Y-87668095D01*
X87336011Y-87715714D01*
X87383630Y-87810952D01*
X87383630Y-88001428D01*
X87336011Y-88096666D01*
X87288392Y-88144285D01*
X87193154Y-88191904D01*
X86955059Y-88191904D01*
X86859821Y-88144285D01*
X86812202Y-88096666D01*
X86764583Y-88001428D01*
X86764583Y-87810952D01*
X86812202Y-87715714D01*
X86859821Y-87668095D01*
X86955059Y-87620476D01*
X260338630Y-43037083D02*
X259862440Y-42703750D01*
X260338630Y-42465654D02*
X259338630Y-42465654D01*
X259338630Y-42846607D01*
X259386250Y-42941845D01*
X259433869Y-42989464D01*
X259529107Y-43037083D01*
X259671964Y-43037083D01*
X259767202Y-42989464D01*
X259814821Y-42941845D01*
X259862440Y-42846607D01*
X259862440Y-42465654D01*
X260338630Y-43989464D02*
X260338630Y-43418035D01*
X260338630Y-43703750D02*
X259338630Y-43703750D01*
X259481488Y-43608511D01*
X259576726Y-43513273D01*
X259624345Y-43418035D01*
X212146130Y-66665714D02*
X211146130Y-66665714D01*
X211146130Y-66903809D01*
X211193750Y-67046666D01*
X211288988Y-67141904D01*
X211384226Y-67189523D01*
X211574702Y-67237142D01*
X211717559Y-67237142D01*
X211908035Y-67189523D01*
X212003273Y-67141904D01*
X212098511Y-67046666D01*
X212146130Y-66903809D01*
X212146130Y-66665714D01*
X211146130Y-67570476D02*
X211146130Y-68189523D01*
X211527083Y-67856190D01*
X211527083Y-67999047D01*
X211574702Y-68094285D01*
X211622321Y-68141904D01*
X211717559Y-68189523D01*
X211955654Y-68189523D01*
X212050892Y-68141904D01*
X212098511Y-68094285D01*
X212146130Y-67999047D01*
X212146130Y-67713333D01*
X212098511Y-67618095D01*
X212050892Y-67570476D01*
X211146130Y-69046666D02*
X211146130Y-68856190D01*
X211193750Y-68760952D01*
X211241369Y-68713333D01*
X211384226Y-68618095D01*
X211574702Y-68570476D01*
X211955654Y-68570476D01*
X212050892Y-68618095D01*
X212098511Y-68665714D01*
X212146130Y-68760952D01*
X212146130Y-68951428D01*
X212098511Y-69046666D01*
X212050892Y-69094285D01*
X211955654Y-69141904D01*
X211717559Y-69141904D01*
X211622321Y-69094285D01*
X211574702Y-69046666D01*
X211527083Y-68951428D01*
X211527083Y-68760952D01*
X211574702Y-68665714D01*
X211622321Y-68618095D01*
X211717559Y-68570476D01*
X69271130Y-47615714D02*
X68271130Y-47615714D01*
X68271130Y-47853809D01*
X68318750Y-47996666D01*
X68413988Y-48091904D01*
X68509226Y-48139523D01*
X68699702Y-48187142D01*
X68842559Y-48187142D01*
X69033035Y-48139523D01*
X69128273Y-48091904D01*
X69223511Y-47996666D01*
X69271130Y-47853809D01*
X69271130Y-47615714D01*
X69271130Y-49139523D02*
X69271130Y-48568095D01*
X69271130Y-48853809D02*
X68271130Y-48853809D01*
X68413988Y-48758571D01*
X68509226Y-48663333D01*
X68556845Y-48568095D01*
X68271130Y-49758571D02*
X68271130Y-49853809D01*
X68318750Y-49949047D01*
X68366369Y-49996666D01*
X68461607Y-50044285D01*
X68652083Y-50091904D01*
X68890178Y-50091904D01*
X69080654Y-50044285D01*
X69175892Y-49996666D01*
X69223511Y-49949047D01*
X69271130Y-49853809D01*
X69271130Y-49758571D01*
X69223511Y-49663333D01*
X69175892Y-49615714D01*
X69080654Y-49568095D01*
X68890178Y-49520476D01*
X68652083Y-49520476D01*
X68461607Y-49568095D01*
X68366369Y-49615714D01*
X68318750Y-49663333D01*
X68271130Y-49758571D01*
X259666666Y-34239880D02*
X260000000Y-33763690D01*
X260238095Y-34239880D02*
X260238095Y-33239880D01*
X259857142Y-33239880D01*
X259761904Y-33287500D01*
X259714285Y-33335119D01*
X259666666Y-33430357D01*
X259666666Y-33573214D01*
X259714285Y-33668452D01*
X259761904Y-33716071D01*
X259857142Y-33763690D01*
X260238095Y-33763690D01*
X258809523Y-33239880D02*
X259000000Y-33239880D01*
X259095238Y-33287500D01*
X259142857Y-33335119D01*
X259238095Y-33477976D01*
X259285714Y-33668452D01*
X259285714Y-34049404D01*
X259238095Y-34144642D01*
X259190476Y-34192261D01*
X259095238Y-34239880D01*
X258904761Y-34239880D01*
X258809523Y-34192261D01*
X258761904Y-34144642D01*
X258714285Y-34049404D01*
X258714285Y-33811309D01*
X258761904Y-33716071D01*
X258809523Y-33668452D01*
X258904761Y-33620833D01*
X259095238Y-33620833D01*
X259190476Y-33668452D01*
X259238095Y-33716071D01*
X259285714Y-33811309D01*
X50221130Y-86191904D02*
X49221130Y-86191904D01*
X49221130Y-86430000D01*
X49268750Y-86572857D01*
X49363988Y-86668095D01*
X49459226Y-86715714D01*
X49649702Y-86763333D01*
X49792559Y-86763333D01*
X49983035Y-86715714D01*
X50078273Y-86668095D01*
X50173511Y-86572857D01*
X50221130Y-86430000D01*
X50221130Y-86191904D01*
X49649702Y-87334761D02*
X49602083Y-87239523D01*
X49554464Y-87191904D01*
X49459226Y-87144285D01*
X49411607Y-87144285D01*
X49316369Y-87191904D01*
X49268750Y-87239523D01*
X49221130Y-87334761D01*
X49221130Y-87525238D01*
X49268750Y-87620476D01*
X49316369Y-87668095D01*
X49411607Y-87715714D01*
X49459226Y-87715714D01*
X49554464Y-87668095D01*
X49602083Y-87620476D01*
X49649702Y-87525238D01*
X49649702Y-87334761D01*
X49697321Y-87239523D01*
X49744940Y-87191904D01*
X49840178Y-87144285D01*
X50030654Y-87144285D01*
X50125892Y-87191904D01*
X50173511Y-87239523D01*
X50221130Y-87334761D01*
X50221130Y-87525238D01*
X50173511Y-87620476D01*
X50125892Y-87668095D01*
X50030654Y-87715714D01*
X49840178Y-87715714D01*
X49744940Y-87668095D01*
X49697321Y-87620476D01*
X49649702Y-87525238D01*
X97846130Y-66665714D02*
X96846130Y-66665714D01*
X96846130Y-66903809D01*
X96893750Y-67046666D01*
X96988988Y-67141904D01*
X97084226Y-67189523D01*
X97274702Y-67237142D01*
X97417559Y-67237142D01*
X97608035Y-67189523D01*
X97703273Y-67141904D01*
X97798511Y-67046666D01*
X97846130Y-66903809D01*
X97846130Y-66665714D01*
X97846130Y-68189523D02*
X97846130Y-67618095D01*
X97846130Y-67903809D02*
X96846130Y-67903809D01*
X96988988Y-67808571D01*
X97084226Y-67713333D01*
X97131845Y-67618095D01*
X96846130Y-69094285D02*
X96846130Y-68618095D01*
X97322321Y-68570476D01*
X97274702Y-68618095D01*
X97227083Y-68713333D01*
X97227083Y-68951428D01*
X97274702Y-69046666D01*
X97322321Y-69094285D01*
X97417559Y-69141904D01*
X97655654Y-69141904D01*
X97750892Y-69094285D01*
X97798511Y-69046666D01*
X97846130Y-68951428D01*
X97846130Y-68713333D01*
X97798511Y-68618095D01*
X97750892Y-68570476D01*
X263088130Y-85715714D02*
X262088130Y-85715714D01*
X262088130Y-85953809D01*
X262135750Y-86096666D01*
X262230988Y-86191904D01*
X262326226Y-86239523D01*
X262516702Y-86287142D01*
X262659559Y-86287142D01*
X262850035Y-86239523D01*
X262945273Y-86191904D01*
X263040511Y-86096666D01*
X263088130Y-85953809D01*
X263088130Y-85715714D01*
X262421464Y-87144285D02*
X263088130Y-87144285D01*
X262040511Y-86906190D02*
X262754797Y-86668095D01*
X262754797Y-87287142D01*
X262088130Y-88144285D02*
X262088130Y-87668095D01*
X262564321Y-87620476D01*
X262516702Y-87668095D01*
X262469083Y-87763333D01*
X262469083Y-88001428D01*
X262516702Y-88096666D01*
X262564321Y-88144285D01*
X262659559Y-88191904D01*
X262897654Y-88191904D01*
X262992892Y-88144285D01*
X263040511Y-88096666D01*
X263088130Y-88001428D01*
X263088130Y-87763333D01*
X263040511Y-87668095D01*
X262992892Y-87620476D01*
X263239821Y-27885416D02*
X263239821Y-27552083D01*
X263763630Y-27552083D02*
X262763630Y-27552083D01*
X262763630Y-28028273D01*
X263763630Y-28933035D02*
X263763630Y-28361607D01*
X263763630Y-28647321D02*
X262763630Y-28647321D01*
X262906488Y-28552083D01*
X263001726Y-28456845D01*
X263049345Y-28361607D01*
X71652380Y-85715714D02*
X70652380Y-85715714D01*
X70652380Y-85953809D01*
X70700000Y-86096666D01*
X70795238Y-86191904D01*
X70890476Y-86239523D01*
X71080952Y-86287142D01*
X71223809Y-86287142D01*
X71414285Y-86239523D01*
X71509523Y-86191904D01*
X71604761Y-86096666D01*
X71652380Y-85953809D01*
X71652380Y-85715714D01*
X71652380Y-87239523D02*
X71652380Y-86668095D01*
X71652380Y-86953809D02*
X70652380Y-86953809D01*
X70795238Y-86858571D01*
X70890476Y-86763333D01*
X70938095Y-86668095D01*
X70747619Y-87620476D02*
X70700000Y-87668095D01*
X70652380Y-87763333D01*
X70652380Y-88001428D01*
X70700000Y-88096666D01*
X70747619Y-88144285D01*
X70842857Y-88191904D01*
X70938095Y-88191904D01*
X71080952Y-88144285D01*
X71652380Y-87572857D01*
X71652380Y-88191904D01*
X159758630Y-28565714D02*
X158758630Y-28565714D01*
X158758630Y-28803809D01*
X158806250Y-28946666D01*
X158901488Y-29041904D01*
X158996726Y-29089523D01*
X159187202Y-29137142D01*
X159330059Y-29137142D01*
X159520535Y-29089523D01*
X159615773Y-29041904D01*
X159711011Y-28946666D01*
X159758630Y-28803809D01*
X159758630Y-28565714D01*
X158853869Y-29518095D02*
X158806250Y-29565714D01*
X158758630Y-29660952D01*
X158758630Y-29899047D01*
X158806250Y-29994285D01*
X158853869Y-30041904D01*
X158949107Y-30089523D01*
X159044345Y-30089523D01*
X159187202Y-30041904D01*
X159758630Y-29470476D01*
X159758630Y-30089523D01*
X158758630Y-30422857D02*
X158758630Y-31089523D01*
X159758630Y-30660952D01*
X174046130Y-66665714D02*
X173046130Y-66665714D01*
X173046130Y-66903809D01*
X173093750Y-67046666D01*
X173188988Y-67141904D01*
X173284226Y-67189523D01*
X173474702Y-67237142D01*
X173617559Y-67237142D01*
X173808035Y-67189523D01*
X173903273Y-67141904D01*
X173998511Y-67046666D01*
X174046130Y-66903809D01*
X174046130Y-66665714D01*
X173141369Y-67618095D02*
X173093750Y-67665714D01*
X173046130Y-67760952D01*
X173046130Y-67999047D01*
X173093750Y-68094285D01*
X173141369Y-68141904D01*
X173236607Y-68189523D01*
X173331845Y-68189523D01*
X173474702Y-68141904D01*
X174046130Y-67570476D01*
X174046130Y-68189523D01*
X174046130Y-68665714D02*
X174046130Y-68856190D01*
X173998511Y-68951428D01*
X173950892Y-68999047D01*
X173808035Y-69094285D01*
X173617559Y-69141904D01*
X173236607Y-69141904D01*
X173141369Y-69094285D01*
X173093750Y-69046666D01*
X173046130Y-68951428D01*
X173046130Y-68760952D01*
X173093750Y-68665714D01*
X173141369Y-68618095D01*
X173236607Y-68570476D01*
X173474702Y-68570476D01*
X173569940Y-68618095D01*
X173617559Y-68665714D01*
X173665178Y-68760952D01*
X173665178Y-68951428D01*
X173617559Y-69046666D01*
X173569940Y-69094285D01*
X173474702Y-69141904D01*
X232818630Y-23707083D02*
X232342440Y-23373750D01*
X232818630Y-23135654D02*
X231818630Y-23135654D01*
X231818630Y-23516607D01*
X231866250Y-23611845D01*
X231913869Y-23659464D01*
X232009107Y-23707083D01*
X232151964Y-23707083D01*
X232247202Y-23659464D01*
X232294821Y-23611845D01*
X232342440Y-23516607D01*
X232342440Y-23135654D01*
X231818630Y-24040416D02*
X231818630Y-24659464D01*
X232199583Y-24326130D01*
X232199583Y-24468988D01*
X232247202Y-24564226D01*
X232294821Y-24611845D01*
X232390059Y-24659464D01*
X232628154Y-24659464D01*
X232723392Y-24611845D01*
X232771011Y-24564226D01*
X232818630Y-24468988D01*
X232818630Y-24183273D01*
X232771011Y-24088035D01*
X232723392Y-24040416D01*
X263088130Y-66634464D02*
X262088130Y-66634464D01*
X262088130Y-66872559D01*
X262135750Y-67015416D01*
X262230988Y-67110654D01*
X262326226Y-67158273D01*
X262516702Y-67205892D01*
X262659559Y-67205892D01*
X262850035Y-67158273D01*
X262945273Y-67110654D01*
X263040511Y-67015416D01*
X263088130Y-66872559D01*
X263088130Y-66634464D01*
X262421464Y-68063035D02*
X263088130Y-68063035D01*
X262040511Y-67824940D02*
X262754797Y-67586845D01*
X262754797Y-68205892D01*
X262421464Y-69015416D02*
X263088130Y-69015416D01*
X262040511Y-68777321D02*
X262754797Y-68539226D01*
X262754797Y-69158273D01*
X197858630Y-28565714D02*
X196858630Y-28565714D01*
X196858630Y-28803809D01*
X196906250Y-28946666D01*
X197001488Y-29041904D01*
X197096726Y-29089523D01*
X197287202Y-29137142D01*
X197430059Y-29137142D01*
X197620535Y-29089523D01*
X197715773Y-29041904D01*
X197811011Y-28946666D01*
X197858630Y-28803809D01*
X197858630Y-28565714D01*
X196858630Y-29470476D02*
X196858630Y-30089523D01*
X197239583Y-29756190D01*
X197239583Y-29899047D01*
X197287202Y-29994285D01*
X197334821Y-30041904D01*
X197430059Y-30089523D01*
X197668154Y-30089523D01*
X197763392Y-30041904D01*
X197811011Y-29994285D01*
X197858630Y-29899047D01*
X197858630Y-29613333D01*
X197811011Y-29518095D01*
X197763392Y-29470476D01*
X197191964Y-30946666D02*
X197858630Y-30946666D01*
X196811011Y-30708571D02*
X197525297Y-30470476D01*
X197525297Y-31089523D01*
X209764880Y-85715714D02*
X208764880Y-85715714D01*
X208764880Y-85953809D01*
X208812500Y-86096666D01*
X208907738Y-86191904D01*
X209002976Y-86239523D01*
X209193452Y-86287142D01*
X209336309Y-86287142D01*
X209526785Y-86239523D01*
X209622023Y-86191904D01*
X209717261Y-86096666D01*
X209764880Y-85953809D01*
X209764880Y-85715714D01*
X208764880Y-86620476D02*
X208764880Y-87239523D01*
X209145833Y-86906190D01*
X209145833Y-87049047D01*
X209193452Y-87144285D01*
X209241071Y-87191904D01*
X209336309Y-87239523D01*
X209574404Y-87239523D01*
X209669642Y-87191904D01*
X209717261Y-87144285D01*
X209764880Y-87049047D01*
X209764880Y-86763333D01*
X209717261Y-86668095D01*
X209669642Y-86620476D01*
X208764880Y-87572857D02*
X208764880Y-88239523D01*
X209764880Y-87810952D01*
X253343630Y-28504464D02*
X252343630Y-28504464D01*
X252343630Y-28742559D01*
X252391250Y-28885416D01*
X252486488Y-28980654D01*
X252581726Y-29028273D01*
X252772202Y-29075892D01*
X252915059Y-29075892D01*
X253105535Y-29028273D01*
X253200773Y-28980654D01*
X253296011Y-28885416D01*
X253343630Y-28742559D01*
X253343630Y-28504464D01*
X252676964Y-29933035D02*
X253343630Y-29933035D01*
X252296011Y-29694940D02*
X253010297Y-29456845D01*
X253010297Y-30075892D01*
X252438869Y-30409226D02*
X252391250Y-30456845D01*
X252343630Y-30552083D01*
X252343630Y-30790178D01*
X252391250Y-30885416D01*
X252438869Y-30933035D01*
X252534107Y-30980654D01*
X252629345Y-30980654D01*
X252772202Y-30933035D01*
X253343630Y-30361607D01*
X253343630Y-30980654D01*
X202621130Y-47615714D02*
X201621130Y-47615714D01*
X201621130Y-47853809D01*
X201668750Y-47996666D01*
X201763988Y-48091904D01*
X201859226Y-48139523D01*
X202049702Y-48187142D01*
X202192559Y-48187142D01*
X202383035Y-48139523D01*
X202478273Y-48091904D01*
X202573511Y-47996666D01*
X202621130Y-47853809D01*
X202621130Y-47615714D01*
X201621130Y-48520476D02*
X201621130Y-49139523D01*
X202002083Y-48806190D01*
X202002083Y-48949047D01*
X202049702Y-49044285D01*
X202097321Y-49091904D01*
X202192559Y-49139523D01*
X202430654Y-49139523D01*
X202525892Y-49091904D01*
X202573511Y-49044285D01*
X202621130Y-48949047D01*
X202621130Y-48663333D01*
X202573511Y-48568095D01*
X202525892Y-48520476D01*
X201621130Y-50044285D02*
X201621130Y-49568095D01*
X202097321Y-49520476D01*
X202049702Y-49568095D01*
X202002083Y-49663333D01*
X202002083Y-49901428D01*
X202049702Y-49996666D01*
X202097321Y-50044285D01*
X202192559Y-50091904D01*
X202430654Y-50091904D01*
X202525892Y-50044285D01*
X202573511Y-49996666D01*
X202621130Y-49901428D01*
X202621130Y-49663333D01*
X202573511Y-49568095D01*
X202525892Y-49520476D01*
X264507142Y-31312083D02*
X264554761Y-31264464D01*
X264602380Y-31121607D01*
X264602380Y-31026369D01*
X264554761Y-30883511D01*
X264459523Y-30788273D01*
X264364285Y-30740654D01*
X264173809Y-30693035D01*
X264030952Y-30693035D01*
X263840476Y-30740654D01*
X263745238Y-30788273D01*
X263650000Y-30883511D01*
X263602380Y-31026369D01*
X263602380Y-31121607D01*
X263650000Y-31264464D01*
X263697619Y-31312083D01*
X263697619Y-31693035D02*
X263650000Y-31740654D01*
X263602380Y-31835892D01*
X263602380Y-32073988D01*
X263650000Y-32169226D01*
X263697619Y-32216845D01*
X263792857Y-32264464D01*
X263888095Y-32264464D01*
X264030952Y-32216845D01*
X264602380Y-31645416D01*
X264602380Y-32264464D01*
X26408630Y-29041904D02*
X25408630Y-29041904D01*
X25408630Y-29280000D01*
X25456250Y-29422857D01*
X25551488Y-29518095D01*
X25646726Y-29565714D01*
X25837202Y-29613333D01*
X25980059Y-29613333D01*
X26170535Y-29565714D01*
X26265773Y-29518095D01*
X26361011Y-29422857D01*
X26408630Y-29280000D01*
X26408630Y-29041904D01*
X26408630Y-30565714D02*
X26408630Y-29994285D01*
X26408630Y-30280000D02*
X25408630Y-30280000D01*
X25551488Y-30184761D01*
X25646726Y-30089523D01*
X25694345Y-29994285D01*
X116896130Y-66665714D02*
X115896130Y-66665714D01*
X115896130Y-66903809D01*
X115943750Y-67046666D01*
X116038988Y-67141904D01*
X116134226Y-67189523D01*
X116324702Y-67237142D01*
X116467559Y-67237142D01*
X116658035Y-67189523D01*
X116753273Y-67141904D01*
X116848511Y-67046666D01*
X116896130Y-66903809D01*
X116896130Y-66665714D01*
X116896130Y-68189523D02*
X116896130Y-67618095D01*
X116896130Y-67903809D02*
X115896130Y-67903809D01*
X116038988Y-67808571D01*
X116134226Y-67713333D01*
X116181845Y-67618095D01*
X116896130Y-68665714D02*
X116896130Y-68856190D01*
X116848511Y-68951428D01*
X116800892Y-68999047D01*
X116658035Y-69094285D01*
X116467559Y-69141904D01*
X116086607Y-69141904D01*
X115991369Y-69094285D01*
X115943750Y-69046666D01*
X115896130Y-68951428D01*
X115896130Y-68760952D01*
X115943750Y-68665714D01*
X115991369Y-68618095D01*
X116086607Y-68570476D01*
X116324702Y-68570476D01*
X116419940Y-68618095D01*
X116467559Y-68665714D01*
X116515178Y-68760952D01*
X116515178Y-68951428D01*
X116467559Y-69046666D01*
X116419940Y-69094285D01*
X116324702Y-69141904D01*
X102608630Y-28565714D02*
X101608630Y-28565714D01*
X101608630Y-28803809D01*
X101656250Y-28946666D01*
X101751488Y-29041904D01*
X101846726Y-29089523D01*
X102037202Y-29137142D01*
X102180059Y-29137142D01*
X102370535Y-29089523D01*
X102465773Y-29041904D01*
X102561011Y-28946666D01*
X102608630Y-28803809D01*
X102608630Y-28565714D01*
X102608630Y-30089523D02*
X102608630Y-29518095D01*
X102608630Y-29803809D02*
X101608630Y-29803809D01*
X101751488Y-29708571D01*
X101846726Y-29613333D01*
X101894345Y-29518095D01*
X101608630Y-30422857D02*
X101608630Y-31089523D01*
X102608630Y-30660952D01*
X59746130Y-67141904D02*
X58746130Y-67141904D01*
X58746130Y-67380000D01*
X58793750Y-67522857D01*
X58888988Y-67618095D01*
X58984226Y-67665714D01*
X59174702Y-67713333D01*
X59317559Y-67713333D01*
X59508035Y-67665714D01*
X59603273Y-67618095D01*
X59698511Y-67522857D01*
X59746130Y-67380000D01*
X59746130Y-67141904D01*
X58746130Y-68046666D02*
X58746130Y-68713333D01*
X59746130Y-68284761D01*
X221590880Y-47615714D02*
X220590880Y-47615714D01*
X220590880Y-47853809D01*
X220638500Y-47996666D01*
X220733738Y-48091904D01*
X220828976Y-48139523D01*
X221019452Y-48187142D01*
X221162309Y-48187142D01*
X221352785Y-48139523D01*
X221448023Y-48091904D01*
X221543261Y-47996666D01*
X221590880Y-47853809D01*
X221590880Y-47615714D01*
X220590880Y-48520476D02*
X220590880Y-49139523D01*
X220971833Y-48806190D01*
X220971833Y-48949047D01*
X221019452Y-49044285D01*
X221067071Y-49091904D01*
X221162309Y-49139523D01*
X221400404Y-49139523D01*
X221495642Y-49091904D01*
X221543261Y-49044285D01*
X221590880Y-48949047D01*
X221590880Y-48663333D01*
X221543261Y-48568095D01*
X221495642Y-48520476D01*
X221590880Y-49615714D02*
X221590880Y-49806190D01*
X221543261Y-49901428D01*
X221495642Y-49949047D01*
X221352785Y-50044285D01*
X221162309Y-50091904D01*
X220781357Y-50091904D01*
X220686119Y-50044285D01*
X220638500Y-49996666D01*
X220590880Y-49901428D01*
X220590880Y-49710952D01*
X220638500Y-49615714D01*
X220686119Y-49568095D01*
X220781357Y-49520476D01*
X221019452Y-49520476D01*
X221114690Y-49568095D01*
X221162309Y-49615714D01*
X221209928Y-49710952D01*
X221209928Y-49901428D01*
X221162309Y-49996666D01*
X221114690Y-50044285D01*
X221019452Y-50091904D01*
X78796130Y-66665714D02*
X77796130Y-66665714D01*
X77796130Y-66903809D01*
X77843750Y-67046666D01*
X77938988Y-67141904D01*
X78034226Y-67189523D01*
X78224702Y-67237142D01*
X78367559Y-67237142D01*
X78558035Y-67189523D01*
X78653273Y-67141904D01*
X78748511Y-67046666D01*
X78796130Y-66903809D01*
X78796130Y-66665714D01*
X78796130Y-68189523D02*
X78796130Y-67618095D01*
X78796130Y-67903809D02*
X77796130Y-67903809D01*
X77938988Y-67808571D01*
X78034226Y-67713333D01*
X78081845Y-67618095D01*
X78796130Y-69141904D02*
X78796130Y-68570476D01*
X78796130Y-68856190D02*
X77796130Y-68856190D01*
X77938988Y-68760952D01*
X78034226Y-68665714D01*
X78081845Y-68570476D01*
X121658630Y-28565714D02*
X120658630Y-28565714D01*
X120658630Y-28803809D01*
X120706250Y-28946666D01*
X120801488Y-29041904D01*
X120896726Y-29089523D01*
X121087202Y-29137142D01*
X121230059Y-29137142D01*
X121420535Y-29089523D01*
X121515773Y-29041904D01*
X121611011Y-28946666D01*
X121658630Y-28803809D01*
X121658630Y-28565714D01*
X120753869Y-29518095D02*
X120706250Y-29565714D01*
X120658630Y-29660952D01*
X120658630Y-29899047D01*
X120706250Y-29994285D01*
X120753869Y-30041904D01*
X120849107Y-30089523D01*
X120944345Y-30089523D01*
X121087202Y-30041904D01*
X121658630Y-29470476D01*
X121658630Y-30089523D01*
X120658630Y-30708571D02*
X120658630Y-30803809D01*
X120706250Y-30899047D01*
X120753869Y-30946666D01*
X120849107Y-30994285D01*
X121039583Y-31041904D01*
X121277678Y-31041904D01*
X121468154Y-30994285D01*
X121563392Y-30946666D01*
X121611011Y-30899047D01*
X121658630Y-30803809D01*
X121658630Y-30708571D01*
X121611011Y-30613333D01*
X121563392Y-30565714D01*
X121468154Y-30518095D01*
X121277678Y-30470476D01*
X121039583Y-30470476D01*
X120849107Y-30518095D01*
X120753869Y-30565714D01*
X120706250Y-30613333D01*
X120658630Y-30708571D01*
X45458630Y-29041904D02*
X44458630Y-29041904D01*
X44458630Y-29280000D01*
X44506250Y-29422857D01*
X44601488Y-29518095D01*
X44696726Y-29565714D01*
X44887202Y-29613333D01*
X45030059Y-29613333D01*
X45220535Y-29565714D01*
X45315773Y-29518095D01*
X45411011Y-29422857D01*
X45458630Y-29280000D01*
X45458630Y-29041904D01*
X44458630Y-30518095D02*
X44458630Y-30041904D01*
X44934821Y-29994285D01*
X44887202Y-30041904D01*
X44839583Y-30137142D01*
X44839583Y-30375238D01*
X44887202Y-30470476D01*
X44934821Y-30518095D01*
X45030059Y-30565714D01*
X45268154Y-30565714D01*
X45363392Y-30518095D01*
X45411011Y-30470476D01*
X45458630Y-30375238D01*
X45458630Y-30137142D01*
X45411011Y-30041904D01*
X45363392Y-29994285D01*
X140708630Y-28565714D02*
X139708630Y-28565714D01*
X139708630Y-28803809D01*
X139756250Y-28946666D01*
X139851488Y-29041904D01*
X139946726Y-29089523D01*
X140137202Y-29137142D01*
X140280059Y-29137142D01*
X140470535Y-29089523D01*
X140565773Y-29041904D01*
X140661011Y-28946666D01*
X140708630Y-28803809D01*
X140708630Y-28565714D01*
X139803869Y-29518095D02*
X139756250Y-29565714D01*
X139708630Y-29660952D01*
X139708630Y-29899047D01*
X139756250Y-29994285D01*
X139803869Y-30041904D01*
X139899107Y-30089523D01*
X139994345Y-30089523D01*
X140137202Y-30041904D01*
X140708630Y-29470476D01*
X140708630Y-30089523D01*
X139708630Y-30422857D02*
X139708630Y-31041904D01*
X140089583Y-30708571D01*
X140089583Y-30851428D01*
X140137202Y-30946666D01*
X140184821Y-30994285D01*
X140280059Y-31041904D01*
X140518154Y-31041904D01*
X140613392Y-30994285D01*
X140661011Y-30946666D01*
X140708630Y-30851428D01*
X140708630Y-30565714D01*
X140661011Y-30470476D01*
X140613392Y-30422857D01*
X188333630Y-85715714D02*
X187333630Y-85715714D01*
X187333630Y-85953809D01*
X187381250Y-86096666D01*
X187476488Y-86191904D01*
X187571726Y-86239523D01*
X187762202Y-86287142D01*
X187905059Y-86287142D01*
X188095535Y-86239523D01*
X188190773Y-86191904D01*
X188286011Y-86096666D01*
X188333630Y-85953809D01*
X188333630Y-85715714D01*
X187333630Y-86620476D02*
X187333630Y-87239523D01*
X187714583Y-86906190D01*
X187714583Y-87049047D01*
X187762202Y-87144285D01*
X187809821Y-87191904D01*
X187905059Y-87239523D01*
X188143154Y-87239523D01*
X188238392Y-87191904D01*
X188286011Y-87144285D01*
X188333630Y-87049047D01*
X188333630Y-86763333D01*
X188286011Y-86668095D01*
X188238392Y-86620476D01*
X187333630Y-87572857D02*
X187333630Y-88191904D01*
X187714583Y-87858571D01*
X187714583Y-88001428D01*
X187762202Y-88096666D01*
X187809821Y-88144285D01*
X187905059Y-88191904D01*
X188143154Y-88191904D01*
X188238392Y-88144285D01*
X188286011Y-88096666D01*
X188333630Y-88001428D01*
X188333630Y-87715714D01*
X188286011Y-87620476D01*
X188238392Y-87572857D01*
X259503630Y-47544464D02*
X258503630Y-47544464D01*
X258503630Y-47782559D01*
X258551250Y-47925416D01*
X258646488Y-48020654D01*
X258741726Y-48068273D01*
X258932202Y-48115892D01*
X259075059Y-48115892D01*
X259265535Y-48068273D01*
X259360773Y-48020654D01*
X259456011Y-47925416D01*
X259503630Y-47782559D01*
X259503630Y-47544464D01*
X258836964Y-48973035D02*
X259503630Y-48973035D01*
X258456011Y-48734940D02*
X259170297Y-48496845D01*
X259170297Y-49115892D01*
X258503630Y-49401607D02*
X258503630Y-50020654D01*
X258884583Y-49687321D01*
X258884583Y-49830178D01*
X258932202Y-49925416D01*
X258979821Y-49973035D01*
X259075059Y-50020654D01*
X259313154Y-50020654D01*
X259408392Y-49973035D01*
X259456011Y-49925416D01*
X259503630Y-49830178D01*
X259503630Y-49544464D01*
X259456011Y-49449226D01*
X259408392Y-49401607D01*
X256753630Y-27138333D02*
X256277440Y-26805000D01*
X256753630Y-26566904D02*
X255753630Y-26566904D01*
X255753630Y-26947857D01*
X255801250Y-27043095D01*
X255848869Y-27090714D01*
X255944107Y-27138333D01*
X256086964Y-27138333D01*
X256182202Y-27090714D01*
X256229821Y-27043095D01*
X256277440Y-26947857D01*
X256277440Y-26566904D01*
X255753630Y-28043095D02*
X255753630Y-27566904D01*
X256229821Y-27519285D01*
X256182202Y-27566904D01*
X256134583Y-27662142D01*
X256134583Y-27900238D01*
X256182202Y-27995476D01*
X256229821Y-28043095D01*
X256325059Y-28090714D01*
X256563154Y-28090714D01*
X256658392Y-28043095D01*
X256706011Y-27995476D01*
X256753630Y-27900238D01*
X256753630Y-27662142D01*
X256706011Y-27566904D01*
X256658392Y-27519285D01*
X28789880Y-48091904D02*
X27789880Y-48091904D01*
X27789880Y-48330000D01*
X27837500Y-48472857D01*
X27932738Y-48568095D01*
X28027976Y-48615714D01*
X28218452Y-48663333D01*
X28361309Y-48663333D01*
X28551785Y-48615714D01*
X28647023Y-48568095D01*
X28742261Y-48472857D01*
X28789880Y-48330000D01*
X28789880Y-48091904D01*
X27885119Y-49044285D02*
X27837500Y-49091904D01*
X27789880Y-49187142D01*
X27789880Y-49425238D01*
X27837500Y-49520476D01*
X27885119Y-49568095D01*
X27980357Y-49615714D01*
X28075595Y-49615714D01*
X28218452Y-49568095D01*
X28789880Y-48996666D01*
X28789880Y-49615714D01*
X50221130Y-48091904D02*
X49221130Y-48091904D01*
X49221130Y-48330000D01*
X49268750Y-48472857D01*
X49363988Y-48568095D01*
X49459226Y-48615714D01*
X49649702Y-48663333D01*
X49792559Y-48663333D01*
X49983035Y-48615714D01*
X50078273Y-48568095D01*
X50173511Y-48472857D01*
X50221130Y-48330000D01*
X50221130Y-48091904D01*
X49221130Y-49520476D02*
X49221130Y-49330000D01*
X49268750Y-49234761D01*
X49316369Y-49187142D01*
X49459226Y-49091904D01*
X49649702Y-49044285D01*
X50030654Y-49044285D01*
X50125892Y-49091904D01*
X50173511Y-49139523D01*
X50221130Y-49234761D01*
X50221130Y-49425238D01*
X50173511Y-49520476D01*
X50125892Y-49568095D01*
X50030654Y-49615714D01*
X49792559Y-49615714D01*
X49697321Y-49568095D01*
X49649702Y-49520476D01*
X49602083Y-49425238D01*
X49602083Y-49234761D01*
X49649702Y-49139523D01*
X49697321Y-49091904D01*
X49792559Y-49044285D01*
X262273154Y-33211130D02*
X262273154Y-34020654D01*
X262225535Y-34115892D01*
X262177916Y-34163511D01*
X262082678Y-34211130D01*
X261892202Y-34211130D01*
X261796964Y-34163511D01*
X261749345Y-34115892D01*
X261701726Y-34020654D01*
X261701726Y-33211130D01*
X260701726Y-34211130D02*
X261273154Y-34211130D01*
X260987440Y-34211130D02*
X260987440Y-33211130D01*
X261082678Y-33353988D01*
X261177916Y-33449226D01*
X261273154Y-33496845D01*
X269296130Y-28565714D02*
X268296130Y-28565714D01*
X268296130Y-28803809D01*
X268343750Y-28946666D01*
X268438988Y-29041904D01*
X268534226Y-29089523D01*
X268724702Y-29137142D01*
X268867559Y-29137142D01*
X269058035Y-29089523D01*
X269153273Y-29041904D01*
X269248511Y-28946666D01*
X269296130Y-28803809D01*
X269296130Y-28565714D01*
X268629464Y-29994285D02*
X269296130Y-29994285D01*
X268248511Y-29756190D02*
X268962797Y-29518095D01*
X268962797Y-30137142D01*
X268296130Y-30946666D02*
X268296130Y-30756190D01*
X268343750Y-30660952D01*
X268391369Y-30613333D01*
X268534226Y-30518095D01*
X268724702Y-30470476D01*
X269105654Y-30470476D01*
X269200892Y-30518095D01*
X269248511Y-30565714D01*
X269296130Y-30660952D01*
X269296130Y-30851428D01*
X269248511Y-30946666D01*
X269200892Y-30994285D01*
X269105654Y-31041904D01*
X268867559Y-31041904D01*
X268772321Y-30994285D01*
X268724702Y-30946666D01*
X268677083Y-30851428D01*
X268677083Y-30660952D01*
X268724702Y-30565714D01*
X268772321Y-30518095D01*
X268867559Y-30470476D01*
X193096130Y-66665714D02*
X192096130Y-66665714D01*
X192096130Y-66903809D01*
X192143750Y-67046666D01*
X192238988Y-67141904D01*
X192334226Y-67189523D01*
X192524702Y-67237142D01*
X192667559Y-67237142D01*
X192858035Y-67189523D01*
X192953273Y-67141904D01*
X193048511Y-67046666D01*
X193096130Y-66903809D01*
X193096130Y-66665714D01*
X192096130Y-67570476D02*
X192096130Y-68189523D01*
X192477083Y-67856190D01*
X192477083Y-67999047D01*
X192524702Y-68094285D01*
X192572321Y-68141904D01*
X192667559Y-68189523D01*
X192905654Y-68189523D01*
X193000892Y-68141904D01*
X193048511Y-68094285D01*
X193096130Y-67999047D01*
X193096130Y-67713333D01*
X193048511Y-67618095D01*
X193000892Y-67570476D01*
X192191369Y-68570476D02*
X192143750Y-68618095D01*
X192096130Y-68713333D01*
X192096130Y-68951428D01*
X192143750Y-69046666D01*
X192191369Y-69094285D01*
X192286607Y-69141904D01*
X192381845Y-69141904D01*
X192524702Y-69094285D01*
X193096130Y-68522857D01*
X193096130Y-69141904D01*
X145471130Y-47615714D02*
X144471130Y-47615714D01*
X144471130Y-47853809D01*
X144518750Y-47996666D01*
X144613988Y-48091904D01*
X144709226Y-48139523D01*
X144899702Y-48187142D01*
X145042559Y-48187142D01*
X145233035Y-48139523D01*
X145328273Y-48091904D01*
X145423511Y-47996666D01*
X145471130Y-47853809D01*
X145471130Y-47615714D01*
X144566369Y-48568095D02*
X144518750Y-48615714D01*
X144471130Y-48710952D01*
X144471130Y-48949047D01*
X144518750Y-49044285D01*
X144566369Y-49091904D01*
X144661607Y-49139523D01*
X144756845Y-49139523D01*
X144899702Y-49091904D01*
X145471130Y-48520476D01*
X145471130Y-49139523D01*
X144804464Y-49996666D02*
X145471130Y-49996666D01*
X144423511Y-49758571D02*
X145137797Y-49520476D01*
X145137797Y-50139523D01*
X259453392Y-31387083D02*
X259501011Y-31339464D01*
X259548630Y-31196607D01*
X259548630Y-31101369D01*
X259501011Y-30958511D01*
X259405773Y-30863273D01*
X259310535Y-30815654D01*
X259120059Y-30768035D01*
X258977202Y-30768035D01*
X258786726Y-30815654D01*
X258691488Y-30863273D01*
X258596250Y-30958511D01*
X258548630Y-31101369D01*
X258548630Y-31196607D01*
X258596250Y-31339464D01*
X258643869Y-31387083D01*
X259548630Y-32339464D02*
X259548630Y-31768035D01*
X259548630Y-32053750D02*
X258548630Y-32053750D01*
X258691488Y-31958511D01*
X258786726Y-31863273D01*
X258834345Y-31768035D01*
X154996130Y-66665714D02*
X153996130Y-66665714D01*
X153996130Y-66903809D01*
X154043750Y-67046666D01*
X154138988Y-67141904D01*
X154234226Y-67189523D01*
X154424702Y-67237142D01*
X154567559Y-67237142D01*
X154758035Y-67189523D01*
X154853273Y-67141904D01*
X154948511Y-67046666D01*
X154996130Y-66903809D01*
X154996130Y-66665714D01*
X154091369Y-67618095D02*
X154043750Y-67665714D01*
X153996130Y-67760952D01*
X153996130Y-67999047D01*
X154043750Y-68094285D01*
X154091369Y-68141904D01*
X154186607Y-68189523D01*
X154281845Y-68189523D01*
X154424702Y-68141904D01*
X154996130Y-67570476D01*
X154996130Y-68189523D01*
X153996130Y-69094285D02*
X153996130Y-68618095D01*
X154472321Y-68570476D01*
X154424702Y-68618095D01*
X154377083Y-68713333D01*
X154377083Y-68951428D01*
X154424702Y-69046666D01*
X154472321Y-69094285D01*
X154567559Y-69141904D01*
X154805654Y-69141904D01*
X154900892Y-69094285D01*
X154948511Y-69046666D01*
X154996130Y-68951428D01*
X154996130Y-68713333D01*
X154948511Y-68618095D01*
X154900892Y-68570476D01*
X134097857Y-86439880D02*
X134574047Y-86439880D01*
X134574047Y-85439880D01*
X133812142Y-86392261D02*
X133669285Y-86439880D01*
X133431190Y-86439880D01*
X133335952Y-86392261D01*
X133288333Y-86344642D01*
X133240714Y-86249404D01*
X133240714Y-86154166D01*
X133288333Y-86058928D01*
X133335952Y-86011309D01*
X133431190Y-85963690D01*
X133621666Y-85916071D01*
X133716904Y-85868452D01*
X133764523Y-85820833D01*
X133812142Y-85725595D01*
X133812142Y-85630357D01*
X133764523Y-85535119D01*
X133716904Y-85487500D01*
X133621666Y-85439880D01*
X133383571Y-85439880D01*
X133240714Y-85487500D01*
X132288333Y-86439880D02*
X132859761Y-86439880D01*
X132574047Y-86439880D02*
X132574047Y-85439880D01*
X132669285Y-85582738D01*
X132764523Y-85677976D01*
X132859761Y-85725595D01*
X88321130Y-47615714D02*
X87321130Y-47615714D01*
X87321130Y-47853809D01*
X87368750Y-47996666D01*
X87463988Y-48091904D01*
X87559226Y-48139523D01*
X87749702Y-48187142D01*
X87892559Y-48187142D01*
X88083035Y-48139523D01*
X88178273Y-48091904D01*
X88273511Y-47996666D01*
X88321130Y-47853809D01*
X88321130Y-47615714D01*
X88321130Y-49139523D02*
X88321130Y-48568095D01*
X88321130Y-48853809D02*
X87321130Y-48853809D01*
X87463988Y-48758571D01*
X87559226Y-48663333D01*
X87606845Y-48568095D01*
X87654464Y-49996666D02*
X88321130Y-49996666D01*
X87273511Y-49758571D02*
X87987797Y-49520476D01*
X87987797Y-50139523D01*
X107371130Y-47615714D02*
X106371130Y-47615714D01*
X106371130Y-47853809D01*
X106418750Y-47996666D01*
X106513988Y-48091904D01*
X106609226Y-48139523D01*
X106799702Y-48187142D01*
X106942559Y-48187142D01*
X107133035Y-48139523D01*
X107228273Y-48091904D01*
X107323511Y-47996666D01*
X107371130Y-47853809D01*
X107371130Y-47615714D01*
X107371130Y-49139523D02*
X107371130Y-48568095D01*
X107371130Y-48853809D02*
X106371130Y-48853809D01*
X106513988Y-48758571D01*
X106609226Y-48663333D01*
X106656845Y-48568095D01*
X106799702Y-49710952D02*
X106752083Y-49615714D01*
X106704464Y-49568095D01*
X106609226Y-49520476D01*
X106561607Y-49520476D01*
X106466369Y-49568095D01*
X106418750Y-49615714D01*
X106371130Y-49710952D01*
X106371130Y-49901428D01*
X106418750Y-49996666D01*
X106466369Y-50044285D01*
X106561607Y-50091904D01*
X106609226Y-50091904D01*
X106704464Y-50044285D01*
X106752083Y-49996666D01*
X106799702Y-49901428D01*
X106799702Y-49710952D01*
X106847321Y-49615714D01*
X106894940Y-49568095D01*
X106990178Y-49520476D01*
X107180654Y-49520476D01*
X107275892Y-49568095D01*
X107323511Y-49615714D01*
X107371130Y-49710952D01*
X107371130Y-49901428D01*
X107323511Y-49996666D01*
X107275892Y-50044285D01*
X107180654Y-50091904D01*
X106990178Y-50091904D01*
X106894940Y-50044285D01*
X106847321Y-49996666D01*
X106799702Y-49901428D01*
X261439166Y-34258630D02*
X261772500Y-33782440D01*
X262010595Y-34258630D02*
X262010595Y-33258630D01*
X261629642Y-33258630D01*
X261534404Y-33306250D01*
X261486785Y-33353869D01*
X261439166Y-33449107D01*
X261439166Y-33591964D01*
X261486785Y-33687202D01*
X261534404Y-33734821D01*
X261629642Y-33782440D01*
X262010595Y-33782440D01*
X261105833Y-33258630D02*
X260439166Y-33258630D01*
X260867738Y-34258630D01*
X269184130Y-47615714D02*
X268184130Y-47615714D01*
X268184130Y-47853809D01*
X268231750Y-47996666D01*
X268326988Y-48091904D01*
X268422226Y-48139523D01*
X268612702Y-48187142D01*
X268755559Y-48187142D01*
X268946035Y-48139523D01*
X269041273Y-48091904D01*
X269136511Y-47996666D01*
X269184130Y-47853809D01*
X269184130Y-47615714D01*
X268517464Y-49044285D02*
X269184130Y-49044285D01*
X268136511Y-48806190D02*
X268850797Y-48568095D01*
X268850797Y-49187142D01*
X268184130Y-49472857D02*
X268184130Y-50139523D01*
X269184130Y-49710952D01*
X183571130Y-47615714D02*
X182571130Y-47615714D01*
X182571130Y-47853809D01*
X182618750Y-47996666D01*
X182713988Y-48091904D01*
X182809226Y-48139523D01*
X182999702Y-48187142D01*
X183142559Y-48187142D01*
X183333035Y-48139523D01*
X183428273Y-48091904D01*
X183523511Y-47996666D01*
X183571130Y-47853809D01*
X183571130Y-47615714D01*
X182571130Y-48520476D02*
X182571130Y-49139523D01*
X182952083Y-48806190D01*
X182952083Y-48949047D01*
X182999702Y-49044285D01*
X183047321Y-49091904D01*
X183142559Y-49139523D01*
X183380654Y-49139523D01*
X183475892Y-49091904D01*
X183523511Y-49044285D01*
X183571130Y-48949047D01*
X183571130Y-48663333D01*
X183523511Y-48568095D01*
X183475892Y-48520476D01*
X183571130Y-50091904D02*
X183571130Y-49520476D01*
X183571130Y-49806190D02*
X182571130Y-49806190D01*
X182713988Y-49710952D01*
X182809226Y-49615714D01*
X182856845Y-49520476D01*
X273062916Y-38900892D02*
X273110535Y-38948511D01*
X273253392Y-38996130D01*
X273348630Y-38996130D01*
X273491488Y-38948511D01*
X273586726Y-38853273D01*
X273634345Y-38758035D01*
X273681964Y-38567559D01*
X273681964Y-38424702D01*
X273634345Y-38234226D01*
X273586726Y-38138988D01*
X273491488Y-38043750D01*
X273348630Y-37996130D01*
X273253392Y-37996130D01*
X273110535Y-38043750D01*
X273062916Y-38091369D01*
X272729583Y-37996130D02*
X272110535Y-37996130D01*
X272443869Y-38377083D01*
X272301011Y-38377083D01*
X272205773Y-38424702D01*
X272158154Y-38472321D01*
X272110535Y-38567559D01*
X272110535Y-38805654D01*
X272158154Y-38900892D01*
X272205773Y-38948511D01*
X272301011Y-38996130D01*
X272586726Y-38996130D01*
X272681964Y-38948511D01*
X272729583Y-38900892D01*
X135946130Y-66665714D02*
X134946130Y-66665714D01*
X134946130Y-66903809D01*
X134993750Y-67046666D01*
X135088988Y-67141904D01*
X135184226Y-67189523D01*
X135374702Y-67237142D01*
X135517559Y-67237142D01*
X135708035Y-67189523D01*
X135803273Y-67141904D01*
X135898511Y-67046666D01*
X135946130Y-66903809D01*
X135946130Y-66665714D01*
X135041369Y-67618095D02*
X134993750Y-67665714D01*
X134946130Y-67760952D01*
X134946130Y-67999047D01*
X134993750Y-68094285D01*
X135041369Y-68141904D01*
X135136607Y-68189523D01*
X135231845Y-68189523D01*
X135374702Y-68141904D01*
X135946130Y-67570476D01*
X135946130Y-68189523D01*
X135041369Y-68570476D02*
X134993750Y-68618095D01*
X134946130Y-68713333D01*
X134946130Y-68951428D01*
X134993750Y-69046666D01*
X135041369Y-69094285D01*
X135136607Y-69141904D01*
X135231845Y-69141904D01*
X135374702Y-69094285D01*
X135946130Y-68522857D01*
X135946130Y-69141904D01*
X83558630Y-28565714D02*
X82558630Y-28565714D01*
X82558630Y-28803809D01*
X82606250Y-28946666D01*
X82701488Y-29041904D01*
X82796726Y-29089523D01*
X82987202Y-29137142D01*
X83130059Y-29137142D01*
X83320535Y-29089523D01*
X83415773Y-29041904D01*
X83511011Y-28946666D01*
X83558630Y-28803809D01*
X83558630Y-28565714D01*
X83558630Y-30089523D02*
X83558630Y-29518095D01*
X83558630Y-29803809D02*
X82558630Y-29803809D01*
X82701488Y-29708571D01*
X82796726Y-29613333D01*
X82844345Y-29518095D01*
X82558630Y-30422857D02*
X82558630Y-31041904D01*
X82939583Y-30708571D01*
X82939583Y-30851428D01*
X82987202Y-30946666D01*
X83034821Y-30994285D01*
X83130059Y-31041904D01*
X83368154Y-31041904D01*
X83463392Y-30994285D01*
X83511011Y-30946666D01*
X83558630Y-30851428D01*
X83558630Y-30565714D01*
X83511011Y-30470476D01*
X83463392Y-30422857D01*
X136829166Y-75666130D02*
X137162500Y-75189940D01*
X137400595Y-75666130D02*
X137400595Y-74666130D01*
X137019642Y-74666130D01*
X136924404Y-74713750D01*
X136876785Y-74761369D01*
X136829166Y-74856607D01*
X136829166Y-74999464D01*
X136876785Y-75094702D01*
X136924404Y-75142321D01*
X137019642Y-75189940D01*
X137400595Y-75189940D01*
X136448214Y-74761369D02*
X136400595Y-74713750D01*
X136305357Y-74666130D01*
X136067261Y-74666130D01*
X135972023Y-74713750D01*
X135924404Y-74761369D01*
X135876785Y-74856607D01*
X135876785Y-74951845D01*
X135924404Y-75094702D01*
X136495833Y-75666130D01*
X135876785Y-75666130D01*
X64508630Y-29041904D02*
X63508630Y-29041904D01*
X63508630Y-29280000D01*
X63556250Y-29422857D01*
X63651488Y-29518095D01*
X63746726Y-29565714D01*
X63937202Y-29613333D01*
X64080059Y-29613333D01*
X64270535Y-29565714D01*
X64365773Y-29518095D01*
X64461011Y-29422857D01*
X64508630Y-29280000D01*
X64508630Y-29041904D01*
X64508630Y-30089523D02*
X64508630Y-30280000D01*
X64461011Y-30375238D01*
X64413392Y-30422857D01*
X64270535Y-30518095D01*
X64080059Y-30565714D01*
X63699107Y-30565714D01*
X63603869Y-30518095D01*
X63556250Y-30470476D01*
X63508630Y-30375238D01*
X63508630Y-30184761D01*
X63556250Y-30089523D01*
X63603869Y-30041904D01*
X63699107Y-29994285D01*
X63937202Y-29994285D01*
X64032440Y-30041904D01*
X64080059Y-30089523D01*
X64127678Y-30184761D01*
X64127678Y-30375238D01*
X64080059Y-30470476D01*
X64032440Y-30518095D01*
X63937202Y-30565714D01*
X269184130Y-85715714D02*
X268184130Y-85715714D01*
X268184130Y-85953809D01*
X268231750Y-86096666D01*
X268326988Y-86191904D01*
X268422226Y-86239523D01*
X268612702Y-86287142D01*
X268755559Y-86287142D01*
X268946035Y-86239523D01*
X269041273Y-86191904D01*
X269136511Y-86096666D01*
X269184130Y-85953809D01*
X269184130Y-85715714D01*
X268517464Y-87144285D02*
X269184130Y-87144285D01*
X268136511Y-86906190D02*
X268850797Y-86668095D01*
X268850797Y-87287142D01*
X269184130Y-87715714D02*
X269184130Y-87906190D01*
X269136511Y-88001428D01*
X269088892Y-88049047D01*
X268946035Y-88144285D01*
X268755559Y-88191904D01*
X268374607Y-88191904D01*
X268279369Y-88144285D01*
X268231750Y-88096666D01*
X268184130Y-88001428D01*
X268184130Y-87810952D01*
X268231750Y-87715714D01*
X268279369Y-87668095D01*
X268374607Y-87620476D01*
X268612702Y-87620476D01*
X268707940Y-87668095D01*
X268755559Y-87715714D01*
X268803178Y-87810952D01*
X268803178Y-88001428D01*
X268755559Y-88096666D01*
X268707940Y-88144285D01*
X268612702Y-88191904D01*
X164521130Y-47615714D02*
X163521130Y-47615714D01*
X163521130Y-47853809D01*
X163568750Y-47996666D01*
X163663988Y-48091904D01*
X163759226Y-48139523D01*
X163949702Y-48187142D01*
X164092559Y-48187142D01*
X164283035Y-48139523D01*
X164378273Y-48091904D01*
X164473511Y-47996666D01*
X164521130Y-47853809D01*
X164521130Y-47615714D01*
X163616369Y-48568095D02*
X163568750Y-48615714D01*
X163521130Y-48710952D01*
X163521130Y-48949047D01*
X163568750Y-49044285D01*
X163616369Y-49091904D01*
X163711607Y-49139523D01*
X163806845Y-49139523D01*
X163949702Y-49091904D01*
X164521130Y-48520476D01*
X164521130Y-49139523D01*
X163949702Y-49710952D02*
X163902083Y-49615714D01*
X163854464Y-49568095D01*
X163759226Y-49520476D01*
X163711607Y-49520476D01*
X163616369Y-49568095D01*
X163568750Y-49615714D01*
X163521130Y-49710952D01*
X163521130Y-49901428D01*
X163568750Y-49996666D01*
X163616369Y-50044285D01*
X163711607Y-50091904D01*
X163759226Y-50091904D01*
X163854464Y-50044285D01*
X163902083Y-49996666D01*
X163949702Y-49901428D01*
X163949702Y-49710952D01*
X163997321Y-49615714D01*
X164044940Y-49568095D01*
X164140178Y-49520476D01*
X164330654Y-49520476D01*
X164425892Y-49568095D01*
X164473511Y-49615714D01*
X164521130Y-49710952D01*
X164521130Y-49901428D01*
X164473511Y-49996666D01*
X164425892Y-50044285D01*
X164330654Y-50091904D01*
X164140178Y-50091904D01*
X164044940Y-50044285D01*
X163997321Y-49996666D01*
X163949702Y-49901428D01*
D11*
X265483750Y-34473750D02*
G75*
G03*
X265483750Y-34473750I-100000J0D01*
G01*
D12*
X265763750Y-33823750D02*
X265763750Y-35123750D01*
X269203750Y-33823750D02*
X269203750Y-35123750D01*
D10*
X255875000Y-16846250D02*
X264825000Y-16846250D01*
X260350000Y-19356250D02*
X260350000Y-20626250D01*
X255875000Y-26016250D02*
X264825000Y-26016250D01*
X264830000Y-17606250D02*
X264825000Y-16846250D01*
X255875000Y-16846250D02*
X255870000Y-17606250D01*
X255725000Y-19356250D02*
X264975000Y-19356250D01*
X259550000Y-26487500D02*
X259550000Y-29687500D01*
X261150000Y-26487500D02*
X261150000Y-29687500D01*
X261150000Y-29687500D02*
X259550000Y-29687500D01*
X259150000Y-29687500D02*
X258850000Y-29687500D01*
X261150000Y-26487500D02*
X259550000Y-26487500D01*
D13*
X181181250Y-89180000D02*
X181181250Y-85280000D01*
X181181250Y-89180000D02*
X179181250Y-89180000D01*
X179181250Y-89180000D02*
X179181250Y-85280000D01*
X32100000Y-70130000D02*
X30100000Y-70130000D01*
X32100000Y-70130000D02*
X32100000Y-66230000D01*
X30100000Y-70130000D02*
X30100000Y-66230000D01*
X27337500Y-89180000D02*
X27337500Y-85280000D01*
X27337500Y-89180000D02*
X25337500Y-89180000D01*
X25337500Y-89180000D02*
X25337500Y-85280000D01*
X267763500Y-70036250D02*
X267763500Y-66136250D01*
X265763500Y-70036250D02*
X265763500Y-66136250D01*
X267763500Y-70036250D02*
X265763500Y-70036250D01*
X122968750Y-51080000D02*
X122968750Y-47180000D01*
X124968750Y-51080000D02*
X122968750Y-51080000D01*
X124968750Y-51080000D02*
X124968750Y-47180000D01*
X229663500Y-70130000D02*
X227663500Y-70130000D01*
X227663500Y-70130000D02*
X227663500Y-66230000D01*
X229663500Y-70130000D02*
X229663500Y-66230000D01*
X215344250Y-32030000D02*
X215344250Y-28130000D01*
X213344250Y-32030000D02*
X213344250Y-28130000D01*
X215344250Y-32030000D02*
X213344250Y-32030000D01*
X177356250Y-32030000D02*
X175356250Y-32030000D01*
X175356250Y-32030000D02*
X175356250Y-28130000D01*
X177356250Y-32030000D02*
X177356250Y-28130000D01*
X229663500Y-89180000D02*
X229663500Y-85280000D01*
X227663500Y-89180000D02*
X227663500Y-85280000D01*
X229663500Y-89180000D02*
X227663500Y-89180000D01*
X262698750Y-27944026D02*
X262698750Y-28453474D01*
X263743750Y-27944026D02*
X263743750Y-28453474D01*
X85931250Y-89180000D02*
X85931250Y-85280000D01*
X85931250Y-89180000D02*
X83931250Y-89180000D01*
X83931250Y-89180000D02*
X83931250Y-85280000D01*
X260793750Y-42949026D02*
X260793750Y-43458474D01*
X261838750Y-42949026D02*
X261838750Y-43458474D01*
X210693750Y-70130000D02*
X210693750Y-66230000D01*
X208693750Y-70130000D02*
X208693750Y-66230000D01*
X210693750Y-70130000D02*
X208693750Y-70130000D01*
X67818750Y-51080000D02*
X65818750Y-51080000D01*
X67818750Y-51080000D02*
X67818750Y-47180000D01*
X65818750Y-51080000D02*
X65818750Y-47180000D01*
X259038750Y-31254026D02*
X259038750Y-31763474D01*
X260083750Y-31254026D02*
X260083750Y-31763474D01*
X46768750Y-89180000D02*
X46768750Y-85280000D01*
X48768750Y-89180000D02*
X48768750Y-85280000D01*
X48768750Y-89180000D02*
X46768750Y-89180000D01*
X96393750Y-70130000D02*
X94393750Y-70130000D01*
X96393750Y-70130000D02*
X96393750Y-66230000D01*
X94393750Y-70130000D02*
X94393750Y-66230000D01*
X261635750Y-89180000D02*
X261635750Y-85280000D01*
X261635750Y-89180000D02*
X259635750Y-89180000D01*
X259635750Y-89180000D02*
X259635750Y-85280000D01*
X264231250Y-28047483D02*
X264231250Y-28390017D01*
X265251250Y-28047483D02*
X265251250Y-28390017D01*
X70200000Y-89180000D02*
X70200000Y-85280000D01*
X68200000Y-89180000D02*
X68200000Y-85280000D01*
X70200000Y-89180000D02*
X68200000Y-89180000D01*
X158306250Y-32030000D02*
X156306250Y-32030000D01*
X156306250Y-32030000D02*
X156306250Y-28130000D01*
X158306250Y-32030000D02*
X158306250Y-28130000D01*
X172593750Y-70130000D02*
X170593750Y-70130000D01*
X170593750Y-70130000D02*
X170593750Y-66230000D01*
X172593750Y-70130000D02*
X172593750Y-66230000D01*
X230413750Y-24128474D02*
X230413750Y-23619026D01*
X231458750Y-24128474D02*
X231458750Y-23619026D01*
X261635750Y-70098750D02*
X261635750Y-66198750D01*
X259635750Y-70098750D02*
X259635750Y-66198750D01*
X261635750Y-70098750D02*
X259635750Y-70098750D01*
X196406250Y-32030000D02*
X194406250Y-32030000D01*
X194406250Y-32030000D02*
X194406250Y-28130000D01*
X196406250Y-32030000D02*
X196406250Y-28130000D01*
X206312500Y-89180000D02*
X206312500Y-85280000D01*
X208312500Y-89180000D02*
X208312500Y-85280000D01*
X208312500Y-89180000D02*
X206312500Y-89180000D01*
X255631250Y-31968750D02*
X253631250Y-31968750D01*
X255631250Y-31968750D02*
X255631250Y-28068750D01*
X253631250Y-31968750D02*
X253631250Y-28068750D01*
X201168750Y-51080000D02*
X199168750Y-51080000D01*
X199168750Y-51080000D02*
X199168750Y-47180000D01*
X201168750Y-51080000D02*
X201168750Y-47180000D01*
X262416250Y-31357483D02*
X262416250Y-31650017D01*
X263436250Y-31357483D02*
X263436250Y-31650017D01*
X24956250Y-32030000D02*
X22956250Y-32030000D01*
X24956250Y-32030000D02*
X24956250Y-28130000D01*
X22956250Y-32030000D02*
X22956250Y-28130000D01*
X113443750Y-70130000D02*
X113443750Y-66230000D01*
X115443750Y-70130000D02*
X115443750Y-66230000D01*
X115443750Y-70130000D02*
X113443750Y-70130000D01*
X99156250Y-32030000D02*
X99156250Y-28130000D01*
X101156250Y-32030000D02*
X99156250Y-32030000D01*
X101156250Y-32030000D02*
X101156250Y-28130000D01*
X58293750Y-70130000D02*
X56293750Y-70130000D01*
X58293750Y-70130000D02*
X58293750Y-66230000D01*
X56293750Y-70130000D02*
X56293750Y-66230000D01*
X220138500Y-51080000D02*
X220138500Y-47180000D01*
X218138500Y-51080000D02*
X218138500Y-47180000D01*
X220138500Y-51080000D02*
X218138500Y-51080000D01*
X77343750Y-70130000D02*
X77343750Y-66230000D01*
X75343750Y-70130000D02*
X75343750Y-66230000D01*
X77343750Y-70130000D02*
X75343750Y-70130000D01*
X120206250Y-32030000D02*
X120206250Y-28130000D01*
X120206250Y-32030000D02*
X118206250Y-32030000D01*
X118206250Y-32030000D02*
X118206250Y-28130000D01*
X44006250Y-32030000D02*
X44006250Y-28130000D01*
X44006250Y-32030000D02*
X42006250Y-32030000D01*
X42006250Y-32030000D02*
X42006250Y-28130000D01*
X137256250Y-32030000D02*
X137256250Y-28130000D01*
X139256250Y-32030000D02*
X137256250Y-32030000D01*
X139256250Y-32030000D02*
X139256250Y-28130000D01*
X184881250Y-89180000D02*
X184881250Y-85280000D01*
X186881250Y-89180000D02*
X184881250Y-89180000D01*
X186881250Y-89180000D02*
X186881250Y-85280000D01*
X258051250Y-51008750D02*
X256051250Y-51008750D01*
X256051250Y-51008750D02*
X256051250Y-47108750D01*
X258051250Y-51008750D02*
X258051250Y-47108750D01*
X258203750Y-27884026D02*
X258203750Y-28393474D01*
X257158750Y-27884026D02*
X257158750Y-28393474D01*
X25337500Y-51080000D02*
X25337500Y-47180000D01*
X27337500Y-51080000D02*
X25337500Y-51080000D01*
X27337500Y-51080000D02*
X27337500Y-47180000D01*
X48768750Y-51080000D02*
X46768750Y-51080000D01*
X46768750Y-51080000D02*
X46768750Y-47180000D01*
X48768750Y-51080000D02*
X48768750Y-47180000D01*
X259376250Y-34968750D02*
X258901250Y-34968750D01*
X263646250Y-34968750D02*
X264121250Y-34968750D01*
X264121250Y-40188750D02*
X264121250Y-39713750D01*
X258901250Y-40188750D02*
X258901250Y-39713750D01*
X263646250Y-40188750D02*
X264121250Y-40188750D01*
X258901250Y-34968750D02*
X258901250Y-35443750D01*
X259376250Y-40188750D02*
X258901250Y-40188750D01*
X267843750Y-32030000D02*
X265843750Y-32030000D01*
X265843750Y-32030000D02*
X265843750Y-28130000D01*
X267843750Y-32030000D02*
X267843750Y-28130000D01*
X191643750Y-70130000D02*
X191643750Y-66230000D01*
X191643750Y-70130000D02*
X189643750Y-70130000D01*
X189643750Y-70130000D02*
X189643750Y-66230000D01*
X144018750Y-51080000D02*
X142018750Y-51080000D01*
X144018750Y-51080000D02*
X144018750Y-47180000D01*
X142018750Y-51080000D02*
X142018750Y-47180000D01*
X257156250Y-31700017D02*
X257156250Y-31407483D01*
X258176250Y-31700017D02*
X258176250Y-31407483D01*
X153543750Y-70130000D02*
X153543750Y-66230000D01*
X153543750Y-70130000D02*
X151543750Y-70130000D01*
X151543750Y-70130000D02*
X151543750Y-66230000D01*
X128845000Y-85097500D02*
X138065000Y-85097500D01*
X138065000Y-75877500D02*
X128845000Y-75877500D01*
X138065000Y-85097500D02*
X138065000Y-82447500D01*
X128845000Y-75877500D02*
X128845000Y-78527500D01*
X128845000Y-82447500D02*
X128515000Y-82447500D01*
X128845000Y-82447500D02*
X128845000Y-85097500D01*
X138065000Y-78527500D02*
X138065000Y-75877500D01*
X84868750Y-51080000D02*
X84868750Y-47180000D01*
X86868750Y-51080000D02*
X84868750Y-51080000D01*
X86868750Y-51080000D02*
X86868750Y-47180000D01*
X105918750Y-51080000D02*
X105918750Y-47180000D01*
X105918750Y-51080000D02*
X103918750Y-51080000D01*
X103918750Y-51080000D02*
X103918750Y-47180000D01*
X260558750Y-31224026D02*
X260558750Y-31733474D01*
X261603750Y-31224026D02*
X261603750Y-31733474D01*
X265731750Y-51080000D02*
X265731750Y-47180000D01*
X267731750Y-51080000D02*
X267731750Y-47180000D01*
X267731750Y-51080000D02*
X265731750Y-51080000D01*
X182118750Y-51080000D02*
X180118750Y-51080000D01*
X182118750Y-51080000D02*
X182118750Y-47180000D01*
X180118750Y-51080000D02*
X180118750Y-47180000D01*
X272749983Y-36603750D02*
X273042517Y-36603750D01*
X272749983Y-37623750D02*
X273042517Y-37623750D01*
X134493750Y-70130000D02*
X132493750Y-70130000D01*
X132493750Y-70130000D02*
X132493750Y-66230000D01*
X134493750Y-70130000D02*
X134493750Y-66230000D01*
X82106250Y-32030000D02*
X80106250Y-32030000D01*
X82106250Y-32030000D02*
X82106250Y-28130000D01*
X80106250Y-32030000D02*
X80106250Y-28130000D01*
X136407776Y-74306250D02*
X136917224Y-74306250D01*
X136407776Y-73261250D02*
X136917224Y-73261250D01*
X63056250Y-32030000D02*
X63056250Y-28130000D01*
X63056250Y-32030000D02*
X61056250Y-32030000D01*
X61056250Y-32030000D02*
X61056250Y-28130000D01*
X267731750Y-89180000D02*
X265731750Y-89180000D01*
X265731750Y-89180000D02*
X265731750Y-85280000D01*
X267731750Y-89180000D02*
X267731750Y-85280000D01*
X163068750Y-51080000D02*
X163068750Y-47180000D01*
X161068750Y-51080000D02*
X161068750Y-47180000D01*
X163068750Y-51080000D02*
X161068750Y-51080000D01*
%LPC*%
D14*
X112215000Y-78228750D03*
D15*
X109675000Y-83308750D03*
D14*
X105865000Y-80768750D03*
D16*
X104595000Y-83308750D03*
X114755000Y-83308750D03*
D17*
X102590000Y-80768750D03*
X115517000Y-78228750D03*
D18*
X121613000Y-76323750D03*
X97737000Y-76323750D03*
D15*
X121613000Y-91563750D03*
X97737000Y-91563750D03*
D19*
X267483750Y-34473750D03*
X266283750Y-34473750D03*
X268683750Y-34473750D03*
D20*
X257375000Y-25456250D03*
X258225000Y-25456250D03*
X259075000Y-25456250D03*
X259925000Y-25456250D03*
X260775000Y-25456250D03*
X261625000Y-25456250D03*
X262475000Y-25456250D03*
X263325000Y-25456250D03*
X263330000Y-24131250D03*
X262480000Y-24131250D03*
X261630000Y-24131250D03*
X260780000Y-24131250D03*
X259930000Y-24131250D03*
X259080000Y-24131250D03*
X258230000Y-24131250D03*
X257375000Y-24131250D03*
D21*
X264675000Y-21096250D03*
D22*
X264675000Y-24476250D03*
X256025000Y-24476250D03*
D21*
X256025000Y-21096250D03*
D23*
X231026250Y-30553750D03*
D24*
X234626250Y-30553750D03*
X238226250Y-30553750D03*
D14*
X159840000Y-78228750D03*
D15*
X157300000Y-83308750D03*
D14*
X153490000Y-80768750D03*
D16*
X152220000Y-83308750D03*
X162380000Y-83308750D03*
D17*
X150215000Y-80768750D03*
X163142000Y-78228750D03*
D18*
X169238000Y-76323750D03*
X145362000Y-76323750D03*
D15*
X169238000Y-91563750D03*
X145362000Y-91563750D03*
D14*
X147933750Y-21078750D03*
D15*
X145393750Y-26158750D03*
D14*
X141583750Y-23618750D03*
D16*
X140313750Y-26158750D03*
X150473750Y-26158750D03*
D17*
X138308750Y-23618750D03*
X151235750Y-21078750D03*
D25*
X270946250Y-34513750D03*
X273446250Y-34513750D03*
X275946250Y-34513750D03*
D26*
X267846250Y-27013750D03*
X279046250Y-27013750D03*
D25*
X270946250Y-20013750D03*
X275946250Y-20013750D03*
D14*
X257471250Y-78263750D03*
D15*
X254931250Y-83343750D03*
D14*
X251121250Y-80803750D03*
D16*
X249851250Y-83343750D03*
X260011250Y-83343750D03*
D17*
X247846250Y-80803750D03*
X260773250Y-78263750D03*
D14*
X257471250Y-59178750D03*
D15*
X254931250Y-64258750D03*
D14*
X251121250Y-61718750D03*
D16*
X249851250Y-64258750D03*
X260011250Y-64258750D03*
D17*
X247846250Y-61718750D03*
X260773250Y-59178750D03*
X256010750Y-40128750D03*
X243083750Y-42668750D03*
D16*
X255248750Y-45208750D03*
X245088750Y-45208750D03*
D14*
X246358750Y-42668750D03*
D15*
X250168750Y-45208750D03*
D14*
X252708750Y-40128750D03*
X250327500Y-21078750D03*
D15*
X247787500Y-26158750D03*
D14*
X243977500Y-23618750D03*
D16*
X242707500Y-26158750D03*
X252867500Y-26158750D03*
D17*
X240702500Y-23618750D03*
X253629500Y-21078750D03*
D14*
X228896250Y-40128750D03*
D15*
X226356250Y-45208750D03*
D14*
X222546250Y-42668750D03*
D16*
X221276250Y-45208750D03*
X231436250Y-45208750D03*
D17*
X219271250Y-42668750D03*
X232198250Y-40128750D03*
D14*
X216990000Y-78228750D03*
D15*
X214450000Y-83308750D03*
D14*
X210640000Y-80768750D03*
D16*
X209370000Y-83308750D03*
X219530000Y-83308750D03*
D17*
X207365000Y-80768750D03*
X220292000Y-78228750D03*
D14*
X190796250Y-40128750D03*
D15*
X188256250Y-45208750D03*
D14*
X184446250Y-42668750D03*
D16*
X183176250Y-45208750D03*
X193336250Y-45208750D03*
D17*
X181171250Y-42668750D03*
X194098250Y-40128750D03*
D14*
X166983750Y-21078750D03*
D15*
X164443750Y-26158750D03*
D14*
X160633750Y-23618750D03*
D16*
X159363750Y-26158750D03*
X169523750Y-26158750D03*
D17*
X157358750Y-23618750D03*
X170285750Y-21078750D03*
D14*
X109833750Y-21078750D03*
D15*
X107293750Y-26158750D03*
D14*
X103483750Y-23618750D03*
D16*
X102213750Y-26158750D03*
X112373750Y-26158750D03*
D17*
X100208750Y-23618750D03*
X113135750Y-21078750D03*
D14*
X90783750Y-21078750D03*
D15*
X88243750Y-26158750D03*
D14*
X84433750Y-23618750D03*
D16*
X83163750Y-26158750D03*
X93323750Y-26158750D03*
D17*
X81158750Y-23618750D03*
X94085750Y-21078750D03*
D14*
X78740000Y-78263750D03*
D15*
X76200000Y-83343750D03*
D14*
X72390000Y-80803750D03*
D16*
X71120000Y-83343750D03*
X81280000Y-83343750D03*
D17*
X69115000Y-80803750D03*
X82042000Y-78263750D03*
D14*
X52546250Y-21113750D03*
D15*
X50006250Y-26193750D03*
D14*
X46196250Y-23653750D03*
D16*
X44926250Y-26193750D03*
X55086250Y-26193750D03*
D17*
X42921250Y-23653750D03*
X55848250Y-21113750D03*
D27*
X259350000Y-28837500D03*
D28*
X259350000Y-27137500D03*
X261350000Y-27137500D03*
X261350000Y-29037500D03*
D17*
X39179500Y-40163750D03*
X26252500Y-42703750D03*
D14*
X35877500Y-40163750D03*
D16*
X38417500Y-45243750D03*
D15*
X33337500Y-45243750D03*
D14*
X29527500Y-42703750D03*
D16*
X28257500Y-45243750D03*
D17*
X43942000Y-59213750D03*
X31015000Y-61753750D03*
D16*
X43180000Y-64293750D03*
X33020000Y-64293750D03*
D15*
X38100000Y-64293750D03*
D14*
X40640000Y-59213750D03*
X34290000Y-61753750D03*
D17*
X184573250Y-59178750D03*
X171646250Y-61718750D03*
D16*
X183811250Y-64258750D03*
D15*
X178731250Y-64258750D03*
D14*
X181271250Y-59178750D03*
X174921250Y-61718750D03*
D16*
X173651250Y-64258750D03*
D17*
X127423250Y-59178750D03*
X114496250Y-61718750D03*
D14*
X117771250Y-61718750D03*
D16*
X126661250Y-64258750D03*
D14*
X124121250Y-59178750D03*
D15*
X121581250Y-64258750D03*
D16*
X116501250Y-64258750D03*
D17*
X279823250Y-40163750D03*
X266896250Y-42703750D03*
D16*
X279061250Y-45243750D03*
D15*
X273981250Y-45243750D03*
D16*
X268901250Y-45243750D03*
D14*
X276521250Y-40163750D03*
X270171250Y-42703750D03*
D17*
X60610750Y-78263750D03*
X47683750Y-80803750D03*
D14*
X50958750Y-80803750D03*
D15*
X54768750Y-83343750D03*
D14*
X57308750Y-78263750D03*
D16*
X59848750Y-83343750D03*
X49688750Y-83343750D03*
D17*
X39179500Y-78263750D03*
X26252500Y-80803750D03*
D16*
X28257500Y-83343750D03*
D15*
X33337500Y-83343750D03*
D16*
X38417500Y-83343750D03*
D14*
X29527500Y-80803750D03*
X35877500Y-78263750D03*
D17*
X36798250Y-21113750D03*
X23871250Y-23653750D03*
D16*
X36036250Y-26193750D03*
D15*
X30956250Y-26193750D03*
D16*
X25876250Y-26193750D03*
D14*
X33496250Y-21113750D03*
X27146250Y-23653750D03*
D17*
X198860750Y-78228750D03*
X185933750Y-80768750D03*
D14*
X195558750Y-78228750D03*
D15*
X193018750Y-83308750D03*
D14*
X189208750Y-80768750D03*
D16*
X198098750Y-83308750D03*
X187938750Y-83308750D03*
D17*
X279823250Y-59178750D03*
X266896250Y-61718750D03*
D14*
X270171250Y-61718750D03*
D15*
X273981250Y-64258750D03*
D16*
X268901250Y-64258750D03*
X279061250Y-64258750D03*
D14*
X276521250Y-59178750D03*
D17*
X279823250Y-21113750D03*
X266896250Y-23653750D03*
D16*
X268901250Y-26193750D03*
X279061250Y-26193750D03*
D15*
X273981250Y-26193750D03*
D14*
X276521250Y-21113750D03*
X270171250Y-23653750D03*
D17*
X70135750Y-59213750D03*
X57208750Y-61753750D03*
D14*
X60483750Y-61753750D03*
X66833750Y-59213750D03*
D16*
X59213750Y-64293750D03*
D15*
X64293750Y-64293750D03*
D16*
X69373750Y-64293750D03*
D17*
X89185750Y-59213750D03*
X76258750Y-61753750D03*
D14*
X85883750Y-59213750D03*
D15*
X83343750Y-64293750D03*
D16*
X78263750Y-64293750D03*
X88423750Y-64293750D03*
D14*
X79533750Y-61753750D03*
D17*
X241723250Y-78228750D03*
X228796250Y-80768750D03*
D16*
X230801250Y-83308750D03*
D14*
X232071250Y-80768750D03*
D16*
X240961250Y-83308750D03*
D15*
X235881250Y-83308750D03*
D14*
X238421250Y-78228750D03*
D17*
X132185750Y-21078750D03*
X119258750Y-23618750D03*
D14*
X128883750Y-21078750D03*
D16*
X121263750Y-26158750D03*
X131423750Y-26158750D03*
D15*
X126343750Y-26158750D03*
D14*
X122533750Y-23618750D03*
D17*
X98848250Y-40128750D03*
X85921250Y-42668750D03*
D14*
X89196250Y-42668750D03*
D16*
X98086250Y-45208750D03*
D15*
X93006250Y-45208750D03*
D14*
X95546250Y-40128750D03*
D16*
X87926250Y-45208750D03*
D17*
X79660750Y-40163750D03*
X66733750Y-42703750D03*
D16*
X68738750Y-45243750D03*
D14*
X70008750Y-42703750D03*
D16*
X78898750Y-45243750D03*
D15*
X73818750Y-45243750D03*
D14*
X76358750Y-40163750D03*
D17*
X213148250Y-40128750D03*
X200221250Y-42668750D03*
D14*
X203496250Y-42668750D03*
X209846250Y-40128750D03*
D16*
X202226250Y-45208750D03*
D15*
X207306250Y-45208750D03*
D16*
X212386250Y-45208750D03*
D17*
X222673250Y-59178750D03*
X209746250Y-61718750D03*
D14*
X213021250Y-61718750D03*
D16*
X211751250Y-64258750D03*
D14*
X219371250Y-59178750D03*
D16*
X221911250Y-64258750D03*
D15*
X216831250Y-64258750D03*
D17*
X146473250Y-59178750D03*
X133546250Y-61718750D03*
D16*
X145711250Y-64258750D03*
D15*
X140631250Y-64258750D03*
D14*
X136821250Y-61718750D03*
D16*
X135551250Y-64258750D03*
D14*
X143171250Y-59178750D03*
D17*
X189335750Y-21078750D03*
X176408750Y-23618750D03*
D16*
X188573750Y-26158750D03*
X178413750Y-26158750D03*
D15*
X183493750Y-26158750D03*
D14*
X179683750Y-23618750D03*
X186033750Y-21078750D03*
D17*
X208385750Y-21078750D03*
X195458750Y-23618750D03*
D16*
X207623750Y-26158750D03*
D14*
X205083750Y-21078750D03*
D15*
X202543750Y-26158750D03*
D16*
X197463750Y-26158750D03*
D14*
X198733750Y-23618750D03*
X238421250Y-59178750D03*
D16*
X240961250Y-64258750D03*
D15*
X235881250Y-64258750D03*
D16*
X230801250Y-64258750D03*
D14*
X232071250Y-61718750D03*
D17*
X228796250Y-61718750D03*
X241723250Y-59178750D03*
D15*
X273981250Y-83343750D03*
D16*
X279061250Y-83343750D03*
D14*
X276521250Y-78263750D03*
X270171250Y-80803750D03*
D16*
X268901250Y-83343750D03*
D17*
X266896250Y-80803750D03*
X279823250Y-78263750D03*
X60610750Y-40163750D03*
X47683750Y-42703750D03*
D14*
X50958750Y-42703750D03*
D16*
X49688750Y-45243750D03*
X59848750Y-45243750D03*
D14*
X57308750Y-40163750D03*
D15*
X54768750Y-45243750D03*
D17*
X227435750Y-21078750D03*
X214508750Y-23618750D03*
D16*
X226673750Y-26158750D03*
D14*
X217783750Y-23618750D03*
X224133750Y-21078750D03*
D15*
X221593750Y-26158750D03*
D16*
X216513750Y-26158750D03*
D17*
X155998250Y-40128750D03*
X143071250Y-42668750D03*
D16*
X145076250Y-45208750D03*
D14*
X152696250Y-40128750D03*
D16*
X155236250Y-45208750D03*
D15*
X150156250Y-45208750D03*
D14*
X146346250Y-42668750D03*
D17*
X136948250Y-40128750D03*
X124021250Y-42668750D03*
D14*
X127296250Y-42668750D03*
D16*
X126026250Y-45208750D03*
D15*
X131106250Y-45208750D03*
D16*
X136186250Y-45208750D03*
D14*
X133646250Y-40128750D03*
D17*
X203623250Y-59178750D03*
X190696250Y-61718750D03*
D15*
X197781250Y-64258750D03*
D16*
X192701250Y-64258750D03*
X202861250Y-64258750D03*
D14*
X193971250Y-61718750D03*
X200321250Y-59178750D03*
D17*
X175048250Y-40128750D03*
X162121250Y-42668750D03*
D16*
X164126250Y-45208750D03*
D15*
X169206250Y-45208750D03*
D14*
X171746250Y-40128750D03*
X165396250Y-42668750D03*
D16*
X174286250Y-45208750D03*
D17*
X74898250Y-21113750D03*
X61971250Y-23653750D03*
D16*
X74136250Y-26193750D03*
D14*
X65246250Y-23653750D03*
D15*
X69056250Y-26193750D03*
D14*
X71596250Y-21113750D03*
D16*
X63976250Y-26193750D03*
D17*
X108373250Y-59178750D03*
X95446250Y-61718750D03*
D14*
X105071250Y-59178750D03*
X98721250Y-61718750D03*
D16*
X107611250Y-64258750D03*
X97451250Y-64258750D03*
D15*
X102531250Y-64258750D03*
D17*
X117898250Y-40128750D03*
X104971250Y-42668750D03*
D14*
X108246250Y-42668750D03*
D15*
X112056250Y-45208750D03*
D16*
X117136250Y-45208750D03*
D14*
X114596250Y-40128750D03*
D16*
X106976250Y-45208750D03*
D17*
X165523250Y-59178750D03*
X152596250Y-61718750D03*
D15*
X159681250Y-64258750D03*
D14*
X155871250Y-61718750D03*
X162221250Y-59178750D03*
D16*
X154601250Y-64258750D03*
X164761250Y-64258750D03*
D29*
X180181250Y-88580000D03*
X180181250Y-85280000D03*
X31100000Y-69530000D03*
X31100000Y-66230000D03*
X26337500Y-85280000D03*
X26337500Y-88580000D03*
X266763500Y-69436250D03*
X266763500Y-66136250D03*
X123968750Y-47180000D03*
X123968750Y-50480000D03*
X228663500Y-66230000D03*
X228663500Y-69530000D03*
X214344250Y-28130000D03*
X214344250Y-31430000D03*
X176356250Y-28130000D03*
X176356250Y-31430000D03*
X228663500Y-85280000D03*
X228663500Y-88580000D03*
D30*
X263221250Y-27286250D03*
X263221250Y-29111250D03*
D29*
X84931250Y-85280000D03*
X84931250Y-88580000D03*
D30*
X261316250Y-44116250D03*
X261316250Y-42291250D03*
D29*
X209693750Y-66230000D03*
X209693750Y-69530000D03*
X66818750Y-50480000D03*
X66818750Y-47180000D03*
D30*
X259561250Y-32421250D03*
X259561250Y-30596250D03*
D29*
X47768750Y-85280000D03*
X47768750Y-88580000D03*
X95393750Y-66230000D03*
X95393750Y-69530000D03*
X260635750Y-88580000D03*
X260635750Y-85280000D03*
D31*
X264741250Y-27343750D03*
X264741250Y-29093750D03*
D29*
X69200000Y-88580000D03*
X69200000Y-85280000D03*
X157306250Y-28130000D03*
X157306250Y-31430000D03*
X171593750Y-66230000D03*
X171593750Y-69530000D03*
D32*
X230936250Y-24786250D03*
X230936250Y-22961250D03*
D29*
X260635750Y-66198750D03*
X260635750Y-69498750D03*
X195406250Y-31430000D03*
X195406250Y-28130000D03*
X207312500Y-85280000D03*
X207312500Y-88580000D03*
X254631250Y-31368750D03*
X254631250Y-28068750D03*
X200168750Y-47180000D03*
X200168750Y-50480000D03*
D33*
X262926250Y-30641250D03*
X262926250Y-32366250D03*
D29*
X23956250Y-31430000D03*
X23956250Y-28130000D03*
X114443750Y-69530000D03*
X114443750Y-66230000D03*
X100156250Y-28130000D03*
X100156250Y-31430000D03*
X57293750Y-66230000D03*
X57293750Y-69530000D03*
X219138500Y-47180000D03*
X219138500Y-50480000D03*
X76343750Y-66230000D03*
X76343750Y-69530000D03*
X119206250Y-28130000D03*
X119206250Y-31430000D03*
X43006250Y-28130000D03*
X43006250Y-31430000D03*
X138256250Y-28130000D03*
X138256250Y-31430000D03*
X185881250Y-88580000D03*
X185881250Y-85280000D03*
X257051250Y-50408750D03*
X257051250Y-47108750D03*
D30*
X257681250Y-27226250D03*
X257681250Y-29051250D03*
D29*
X26337500Y-50480000D03*
X26337500Y-47180000D03*
X47768750Y-50480000D03*
X47768750Y-47180000D03*
D34*
X263948750Y-35828750D03*
X263948750Y-36328750D03*
X263948750Y-36828750D03*
X263948750Y-37328750D03*
X263948750Y-37828750D03*
X263948750Y-38328750D03*
X263948750Y-38828750D03*
X263948750Y-39328750D03*
D35*
X263261250Y-40016250D03*
X262761250Y-40016250D03*
X262261250Y-40016250D03*
X261761250Y-40016250D03*
X261261250Y-40016250D03*
X260761250Y-40016250D03*
X260261250Y-40016250D03*
X259761250Y-40016250D03*
D34*
X259073750Y-39328750D03*
X259073750Y-38828750D03*
X259073750Y-38328750D03*
X259073750Y-37828750D03*
X259073750Y-37328750D03*
X259073750Y-36828750D03*
X259073750Y-36328750D03*
X259073750Y-35828750D03*
D35*
X259761250Y-35141250D03*
X260261250Y-35141250D03*
X260761250Y-35141250D03*
X261261250Y-35141250D03*
X261761250Y-35141250D03*
X262261250Y-35141250D03*
X262761250Y-35141250D03*
X263261250Y-35141250D03*
D36*
X261511250Y-37578750D03*
D29*
X266843750Y-31430000D03*
X266843750Y-28130000D03*
X190643750Y-66230000D03*
X190643750Y-69530000D03*
X143018750Y-50480000D03*
X143018750Y-47180000D03*
D37*
X257666250Y-32416250D03*
X257666250Y-30691250D03*
D29*
X152543750Y-66230000D03*
X152543750Y-69530000D03*
D38*
X129105000Y-80487500D03*
X137805000Y-80487500D03*
D29*
X85868750Y-50480000D03*
X85868750Y-47180000D03*
X104918750Y-47180000D03*
X104918750Y-50480000D03*
D30*
X261081250Y-30566250D03*
X261081250Y-32391250D03*
D29*
X266731750Y-50480000D03*
X266731750Y-47180000D03*
X181118750Y-47180000D03*
X181118750Y-50480000D03*
D39*
X273758750Y-37113750D03*
X272033750Y-37113750D03*
D29*
X133493750Y-69530000D03*
X133493750Y-66230000D03*
X81106250Y-31430000D03*
X81106250Y-28130000D03*
D40*
X135750000Y-73783750D03*
X137575000Y-73783750D03*
D29*
X62056250Y-31430000D03*
X62056250Y-28130000D03*
X266731750Y-88580000D03*
X266731750Y-85280000D03*
X162068750Y-47180000D03*
X162068750Y-50480000D03*
M02*
